<?xml version="1.0" encoding="utf-8"?>
<!-- Generator: Adobe Illustrator 27.5.0, SVG Export Plug-In . SVG Version: 6.00 Build 0)  -->
<svg version="1.1" xmlns="http://www.w3.org/2000/svg" xmlns:xlink="http://www.w3.org/1999/xlink" x="0px" y="0px"
	 viewBox="0 0 500 500" style="enable-background:new 0 0 500 500;" xml:space="preserve">
<g id="Background_Complete">
	<g>
		<g>
			<g>
				<path style="fill:#EBEBEB;" d="M93.184,309.071c0.111-2.021,0.973-3.959,2.23-5.546c1.231-1.555,2.884-2.821,4.794-3.357
					c2.028-0.569,4.286-0.263,6.09,0.824c1.073,0.647,1.976,1.565,2.625,2.636c0.515-1.014,1.247-1.919,2.146-2.618
					c1.663-1.293,3.869-1.863,5.95-1.538c1.959,0.307,3.75,1.369,5.156,2.767c1.435,1.427,2.52,3.25,2.869,5.244
					c0.437,2.498,0.113,5.279-1.062,7.526c-1.241,2.372-3.357,4.354-5.565,5.869c-3.712,2.547-8.609,5.751-8.609,5.751
					s-4.474-2.95-8.461-5.041c-2.371-1.244-4.706-2.962-6.219-5.171C93.695,314.326,93.046,311.603,93.184,309.071z"/>
			</g>
		</g>
	</g>
	<g>
		<g>
			<g>
				<path style="fill:#EBEBEB;" d="M371.886,198.62c0.111-2.021,0.973-3.959,2.23-5.546c1.231-1.555,2.884-2.821,4.794-3.357
					c2.028-0.569,4.286-0.263,6.09,0.825c1.073,0.647,1.976,1.565,2.625,2.636c0.515-1.014,1.247-1.919,2.146-2.618
					c1.663-1.293,3.869-1.863,5.951-1.538c1.959,0.307,3.75,1.369,5.156,2.767c1.435,1.427,2.52,3.25,2.869,5.244
					c0.437,2.498,0.113,5.279-1.062,7.526c-1.241,2.372-3.357,4.354-5.565,5.869c-3.712,2.547-8.609,5.751-8.609,5.751
					s-4.474-2.95-8.461-5.041c-2.371-1.244-4.706-2.962-6.219-5.171C372.397,203.876,371.748,201.152,371.886,198.62z"/>
			</g>
		</g>
	</g>
	<g>
		<g>
			<g>
				<path style="fill:#F5F5F5;" d="M120.25,284.24c0.071-1.298,0.625-2.543,1.432-3.562c0.791-0.998,1.852-1.812,3.079-2.156
					c1.303-0.366,2.753-0.169,3.912,0.53c0.689,0.415,1.269,1.005,1.686,1.693c0.331-0.652,0.801-1.233,1.378-1.681
					c1.068-0.831,2.485-1.197,3.822-0.988c1.258,0.197,2.409,0.879,3.312,1.777c0.922,0.917,1.618,2.087,1.842,3.368
					c0.28,1.604,0.073,3.39-0.682,4.833c-0.797,1.524-2.156,2.796-3.574,3.769c-2.384,1.636-5.529,3.694-5.529,3.694
					s-2.874-1.895-5.434-3.238c-1.523-0.799-3.022-1.902-3.994-3.321C120.578,287.615,120.161,285.866,120.25,284.24z"/>
			</g>
		</g>
	</g>
	<g>
		<g>
			<g>
				<path style="fill:#F5F5F5;" d="M354.783,223.105c0.071-1.298,0.625-2.543,1.432-3.562c0.791-0.998,1.852-1.812,3.079-2.156
					c1.303-0.366,2.753-0.169,3.912,0.529c0.689,0.415,1.269,1.005,1.686,1.693c0.331-0.652,0.801-1.232,1.378-1.681
					c1.068-0.831,2.485-1.197,3.822-0.988c1.258,0.197,2.409,0.879,3.312,1.777c0.922,0.917,1.619,2.087,1.842,3.368
					c0.28,1.604,0.073,3.39-0.682,4.833c-0.797,1.524-2.156,2.796-3.574,3.769c-2.384,1.636-5.529,3.694-5.529,3.694
					s-2.874-1.895-5.434-3.238c-1.523-0.799-3.022-1.902-3.994-3.321C355.11,226.48,354.693,224.731,354.783,223.105z"/>
			</g>
		</g>
	</g>
	<g>
		<g>
			<g>
				<path style="fill:#EBEBEB;" d="M405.327,273.65c0.071-1.298,0.625-2.543,1.432-3.562c0.791-0.998,1.852-1.812,3.079-2.156
					c1.303-0.366,2.753-0.169,3.912,0.53c0.689,0.415,1.269,1.005,1.686,1.693c0.331-0.652,0.801-1.232,1.378-1.681
					c1.068-0.831,2.485-1.197,3.822-0.988c1.258,0.197,2.409,0.879,3.312,1.777c0.922,0.917,1.618,2.087,1.842,3.368
					c0.28,1.604,0.073,3.391-0.682,4.833c-0.797,1.524-2.156,2.796-3.574,3.769c-2.384,1.636-5.529,3.694-5.529,3.694
					s-2.873-1.895-5.434-3.238c-1.523-0.799-3.022-1.902-3.994-3.321C405.655,277.025,405.238,275.276,405.327,273.65z"/>
			</g>
		</g>
	</g>
	<g>
		<g>
			<g>
				<path style="fill:#F5F5F5;" d="M126.902,325.685c0.047-0.856,0.412-1.677,0.945-2.349c0.522-0.659,1.222-1.195,2.031-1.422
					c0.859-0.241,1.816-0.112,2.58,0.349c0.454,0.274,0.837,0.663,1.112,1.117c0.218-0.43,0.528-0.813,0.909-1.109
					c0.704-0.548,1.639-0.789,2.521-0.651c0.83,0.13,1.589,0.58,2.184,1.172c0.608,0.605,1.068,1.377,1.215,2.221
					c0.185,1.058,0.048,2.236-0.45,3.188c-0.526,1.005-1.422,1.844-2.357,2.486c-1.573,1.079-3.647,2.436-3.647,2.436
					s-1.895-1.25-3.584-2.136c-1.005-0.527-1.994-1.255-2.635-2.191C127.118,327.911,126.843,326.757,126.902,325.685z"/>
			</g>
		</g>
	</g>
	<g>
		<g>
			<g>
				<path style="fill:#EBEBEB;" d="M72.785,83.719c0,0-4.601,3.975,5.403,13.211c10.005,9.236,16.105,13.385,16.105,13.385
					s2.005,2.261-0.068,3.492c-2.072,1.231-7.257,2.257-7.243,5.344c0.014,3.201,3.046,5.107,8.064,5.909
					c5.018,0.802,15.948,2.961,16.935,3.16c0.97,0.195,2.215,1.132,0.938,2.197c-1.277,1.065-11.866,6.279-9.091,11.155
					c2.775,4.876,17.121,4.813,18.689,4.835c1.569,0.023,2.112,0.484,2.278,1.279c0.166,0.795-3.558,2.212-6.509,3.818
					c-2.951,1.606-6.091,3.986-4.254,6.665c1.837,2.679,11.619,6.122,30.468,1.192l8.585-2.856l1.972-8.871
					c3.063-19.241-1.321-28.64-4.167-30.206c-2.846-1.566-4.907,1.792-6.217,4.886c-1.31,3.094-2.356,6.939-3.163,6.851
					c-0.807-0.087-1.319-0.583-1.495-2.142c-0.176-1.559-1.517-15.842-6.641-18.127c-5.124-2.284-9.277,8.764-10.212,10.139
					c-0.935,1.375-1.989,0.227-2.278-0.719c-0.295-0.963-3.513-11.629-4.802-16.545c-1.289-4.916-3.482-7.747-6.669-7.447
					c-3.073,0.288-3.587,5.549-4.609,7.731c-1.023,2.183-3.469,0.409-3.469,0.409s-4.726-5.666-14.897-14.719
					c-10.171-9.053-13.739-3.942-13.739-3.942"/>
			</g>
		</g>
		<g>
			<g>
				<g>
					<path style="fill:#E0E0E0;" d="M154.262,158.339c-7.443-6.678-20.473-18.769-31.714-29.092
						c-11.237-10.319-21.42-19.653-28.828-26.368c-3.702-3.348-6.7-6.06-8.782-7.943c-1.029-0.932-1.832-1.659-2.387-2.162
						c-0.264-0.243-0.469-0.432-0.616-0.567c-0.138-0.129-0.203-0.201-0.203-0.201s0.078,0.057,0.223,0.179
						c0.151,0.13,0.362,0.312,0.634,0.547c0.563,0.493,1.377,1.207,2.422,2.122c2.101,1.845,5.122,4.537,8.843,7.878
						c7.443,6.678,17.648,15.989,28.885,26.308c11.241,10.323,24.249,22.437,31.658,29.152"/>
				</g>
			</g>
		</g>
		<g>
			<g>
				<g>
					<path style="fill:#E0E0E0;" d="M94.294,118.008c0-0.019,0.232-0.037,0.653-0.053c0.42-0.018,1.029-0.026,1.78-0.029
						c1.503-0.003,3.58,0.046,5.87,0.141c2.258,0.102,4.3,0.195,5.863,0.266c0.704,0.028,1.298,0.051,1.776,0.069
						c0.42,0.014,0.652,0.032,0.652,0.051c0,0.019-0.232,0.039-0.652,0.059c-0.421,0.017-1.029,0.025-1.781,0.02
						c-1.504-0.012-3.579-0.088-5.869-0.184c-2.258-0.086-4.3-0.164-5.862-0.224c-0.705-0.024-1.299-0.044-1.777-0.06
						C94.526,118.046,94.294,118.027,94.294,118.008z"/>
				</g>
			</g>
		</g>
		<g>
			<g>
				<g>
					<path style="fill:#E0E0E0;" d="M111.267,117.697c-0.078,0-0.165-4.285-0.196-9.571c-0.031-5.287,0.008-9.573,0.085-9.573
						c0.077,0,0.165,4.284,0.196,9.572C111.383,113.41,111.345,117.696,111.267,117.697z"/>
				</g>
			</g>
		</g>
		<g>
			<g>
				<g>
					<path style="fill:#E0E0E0;" d="M127.812,134.325c-0.018-0.006,0.036-0.238,0.151-0.651c0.133-0.468,0.3-1.052,0.498-1.746
						c0.418-1.475,0.986-3.513,1.531-5.786c0.55-2.272,0.976-4.345,1.273-5.849c0.14-0.708,0.258-1.304,0.353-1.781
						c0.086-0.42,0.142-0.651,0.161-0.648c0.019,0.003-0.001,0.24-0.053,0.666c-0.053,0.426-0.14,1.041-0.266,1.798
						c-0.247,1.515-0.644,3.601-1.195,5.88c-0.546,2.279-1.147,4.315-1.614,5.777c-0.237,0.73-0.435,1.319-0.584,1.722
						C127.92,134.111,127.83,134.331,127.812,134.325z"/>
				</g>
			</g>
		</g>
		<g>
			<g>
				<g>
					<path style="fill:#E0E0E0;" d="M112.521,137.985c-0.005-0.019,0.203-0.09,0.583-0.204c0.44-0.124,0.979-0.275,1.616-0.455
						c1.368-0.372,3.261-0.868,5.357-1.398c2.097-0.53,3.998-0.995,5.379-1.318c0.645-0.145,1.192-0.268,1.638-0.368
						c0.388-0.081,0.605-0.117,0.61-0.098c0.005,0.019-0.203,0.09-0.583,0.204c-0.439,0.124-0.979,0.276-1.616,0.455
						c-1.368,0.372-3.262,0.868-5.358,1.398c-2.096,0.53-3.998,0.995-5.378,1.318c-0.645,0.145-1.192,0.268-1.638,0.368
						C112.743,137.968,112.526,138.004,112.521,137.985z"/>
				</g>
			</g>
		</g>
		<g>
			<g>
				<g>
					<path style="fill:#E0E0E0;" d="M125.262,154.52c-0.005-0.019,0.262-0.108,0.749-0.254c0.539-0.154,1.234-0.352,2.069-0.591
						c1.75-0.487,4.172-1.141,6.852-1.846c2.681-0.706,5.111-1.329,6.874-1.767c0.844-0.203,1.547-0.373,2.092-0.504
						c0.495-0.113,0.771-0.167,0.776-0.148c0.005,0.019-0.262,0.108-0.749,0.254c-0.539,0.154-1.234,0.352-2.069,0.591
						c-1.75,0.487-4.173,1.141-6.853,1.846c-2.68,0.705-5.11,1.329-6.873,1.766c-0.844,0.203-1.547,0.373-2.091,0.504
						C125.543,154.486,125.267,154.539,125.262,154.52z"/>
				</g>
			</g>
		</g>
		<g>
			<g>
				<g>
					<path style="fill:#E0E0E0;" d="M144.176,149.403c-0.019-0.005,0.043-0.3,0.171-0.829c0.142-0.577,0.328-1.33,0.551-2.237
						c0.463-1.889,1.093-4.5,1.706-7.402c0.618-2.902,1.109-5.543,1.45-7.457c0.165-0.919,0.302-1.683,0.406-2.267
						c0.098-0.535,0.161-0.83,0.181-0.827c0.019,0.003-0.008,0.303-0.073,0.844c-0.065,0.54-0.171,1.321-0.318,2.283
						c-0.292,1.925-0.752,4.576-1.371,7.483c-0.615,2.907-1.276,5.515-1.789,7.393c-0.259,0.938-0.476,1.696-0.638,2.215
						C144.292,149.123,144.194,149.408,144.176,149.403z"/>
				</g>
			</g>
		</g>
	</g>
	<g>
		<g>
			<g>
				<g>
					<g>
						<g>
							<path style="fill:#F5F5F5;" d="M355.284,139.375c-13.332-11.626-14.588-30.675-12.206-47.42
								c0.397-2.795,0.408-5.786,2.008-8.104c1.6-2.317,4.895-3.664,7.279-2.211c1.978,1.205,2.624,3.726,3.574,5.856
								c1.263,2.834,3.335,5.289,5.902,6.993c1.686,1.119,3.835,1.924,5.704,1.142c2.564-1.074,3.209-4.387,3.493-7.179
								c0.528-5.204,1.056-10.408,1.584-15.611c0.283-2.792,0.582-5.642,1.735-8.196c1.153-2.555,3.336-4.808,6.07-5.265
								c2.735-0.457,5.852,1.427,6.118,4.218c0.111,1.162-0.248,2.317-0.295,3.483c-0.047,1.167,0.354,2.506,1.419,2.948
								c1.078,0.447,2.28-0.224,3.202-0.95c3.184-2.507,5.529-5.925,7.744-9.338c2.215-3.412,4.386-6.916,7.33-9.707
								c2.944-2.791,6.821-4.836,10.841-4.632c4.021,0.205,8.012,3.13,8.599,7.161c0.589,4.043-2.136,7.786-4.977,10.701
								c-4.214,4.325-9.047,8.03-14.299,10.963c-0.947,0.53-1.973,1.101-2.42,2.099c-0.807,1.795,0.757,3.832,2.527,4.641
								c2.005,0.917,4.285,0.944,6.433,1.435c2.148,0.491,4.401,1.704,5.003,3.849c0.836,2.975-1.872,5.707-4.43,7.412
								c-5.122,3.414-10.822,5.933-16.772,7.413c-2.133,0.53-4.364,0.956-6.175,2.219c-1.811,1.264-3.08,3.664-2.292,5.737
								c0.789,2.076,3.287,2.981,5.48,2.813c2.192-0.167,4.243-1.127,6.375-1.679c3.99-1.034,8.913-0.236,11.012,3.342
								c1.379,2.352,1.195,5.401,0.098,7.909c-1.096,2.509-2.993,4.567-4.973,6.44c-6.922,6.548-15.415,11.504-24.643,13.63
								C372.107,143.614,363.776,143.561,355.284,139.375"/>
						</g>
					</g>
				</g>
			</g>
		</g>
		<g>
			<g>
				<g>
					<g>
						<g>
							<g>
								<path style="fill:#E0E0E0;" d="M360.758,129.307c3.388-8.215,7.848-16.911,12.825-25.847c1.253-2.229,2.49-4.432,3.71-6.603
									c1.223-2.164,2.435-4.311,3.75-6.337c2.614-4.064,5.437-7.773,8.226-11.209c2.789-3.439,5.561-6.6,8.174-9.537
									c2.621-2.933,5.115-5.62,7.493-7.973c4.743-4.724,9.011-8.075,12.035-10.255c1.51-1.096,2.71-1.907,3.53-2.446
									c0.395-0.255,0.704-0.456,0.937-0.607c0.213-0.134,0.324-0.199,0.329-0.192c0.005,0.008-0.096,0.088-0.299,0.236
									c-0.226,0.161-0.527,0.376-0.908,0.649c-0.801,0.567-1.981,1.404-3.471,2.523c-2.983,2.228-7.201,5.611-11.897,10.354
									c-2.355,2.362-4.828,5.058-7.43,7.999c-2.598,2.948-5.354,6.115-8.126,9.553c-2.772,3.436-5.576,7.137-8.169,11.183
									c-1.305,2.017-2.505,4.145-3.729,6.316c-1.218,2.17-2.454,4.372-3.706,6.6c-4.973,8.929-9.435,17.598-12.837,25.778"/>
							</g>
						</g>
					</g>
				</g>
			</g>
		</g>
		<g>
			<g>
				<g>
					<g>
						<g>
							<g>
								<path style="fill:#E0E0E0;" d="M381.192,90.517c-0.035,0.002-0.084-0.432-0.144-1.22c-0.064-0.787-0.118-1.928-0.164-3.339
									c-0.095-2.82-0.094-6.72-0.076-11.019c0.018-4.302-0.035-8.19-0.173-11.001c-0.065-1.406-0.129-2.543-0.183-3.329
									c-0.05-0.786-0.061-1.224-0.025-1.228c0.035-0.004,0.114,0.425,0.225,1.207c0.116,0.781,0.236,1.918,0.347,3.325
									c0.232,2.815,0.344,6.719,0.326,11.025c-0.028,4.243-0.055,8.081-0.075,11.013c-0.001,1.325,0,2.441,0,3.338
									C381.246,90.077,381.228,90.515,381.192,90.517z"/>
							</g>
						</g>
					</g>
				</g>
			</g>
		</g>
		<g>
			<g>
				<g>
					<g>
						<g>
							<g>
								<path style="fill:#E0E0E0;" d="M417.787,87.678c-0.003,0.036-0.52,0.04-1.449,0.017c-0.929-0.017-2.274-0.049-3.936-0.036
									c-3.324,0-7.915,0.162-12.973,0.562c-5.059,0.409-9.621,0.974-12.908,1.478c-1.647,0.24-2.973,0.471-3.892,0.624
									c-0.918,0.157-1.429,0.228-1.437,0.193c-0.007-0.036,0.491-0.173,1.398-0.392c0.908-0.215,2.229-0.501,3.872-0.789
									c3.282-0.599,7.853-1.223,12.927-1.634c5.072-0.4,9.684-0.504,13.016-0.41c1.667,0.034,3.014,0.122,3.942,0.203
									C417.278,87.578,417.789,87.642,417.787,87.678z"/>
							</g>
						</g>
					</g>
				</g>
			</g>
		</g>
		<g>
			<g>
				<g>
					<g>
						<g>
							<g>
								<path style="fill:#E0E0E0;" d="M361.27,128.695c-0.017,0.006-0.085-0.154-0.199-0.464c-0.128-0.369-0.284-0.819-0.474-1.364
									c-0.406-1.186-0.949-2.918-1.591-5.066c-1.288-4.296-2.88-10.286-4.547-16.92c-1.669-6.636-3.203-12.633-4.399-16.95
									c-0.588-2.099-1.072-3.826-1.432-5.109c-0.153-0.557-0.279-1.016-0.382-1.393c-0.082-0.319-0.117-0.49-0.1-0.497
									c0.017-0.005,0.085,0.155,0.199,0.465c0.128,0.369,0.284,0.818,0.474,1.363c0.406,1.186,0.949,2.918,1.591,5.066
									c1.288,4.296,2.88,10.286,4.548,16.923c1.668,6.634,3.203,12.63,4.398,16.948c0.589,2.098,1.072,3.826,1.432,5.108
									c0.153,0.557,0.279,1.017,0.382,1.393C361.253,128.518,361.287,128.689,361.27,128.695z"/>
							</g>
						</g>
					</g>
				</g>
			</g>
		</g>
		<g>
			<g>
				<g>
					<g>
						<g>
							<g>
								<path style="fill:#E0E0E0;" d="M410.594,118.469c0.003,0.018-0.168,0.067-0.494,0.144c-0.386,0.085-0.86,0.189-1.434,0.315
									c-1.323,0.277-3.11,0.65-5.283,1.104c-4.461,0.934-10.607,2.293-17.396,3.805c-6.791,1.513-12.956,2.817-17.437,3.658
									c-2.24,0.421-4.057,0.744-5.316,0.941c-0.582,0.087-1.062,0.159-1.452,0.219c-0.333,0.044-0.51,0.058-0.512,0.041
									c-0.003-0.018,0.168-0.067,0.494-0.145c0.385-0.084,0.859-0.188,1.434-0.314c1.323-0.277,3.109-0.65,5.282-1.104
									c4.461-0.933,10.607-2.293,17.398-3.805c6.789-1.512,12.953-2.816,17.434-3.657c2.241-0.422,4.057-0.744,5.317-0.941
									c0.582-0.088,1.061-0.16,1.452-0.219C410.415,118.465,410.591,118.451,410.594,118.469z"/>
							</g>
						</g>
					</g>
				</g>
			</g>
		</g>
	</g>
</g>
<g id="Background_Simple" style="display:none;">
	<path style="display:inline;fill:#EBEBEB;" d="M438.133,177.056l-2.312-3.762c-18.57-30.218-52.005-48.535-87.428-46.74
		c-4.991,0.253-9.964,0.889-14.864,1.925c-32.592,6.889-60.95,31.226-72.705,62.395c-6.913,18.331-8.844,39.437-21.963,53.987
		c-17.074,18.936-46.06,19.531-71.545,18.747c-25.485-0.785-54.491-0.115-71.481,18.896c-10.641,11.906-14.023,28.838-13.165,44.783
		c2.272,42.215,32.061,79.961,69.946,98.723c37.885,18.762,82.49,20.442,123.953,12.189
		c58.084-11.562,113.322-43.314,146.524-92.355C456.295,296.802,464.698,229.988,438.133,177.056z"/>
</g>
<g id="Floor">
	<g>
		<g>
			<path style="fill:#263238;" d="M473.367,465.825c0,0.144-100.013,0.26-223.356,0.26c-123.386,0-223.378-0.117-223.378-0.26
				s99.992-0.26,223.378-0.26C373.354,465.564,473.367,465.681,473.367,465.825z"/>
		</g>
	</g>
</g>
<g id="Hamster">
	<g>
		<g>
			<g>
				<g>
					<g>
						<path style="fill:#E8505B;" d="M315.698,223.457c0.554-9.259,1.108-18.519,1.661-27.778c0.067-1.115,0.238-2.41,1.201-2.977
							c0.868-0.511,1.97-0.174,2.904,0.201c16.416,6.602,28.462,24.923,29.903,42.558"/>
					</g>
					<g style="opacity:0.3;">
						<g>
							<path style="fill:#FFFFFF;" d="M321.275,202.276c7.712,4.961,12.846,13.72,13.406,22.873
								c0.068,1.112,0.039,2.331-0.666,3.194c-0.581,0.711-1.531,1.039-2.449,1.071c-0.918,0.031-1.823-0.197-2.713-0.424
								c-2.219-0.566-4.546-1.191-6.188-2.787c-1.55-1.507-2.272-3.706-2.405-5.864c-0.133-2.158,0.266-4.309,0.663-6.434
								c0.932,1.594,1.864,3.187,2.796,4.781c-0.996-5.162-1.992-10.324-2.989-15.487c-0.054-0.28-0.099-0.599,0.076-0.823
								c0.176-0.224,0.648-0.147,0.623,0.136"/>
						</g>
					</g>
				</g>
				<g>
					<g>
						<path style="fill:#E8505B;" d="M220.51,243.184c-8.543-10.054-13.577-23.033-14.047-36.218
							c3.049,1.437,6.099,2.875,9.148,4.312c-0.765-0.928-1.53-1.856-2.295-2.784c13.214,1.009,25.933,7.433,34.588,17.468"/>
					</g>
					<g style="opacity:0.3;">
						<g>
							<path style="fill:#FFFFFF;" d="M225.577,239.135c-7.199-5.161-12.082-13.435-13.122-22.231
								c-0.072-0.607-0.022-1.391,0.554-1.596c0.402-0.143,0.828,0.1,1.185,0.333c5.504,3.596,11.007,7.191,16.511,10.787
								c-0.719-1.022-1.172-2.229-1.302-3.472c2.324,1.712,4.648,3.425,6.972,5.137c0.49,0.361,1.019,0.785,1.106,1.388
								c0.094,0.652-0.371,1.246-0.855,1.693c-2.3,2.123-5.769,2.891-8.75,1.935c1.009,0.87,2.018,1.74,3.026,2.61
								c-1.777,1.163-4.042,1.553-6.106,1.049c-0.221,0.98,0.235,2.077,1.085,2.611"/>
						</g>
					</g>
				</g>
				<g>
					<path style="fill:#E8505B;" d="M407.009,330.448c0,0,12.802,13.235,18.62,12.132c0,0-20.214-21.507-28.714-41.36
						c-3.195-7.463-7.956-16.913-14.467-26.986c3.834-6.604,7.238-14.074,8.806-21.626c0,0-6.397,7.671-14.589,13.197
						c-0.445-0.613-0.891-1.227-1.349-1.841c3.857-3.681,7.545-8.84,8.559-15.602l-20.217-0.871c0.499-0.69,1.066-1.613,1.714-2.847
						c0,0-12.759-11.77-33.035-20.917c-23.245-13.229-74.984-17.597-100.198,3.918c-22.564,13.158-28.621,29.984-46.4,34.168
						l-10.539-1.158c0,0-4.099,21.994,9.368,31.834l-9.955-2.315c0,0,1.837,8.753,11.674,18.412l-6.132-0.749
						c0,0,2.656,13.787,11.157,17.096c0,0-13.282,1.654-17.001-3.309c0,0-4.423,20.593,15.695,28.371
						c0,0-60.262,7.055-43.322,80.821c3.957,17.231,27.748,29.639,55.099,35.621l196.965-0.769
						c12.007-3.914,26.326-43.675,26.857-59.668c0.531-15.993-7.438-46.875-7.438-46.875l7.463,9.926L407.009,330.448z"/>
				</g>
				<g>
					<g>
						<path style="fill:#E8505B;" d="M181.843,361.189c-11.314-0.68-22.422,8.114-24.357,19.283
							c7.325-4.853,15.805-7.951,24.533-8.964c-6.998,6.199-9.457,17.001-5.83,25.618c2.867-7.784,9.072-14.274,16.72-17.488
							c-5.272,6.218-6.918,15.306-4.161,22.978"/>
					</g>
					<g>
						<g>
							<path style="fill:#263238;" d="M188.748,402.617c-0.009,0.003-0.063-0.133-0.16-0.404c-0.091-0.272-0.248-0.671-0.404-1.208
								c-0.301-1.076-0.688-2.692-0.822-4.814c-0.118-2.113-0.023-4.747,0.765-7.659c0.758-2.906,2.207-6.103,4.629-9.022
								l0.228,0.311c-3.224,1.38-6.537,3.492-9.472,6.416c-2.931,2.913-5.485,6.639-7.091,10.975l-0.219,0.592l-0.245-0.582
								c-2.384-5.659-2.288-12.849,0.729-19.04c1.295-2.626,3.053-4.98,5.161-6.869l0.201,0.45
								c-9.502,1.099-17.949,4.608-24.439,8.894l-0.438,0.289l0.093-0.514c0.459-2.528,1.366-4.843,2.504-6.873
								c1.131-2.039,2.506-3.799,3.987-5.249c2.91-2.978,6.18-4.728,8.94-5.779c2.792-1.033,5.136-1.322,6.717-1.401
								c0.792-0.044,1.402,0.017,1.81,0.018c0.187,0.009,0.338,0.016,0.463,0.021c0.104,0.007,0.156,0.013,0.156,0.019
								c0,0.006-0.053,0.011-0.158,0.016c-0.125,0.004-0.276,0.008-0.463,0.013c-0.408,0.022-1.015-0.017-1.8,0.049
								c-1.568,0.122-3.884,0.451-6.632,1.508c-2.716,1.075-5.927,2.835-8.773,5.793c-1.449,1.44-2.79,3.182-3.889,5.191
								c-1.106,2.001-1.983,4.275-2.421,6.75l-0.344-0.225c6.523-4.351,15.037-7.916,24.627-9.034l0.807-0.094l-0.606,0.544
								c-2.052,1.844-3.769,4.142-5.035,6.71c-2.951,6.055-3.05,13.094-0.737,18.618l-0.464,0.01
								c1.644-4.409,4.251-8.185,7.238-11.128c2.99-2.955,6.362-5.079,9.64-6.456l0.758-0.319l-0.53,0.63
								c-2.397,2.85-3.851,5.986-4.626,8.848c-0.807,2.866-0.933,5.469-0.85,7.564c0.099,2.104,0.448,3.715,0.711,4.796
								c0.137,0.539,0.275,0.943,0.348,1.22C188.722,402.47,188.758,402.613,188.748,402.617z"/>
						</g>
					</g>
				</g>
				<g>
					<g>
						<path style="fill:#E8505B;" d="M388.326,392.223c6.046-1.282,12.525-0.418,18.024,2.404
							c5.499,2.822,9.978,7.582,12.462,13.242"/>
					</g>
					<g>
						<g>
							<path style="fill:#263238;" d="M418.812,407.869c-0.097,0.049-0.869-1.902-2.826-4.607c-1.93-2.695-5.225-6.079-9.754-8.403
								c-4.53-2.325-9.201-3.029-12.516-3.026c-3.339-0.013-5.373,0.497-5.39,0.39c-0.007-0.029,0.493-0.178,1.418-0.358
								c0.924-0.182,2.281-0.36,3.97-0.4c3.357-0.099,8.133,0.557,12.756,2.931c4.622,2.372,7.94,5.869,9.816,8.654
								c0.952,1.395,1.599,2.602,1.99,3.459C418.669,407.365,418.839,407.857,418.812,407.869z"/>
						</g>
					</g>
				</g>
				<g style="opacity:0.3;">
					<g>
						<path d="M318.869,408.837c-7.262,1.144-16.501,6.648-19.879,13.178c-0.72,1.391-0.056,1.582,0.004,3.147
							c0.061,1.565,0.904,3.181,2.357,3.767s3.421-0.246,3.69-1.789c-0.883,5.265,0.306,10.849,3.258,15.297
							c2.034-1.136,3.705-2.91,4.718-5.008c-0.426,7.789,2.543,15.704,7.985,21.292c-1.18-4.604-2.359-9.209-3.539-13.813
							c-1.276-4.981-2.501-9.249-2.162-14.379c0.362-5.48,3.623-10.099,6.148-14.643c-3.476,1.509-7.504,8.357-10.939,12.527
							c-0.502-7.288,2.571-14.369,8.086-19.364"/>
					</g>
				</g>
				<g>
					<g>
						<path style="fill:#263238;" d="M317.507,445.061c-0.014,0.006-0.108-0.197-0.275-0.594c-0.153-0.401-0.441-0.976-0.685-1.765
							c-0.536-1.561-1.139-3.918-1.346-6.941c-0.201-3.013,0.028-6.712,1.247-10.655c1.164-3.942,3.391-8.108,6.815-11.666
							l0.35,0.361c-2.714,2.529-5.647,5.224-8.313,8.326c-1.716,1.987-3.225,4.08-4.447,6.244l-0.39,0.691l-0.089-0.786
							c-0.491-4.353,0.46-8.556,2.151-11.977c1.692-3.444,4.133-6.116,6.649-7.932l0.181,0.34c-2.198,0.818-3.994,2.028-5.365,3.294
							c-1.386,1.259-2.348,2.579-3.038,3.701c-0.686,1.131-1.086,2.084-1.344,2.732c-0.24,0.656-0.36,1.006-0.381,0.999
							c-0.009-0.003,0.009-0.093,0.054-0.268c0.048-0.174,0.111-0.435,0.221-0.77c0.226-0.665,0.598-1.642,1.264-2.805
							c0.671-1.154,1.623-2.514,3.014-3.818c1.377-1.31,3.195-2.571,5.441-3.432l1.336-0.512l-1.155,0.852
							c-2.448,1.806-4.818,4.441-6.456,7.823c-1.638,3.36-2.549,7.472-2.063,11.711l-0.479-0.095c1.238-2.203,2.767-4.326,4.5-6.333
							c2.694-3.134,5.645-5.835,8.366-8.356l0.35,0.361c-3.368,3.48-5.583,7.564-6.76,11.441c-1.232,3.878-1.498,7.526-1.342,10.509
							c0.161,2.992,0.709,5.339,1.191,6.907c0.217,0.793,0.478,1.374,0.604,1.785C317.454,444.84,317.52,445.055,317.507,445.061z"
							/>
					</g>
				</g>
				<g>
					<g>
						<path style="fill:#E8505B;" d="M198.862,443.964c3.888,4.333,9.135,7.428,14.808,8.736c0.652,0.15,1.444,0.237,1.891-0.261
							c0.576-0.641,0.103-1.645-0.38-2.359c-2.117-3.126-4.233-6.251-6.349-9.377c4.493,3.559,9.912,5.939,15.572,6.838
							c0.942,0.15,2.119,0.154,2.598-0.671c0.387-0.666,0.084-1.505-0.233-2.207c-0.97-2.147-2.031-4.254-3.178-6.312"/>
					</g>
					<g>
						<g>
							<path style="fill:#263238;" d="M223.59,438.35c0.015-0.008,0.121,0.165,0.31,0.503c0.209,0.388,0.476,0.883,0.805,1.493
								c0.352,0.673,0.77,1.47,1.249,2.386c0.243,0.469,0.502,0.969,0.776,1.497c0.273,0.522,0.572,1.114,0.631,1.836
								c0.023,0.359-0.071,0.763-0.318,1.077c-0.249,0.317-0.627,0.512-1.007,0.595c-0.767,0.175-1.559,0.032-2.321-0.103
								c-1.549-0.269-3.192-0.662-4.875-1.232c-3.367-1.123-6.916-2.924-10.169-5.494l0.377-0.349
								c0.351,0.518,0.726,1.072,1.105,1.63c1.213,1.795,2.398,3.548,3.543,5.242c0.571,0.847,1.132,1.679,1.681,2.495
								c0.281,0.422,0.537,0.874,0.651,1.401c0.143,0.512-0.046,1.211-0.565,1.504c-0.511,0.297-1.056,0.24-1.519,0.165
								c-0.474-0.089-0.895-0.22-1.336-0.326c-0.862-0.246-1.693-0.509-2.478-0.811c-1.574-0.596-2.984-1.288-4.22-2.004
								c-2.477-1.434-4.244-2.951-5.386-4.058c-0.569-0.558-0.993-1.008-1.263-1.329c-0.273-0.318-0.41-0.49-0.397-0.502
								c0.013-0.012,0.176,0.137,0.473,0.43c0.293,0.297,0.739,0.722,1.325,1.253c1.176,1.054,2.961,2.512,5.43,3.886
								c1.232,0.687,2.632,1.35,4.189,1.92c0.777,0.289,1.597,0.54,2.447,0.773c0.831,0.178,1.808,0.573,2.484,0.194
								c0.317-0.196,0.441-0.58,0.338-0.997c-0.091-0.416-0.319-0.832-0.584-1.222c-0.553-0.813-1.118-1.643-1.692-2.487
								c-1.148-1.692-2.335-3.442-3.552-5.236c-0.378-0.559-0.753-1.113-1.104-1.631l-0.944-1.394l1.32,1.045
								c3.199,2.532,6.686,4.322,9.997,5.456c1.655,0.576,3.272,0.979,4.798,1.264c0.764,0.148,1.498,0.279,2.16,0.137
								c0.67-0.111,1.104-0.663,1.054-1.276c-0.036-0.608-0.299-1.188-0.565-1.718c-0.26-0.532-0.506-1.035-0.738-1.508
								c-0.449-0.928-0.839-1.736-1.169-2.417c-0.294-0.628-0.533-1.136-0.72-1.535C223.651,438.548,223.575,438.359,223.59,438.35z
								"/>
						</g>
					</g>
				</g>
				<g style="opacity:0.3;">
					<g>
						<path d="M223.528,381.785c2.189,3.709,5.469,6.765,9.324,8.685c-0.219-2.039-1.085-4.005-2.443-5.542
							c4.204,4.009,9.24,7.141,14.694,9.139c-4.636,2.065-10.256,1.76-14.642-0.793c-4.386-2.553-7.426-7.289-7.921-12.34"/>
					</g>
				</g>
				<g style="opacity:0.3;">
					<g>
						<path d="M196.773,316.612c7.939,15.273,33.619,22.812,53.756,23.133c6.223,0.099,14.975,4.694,21.162,4.099
							c13.833-1.33,25.055-8.79,38.921-9.972c8.624-0.736,17.312-0.962,25.839-2.448s8.143-2.466,14.916-7.855
							c6.773-5.389,14.116-10.733,14.004-19.388c-12.736,15.597-25.329,20.429-44.944,24.978c-19.615,4.55-39.994,4.47-60.109,3.539
							C238.188,331.675,214.962,329.256,196.773,316.612"/>
					</g>
				</g>
				<g>
					<g>
						<path style="fill:#E8505B;" d="M265.093,199.49c0.086-0.004,0.165,1.126,0.467,2.918c0.299,1.792,0.881,4.242,1.903,6.815
							c1.03,2.572,2.293,4.75,3.309,6.256c1.014,1.509,1.734,2.382,1.669,2.438c-0.027,0.024-0.234-0.172-0.586-0.546
							c-0.356-0.371-0.833-0.944-1.384-1.68c-1.105-1.469-2.445-3.659-3.492-6.275c-1.04-2.618-1.575-5.128-1.784-6.955
							c-0.106-0.914-0.155-1.657-0.152-2.171C265.041,199.775,265.057,199.491,265.093,199.49z"/>
					</g>
				</g>
				<g>
					<g>
						<path style="fill:#E8505B;" d="M271.623,196.959c0.084,0.034-0.314,1.021-0.699,2.675c-0.39,1.651-0.692,3.995-0.492,6.575
							c0.211,2.58,0.881,4.847,1.527,6.415c0.643,1.572,1.192,2.483,1.114,2.53c-0.03,0.019-0.193-0.192-0.462-0.593
							c-0.276-0.397-0.619-1.008-0.99-1.789c-0.746-1.559-1.493-3.874-1.709-6.521c-0.206-2.647,0.165-5.051,0.655-6.708
							c0.242-0.83,0.484-1.488,0.694-1.924C271.463,197.179,271.59,196.945,271.623,196.959z"/>
					</g>
				</g>
				<g>
					<g>
						<path style="fill:#E8505B;" d="M149.23,363.199c-0.012-0.014,0.125-0.148,0.397-0.392c0.277-0.238,0.667-0.612,1.217-1.035
							c1.075-0.878,2.711-2.055,4.853-3.316c4.264-2.553,10.725-5.147,18.177-6.575c7.454-1.434,14.33-1.712,19.274-1.858
							c2.477-0.065,4.48-0.082,5.865-0.082c0.645,0.006,1.172,0.01,1.595,0.014c0.365,0.009,0.556,0.022,0.557,0.04
							c0,0.018-0.191,0.04-0.554,0.064c-0.422,0.022-0.949,0.05-1.593,0.084c-1.456,0.061-3.439,0.145-5.856,0.247
							c-4.936,0.239-11.784,0.577-19.188,2.001c-7.401,1.419-13.816,3.933-18.094,6.383c-2.148,1.21-3.805,2.334-4.913,3.158
							C149.857,362.754,149.259,363.233,149.23,363.199z"/>
					</g>
				</g>
				<g>
					<g>
						<path style="fill:#E8505B;" d="M292.582,201.343c-0.027,0.09-1.716-0.487-4.492-1.16c-1.388-0.317-3.068-0.629-4.937-0.593
							c-1.854,0.027-3.919,0.494-5.734,1.625c-0.898,0.57-1.672,1.284-2.252,2.094c-0.57,0.816-0.936,1.725-1.127,2.623
							c-0.373,1.812-0.107,3.524,0.212,4.898c0.693,2.762,1.426,4.401,1.326,4.436c-0.031,0.012-0.234-0.384-0.55-1.124
							c-0.309-0.742-0.758-1.822-1.133-3.223c-0.368-1.388-0.692-3.151-0.325-5.084c0.189-0.957,0.571-1.938,1.18-2.82
							c0.616-0.875,1.442-1.639,2.392-2.241c1.918-1.195,4.08-1.662,6.006-1.665c1.933-0.01,3.64,0.349,5.032,0.715
							c1.395,0.373,2.494,0.759,3.25,1.033C292.183,201.136,292.593,201.309,292.582,201.343z"/>
					</g>
				</g>
				<g>
					<path style="fill:#E8505B;" d="M442.611,451.945c-1.082-7.186-4.6-14.253-10.607-18.343c-6.007-4.09-14.66-4.567-20.381-0.085
						l-23.741,32.108l50.535,0.207C441.24,463.222,443.184,455.745,442.611,451.945z"/>
				</g>
				<g style="opacity:0.3;">
					<g>
						<path d="M408.974,465.16c4.267-1.783,7.419-5.609,9.353-9.811c1.934-4.201,2.795-8.802,3.639-13.349
							c0.701-3.775,1.368-7.845-0.272-11.316c-0.784-0.123-1.566,0.348-2.043,0.983c-0.477,0.635-0.712,1.413-0.952,2.171
							c-3.907,12.343-9.941,22.948-19.784,31.358"/>
					</g>
				</g>
				<g style="opacity:0.3;">
					<g>
						<path style="fill:#FFFFFF;" d="M258.881,214.408c4.986,14.407,5.625,29.951,5.086,45.187
							c-0.268,7.582-0.833,15.247-3.203,22.455c-2.37,7.207-6.726,13.996-13.18,17.983c-6.106,3.772-13.649,4.754-20.764,3.816
							c-7.116-0.938-13.877-3.672-20.291-6.893c-7.316-3.675-14.373-8.078-20.053-13.973c-5.68-5.896-10.338-14.194-11.277-22.327
							l10.539,1.158c0,0,8.115-0.866,20.726-13.064c13.772-13.321,16.283-14.954,26.606-21.889
							C245.794,218.312,258.881,214.408,258.881,214.408z"/>
					</g>
				</g>
				<g style="opacity:0.3;">
					<g>
						<path d="M302.444,303.233c3.909-2.316,9.37-1.573,12.518,1.703c3.137-4.232,8.898-6.327,14.021-5.101
							c-3.053,1.385-6.151,2.827-8.621,5.095c-2.469,2.268-4.254,5.53-3.937,8.868c-3.087-3.321-6.652-6.197-10.551-8.512
							c-1.62-0.961-3.756-1.806-5.273-0.69"/>
					</g>
				</g>
			</g>
			<g>
				<g>
					<path style="fill:#E8505B;" d="M336.877,415.887c-5.749,4.134-10.094,10.186-12.172,16.955s-1.877,14.217,0.563,20.864"/>
				</g>
				<g>
					<g>
						<path style="fill:#263238;" d="M325.268,453.706c-0.017,0.006-0.082-0.128-0.19-0.391c-0.102-0.264-0.273-0.648-0.436-1.162
							c-0.355-1.018-0.781-2.526-1.117-4.429c-0.689-3.783-0.813-9.281,0.93-14.958c1.742-5.68,4.93-10.161,7.622-12.906
							c1.346-1.387,2.545-2.396,3.41-3.039c0.423-0.334,0.78-0.556,1.013-0.717c0.237-0.157,0.366-0.231,0.376-0.217
							c0.025,0.034-0.443,0.403-1.262,1.092c-0.821,0.688-1.971,1.73-3.268,3.133c-2.595,2.781-5.679,7.222-7.393,12.807
							c-1.714,5.583-1.653,10.988-1.065,14.746c0.286,1.889,0.654,3.398,0.947,4.428
							C325.128,453.124,325.308,453.691,325.268,453.706z"/>
					</g>
				</g>
			</g>
			<g>
				<g>
					<g>
						<g>
							<path style="fill:#E8505B;" d="M356.773,381.273c4.085-3.143,9.365-6.445,14.022-4.237c2.637,1.25,4.265,4.069,4.771,6.943
								c0.506,2.874,0.047,5.825-0.531,8.685c-3.329,16.465-10.695,32.098-21.271,45.148c-3.853,4.755-9.331,9.58-15.309,8.268
								c-5.586-1.226-8.752-7.605-8.428-13.316c0.324-5.71,3.217-10.906,5.885-15.965
								C342.249,404.784,348.411,391.639,356.773,381.273"/>
						</g>
						<g>
							<g>
								<path style="fill:#263238;" d="M356.773,381.273c0,0-0.081,0.133-0.261,0.377c-0.195,0.26-0.462,0.616-0.805,1.073
									c-0.709,0.941-1.735,2.346-2.988,4.201c-2.522,3.699-5.852,9.265-9.563,16.361c-1.841,3.56-3.856,7.457-6.019,11.639
									c-2.117,4.197-4.787,8.536-6.174,13.622c-0.664,2.531-0.974,5.259-0.41,7.938c0.54,2.658,1.794,5.303,3.886,7.2
									c1.041,0.941,2.297,1.663,3.672,2.032c1.375,0.37,2.846,0.407,4.267,0.116c2.865-0.586,5.425-2.33,7.638-4.366
									c2.242-2.045,4.07-4.454,5.874-6.812c1.795-2.367,3.422-4.801,4.975-7.221c3.027-4.888,5.618-9.813,7.669-14.685
									c2.066-4.864,3.689-9.631,4.898-14.173c0.595-2.274,1.105-4.487,1.539-6.625c0.418-2.136,0.706-4.216,0.606-6.197
									c-0.117-3.934-2.173-7.5-5.111-8.691c-1.437-0.614-2.944-0.726-4.27-0.508c-1.333,0.203-2.505,0.635-3.52,1.088
									c-2.022,0.943-3.46,1.937-4.428,2.602c-0.466,0.33-0.829,0.587-1.094,0.775
									C356.908,381.194,356.773,381.273,356.773,381.273s0.113-0.108,0.348-0.297c0.234-0.192,0.591-0.466,1.065-0.818
									c0.952-0.695,2.374-1.72,4.405-2.701c1.02-0.472,2.204-0.926,3.568-1.149c1.355-0.238,2.922-0.141,4.422,0.486
									c1.515,0.602,2.857,1.844,3.788,3.42c0.942,1.576,1.481,3.498,1.576,5.521c0.114,2.027-0.169,4.141-0.579,6.292
									c-0.425,2.15-0.928,4.373-1.517,6.66c-1.197,4.566-2.811,9.359-4.874,14.251c-2.048,4.899-4.642,9.852-7.678,14.768
									c-1.557,2.434-3.19,4.882-4.993,7.261c-1.807,2.366-3.65,4.798-5.935,6.883c-2.254,2.071-4.878,3.874-7.889,4.491
									c-1.493,0.305-3.05,0.266-4.503-0.127c-1.458-0.392-2.787-1.16-3.879-2.15c-2.194-1.997-3.478-4.736-4.032-7.482
									c-0.578-2.774-0.249-5.589,0.434-8.159c1.429-5.179,4.128-9.518,6.254-13.698c2.183-4.172,4.218-8.06,6.076-11.612
									c3.757-7.081,7.144-12.632,9.722-16.303c1.281-1.841,2.335-3.228,3.072-4.15c0.361-0.444,0.641-0.789,0.847-1.042
									C356.664,381.384,356.773,381.273,356.773,381.273z"/>
							</g>
						</g>
					</g>
					<g style="opacity:0.3;">
						<g>
							<path d="M357.266,395.529l-0.028,0.047c1.003-2.82,3.131-3.631,5.418-4.458c2.287-0.827,5.066-0.736,6.903,0.858
								c2.125,1.844,2.387,5.079,1.824,7.835c-0.195,0.955-0.491,1.933-1.156,2.646c-0.665,0.713-1.79,1.077-2.648,0.613
								c-1.009-0.547-1.312-1.985-2.365-2.441c-1.209-0.524-2.468,0.55-3.745,0.874c-1.724,0.438-3.628-0.678-4.308-2.322
								C356.681,398.02,356.774,396.692,357.266,395.529z"/>
						</g>
					</g>
					<g style="opacity:0.3;">
						<g>
							<path d="M361.634,381.447c1.007,0.296,1.561,1.465,1.571,2.717c0.01,1.252-0.387,2.469-0.811,3.647
								c-0.352,0.977-0.946,2.113-1.984,2.149c-0.593,0.021-1.145-0.366-1.459-0.869c-0.314-0.503-0.423-1.107-0.468-1.698
								c-0.103-1.36,0.108-2.744,0.613-4.011c0.257-0.644,0.61-1.284,1.187-1.669c0.576-0.385,1.421-0.439,1.926,0.036"/>
						</g>
					</g>
					<g style="opacity:0.3;">
						<g>
							<path d="M373.611,383.906c1.007,0.296,1.561,1.465,1.571,2.717c0.01,1.252-0.387,2.469-0.811,3.647
								c-0.352,0.977-0.946,2.113-1.984,2.149c-0.593,0.021-1.145-0.366-1.459-0.87c-0.314-0.503-0.423-1.107-0.468-1.698
								c-0.103-1.36,0.108-2.744,0.613-4.011c0.257-0.644,0.61-1.284,1.186-1.669c0.576-0.386,1.421-0.439,1.926,0.036"/>
						</g>
					</g>
					<g style="opacity:0.3;">
						<g>
							<path d="M368.547,379.331c1.007,0.296,1.561,1.465,1.571,2.717c0.01,1.252-0.387,2.469-0.811,3.647
								c-0.352,0.977-0.946,2.113-1.984,2.149c-0.593,0.021-1.145-0.366-1.459-0.869c-0.314-0.503-0.423-1.107-0.468-1.698
								c-0.103-1.36,0.108-2.744,0.613-4.011c0.257-0.644,0.61-1.284,1.187-1.669c0.576-0.385,1.421-0.439,1.926,0.036"/>
						</g>
					</g>
				</g>
				<g style="opacity:0.3;">
					<g>
						<path d="M364.672,420.205c-0.897,6.03-2.359,12.014-4.893,17.559s-6.176,10.651-10.973,14.414
							c-2.201,1.727-4.773,3.204-7.569,3.275c-3.951,0.101-7.548-2.731-9.326-6.26s-2.029-7.631-1.819-11.577
							c1.913,3.194,4.061,6.595,7.521,7.969c2.989,1.187,6.47,0.579,9.289-0.969c2.82-1.548,5.076-3.942,7.113-6.431
							c4.275-5.225,7.808-11.058,10.458-17.267"/>
					</g>
				</g>
			</g>
			<g style="opacity:0.7;">
				<g>
					<path style="fill:#FFFFFF;" d="M216.015,326.137"/>
				</g>
			</g>
			<g>
				<g>
					<g>
						<g>
							<g>
								<path style="fill:#E8505B;" d="M140.703,382.068c-4.927-1.512-11.03-2.754-14.618,0.946
									c-2.031,2.095-2.568,5.306-2.035,8.175c0.534,2.869,1.998,5.472,3.542,7.948c8.889,14.254,21.266,26.314,35.745,34.83
									c5.276,3.103,12.097,5.702,17.236,2.378c4.802-3.106,5.531-10.19,3.227-15.425c-2.305-5.234-6.835-9.087-11.107-12.89
									C162.546,398.997,152.168,388.846,140.703,382.068"/>
							</g>
							<g>
								<g>
									<path style="fill:#263238;" d="M140.703,382.068c0,0,0.141,0.065,0.404,0.216c0.281,0.165,0.665,0.39,1.158,0.679
										c1.013,0.605,2.487,1.535,4.331,2.81c3.701,2.535,8.818,6.547,14.819,11.862c2.985,2.675,6.253,5.603,9.76,8.746
										c3.457,3.169,7.505,6.288,10.659,10.637c1.54,2.168,2.834,4.689,3.266,7.489c0.443,2.765,0.201,5.78-1.154,8.42
										c-0.676,1.309-1.651,2.495-2.879,3.373c-1.224,0.878-2.668,1.46-4.173,1.697c-3.036,0.477-6.126-0.292-8.963-1.441
										c-2.87-1.152-5.449-2.785-7.971-4.367c-2.522-1.597-4.91-3.317-7.221-5.051c-4.566-3.54-8.732-7.269-12.367-11.14
										c-3.647-3.858-6.838-7.781-9.56-11.638c-1.353-1.935-2.602-3.841-3.754-5.706c-1.138-1.871-2.144-3.751-2.747-5.69
										c-0.62-1.928-0.789-3.916-0.459-5.723c0.32-1.803,1.141-3.435,2.349-4.53c1.185-1.113,2.619-1.753,3.971-2.005
										c1.356-0.269,2.623-0.259,3.744-0.174c2.246,0.207,3.937,0.669,5.072,0.986c0.567,0.164,0.997,0.296,1.284,0.393
										C140.56,382.007,140.703,382.068,140.703,382.068s-0.154-0.027-0.446-0.105c-0.314-0.083-0.744-0.197-1.296-0.343
										c-1.141-0.284-2.835-0.711-5.06-0.885c-1.109-0.068-2.358-0.062-3.678,0.215c-1.318,0.26-2.691,0.893-3.821,1.972
										c-2.334,2.146-3.01,6.206-1.74,9.931c0.6,1.891,1.599,3.738,2.739,5.591c1.156,1.85,2.409,3.744,3.763,5.665
										c2.725,3.83,5.915,7.726,9.555,11.558c3.628,3.844,7.781,7.548,12.329,11.066c2.302,1.722,4.679,3.432,7.19,5.02
										c2.515,1.576,5.072,3.191,7.888,4.321c2.786,1.131,5.795,1.868,8.684,1.412c1.433-0.225,2.798-0.776,3.955-1.604
										c1.158-0.827,2.081-1.944,2.727-3.19c1.294-2.51,1.542-5.427,1.116-8.105c-0.411-2.707-1.657-5.153-3.166-7.291
										c-3.081-4.277-7.102-7.406-10.556-10.594c-3.491-3.159-6.744-6.102-9.716-8.791c-5.964-5.345-11.033-9.39-14.691-11.971
										c-1.823-1.298-3.276-2.254-4.27-2.887c-0.481-0.308-0.856-0.548-1.13-0.723
										C140.826,382.164,140.703,382.068,140.703,382.068z"/>
								</g>
							</g>
						</g>
						<g style="opacity:0.3;">
							<g>
								<path d="M145.238,395.593l0.043,0.034c-1.928-2.29-4.205-2.303-6.637-2.276c-2.432,0.027-5.003,1.086-6.164,3.223
									c-1.344,2.471-0.456,5.593,1.038,7.977c0.518,0.826,1.137,1.638,2.01,2.073c0.873,0.434,2.054,0.382,2.694-0.354
									c0.753-0.866,0.533-2.319,1.359-3.115c0.949-0.914,2.504-0.35,3.814-0.494c1.768-0.194,3.16-1.907,3.221-3.684
									C146.658,397.721,146.106,396.51,145.238,395.593z"/>
							</g>
						</g>
						<g style="opacity:0.3;">
							<g>
								<path d="M136.212,383.935c-0.84,0.631-0.949,1.919-0.519,3.095c0.43,1.176,1.227,2.177,2.038,3.131
									c0.672,0.792,1.626,1.647,2.611,1.318c0.562-0.188,0.944-0.744,1.062-1.326c0.117-0.581,0.008-1.185-0.157-1.755
									c-0.38-1.31-1.063-2.532-1.98-3.542c-0.466-0.513-1.021-0.989-1.696-1.148c-0.675-0.159-1.485,0.087-1.791,0.709"/>
							</g>
						</g>
						<g style="opacity:0.3;">
							<g>
								<path d="M125.856,390.435c-0.84,0.631-0.949,1.919-0.519,3.095c0.429,1.176,1.227,2.177,2.038,3.131
									c0.672,0.792,1.626,1.647,2.611,1.318c0.562-0.188,0.944-0.744,1.062-1.326c0.117-0.581,0.008-1.185-0.157-1.754
									c-0.38-1.31-1.063-2.532-1.98-3.542c-0.466-0.513-1.021-0.989-1.696-1.148c-0.675-0.159-1.484,0.087-1.791,0.709"/>
							</g>
						</g>
						<g style="opacity:0.3;">
							<g>
								<path d="M128.996,384.376c-0.84,0.631-0.948,1.919-0.519,3.095c0.429,1.176,1.227,2.177,2.038,3.131
									c0.672,0.792,1.626,1.647,2.611,1.317c0.562-0.188,0.944-0.744,1.062-1.326c0.117-0.581,0.008-1.185-0.157-1.754
									c-0.38-1.31-1.063-2.532-1.98-3.542c-0.466-0.513-1.021-0.989-1.696-1.148c-0.675-0.159-1.485,0.087-1.791,0.709"/>
							</g>
						</g>
					</g>
					<g style="opacity:0.3;">
						<g>
							<path d="M146.95,421.3c2.953,5.333,6.42,10.425,10.736,14.731c4.316,4.305,9.518,7.811,15.329,9.654
								c2.667,0.846,5.593,1.328,8.237,0.414c3.735-1.29,6.112-5.203,6.541-9.132c0.429-3.928-0.775-7.858-2.354-11.481
								c-0.672,3.662-1.492,7.6-4.251,10.1c-2.384,2.16-5.856,2.809-9.04,2.348c-3.183-0.462-6.135-1.913-8.916-3.53
								c-5.835-3.396-11.188-7.62-15.847-12.507"/>
						</g>
					</g>
				</g>
				<g style="opacity:0.3;">
					<g>
						<path style="fill:#FFFFFF;" d="M143.282,415.867c-0.289,0.407-0.578,0.814-0.867,1.22c3.327-5.201,9.597-8.368,15.758-7.96
							c6.16,0.408,11.958,4.376,14.569,9.97c2.611,5.595,1.929,12.587-1.714,17.571c-11.204-4.573-21.451-11.477-29.896-20.145"/>
					</g>
				</g>
			</g>
			<g>
				<g>
					<path style="fill:#263238;" d="M425.603,405.999c0.018,0.003-0.002,0.235-0.056,0.674c-0.067,0.492-0.153,1.129-0.26,1.919
						c-0.231,1.666-0.62,4.07-1.169,7.028c-1.12,5.903-2.876,14.074-6.164,22.676c-1.666,4.288-3.558,8.255-5.582,11.695
						c-0.512,0.855-1.059,1.661-1.565,2.459c-0.256,0.397-0.509,0.788-0.758,1.173c-0.275,0.367-0.545,0.728-0.811,1.083
						c-0.532,0.708-1.047,1.393-1.542,2.052c-0.53,0.63-1.062,1.216-1.557,1.784c-0.509,0.556-0.95,1.127-1.447,1.591
						c-0.489,0.468-0.951,0.911-1.386,1.327c-0.431,0.41-0.834,0.794-1.208,1.151c-0.398,0.316-0.764,0.607-1.099,0.872
						c-0.63,0.491-1.138,0.886-1.53,1.191c-0.353,0.267-0.543,0.401-0.554,0.386c-0.011-0.014,0.159-0.176,0.49-0.469
						c0.375-0.324,0.861-0.743,1.464-1.263c0.324-0.275,0.679-0.576,1.064-0.902c0.363-0.364,0.754-0.757,1.172-1.176
						c0.423-0.422,0.873-0.872,1.349-1.347c0.485-0.469,0.913-1.045,1.41-1.604c0.485-0.572,0.992-1.17,1.52-1.792
						c0.484-0.66,0.986-1.346,1.506-2.055c0.26-0.355,0.525-0.716,0.794-1.082c0.243-0.385,0.491-0.775,0.741-1.171
						c0.496-0.796,1.033-1.599,1.535-2.452c1.986-3.428,3.853-7.375,5.509-11.639c3.27-8.554,5.078-16.684,6.289-22.559
						c0.594-2.944,1.038-5.335,1.33-6.99c0.147-0.784,0.265-1.415,0.356-1.903C425.531,406.223,425.586,405.996,425.603,405.999z"/>
				</g>
			</g>
			<g>
				<g>
					<g>
						<path style="fill:#263238;" d="M195.536,345.343c-0.012-0.013,0.147-0.179,0.462-0.481c0.358-0.335,0.821-0.769,1.394-1.306
							c0.606-0.567,1.357-1.25,2.256-2.012c0.896-0.766,1.899-1.659,3.063-2.58c2.289-1.889,5.103-4.031,8.307-6.299
							c3.221-2.243,6.842-4.596,10.757-6.878c3.927-2.263,7.771-4.234,11.319-5.914c3.561-1.652,6.819-3.028,9.597-4.075
							c1.378-0.552,2.651-0.978,3.761-1.374c1.108-0.401,2.074-0.713,2.867-0.957c0.751-0.23,1.357-0.416,1.826-0.56
							c0.419-0.122,0.642-0.178,0.647-0.161c0.005,0.017-0.206,0.107-0.615,0.261c-0.461,0.167-1.056,0.384-1.794,0.652
							c-0.782,0.273-1.737,0.612-2.834,1.039c-1.098,0.422-2.36,0.871-3.726,1.443c-2.754,1.088-5.987,2.495-9.526,4.166
							c-3.526,1.698-7.349,3.676-11.263,5.931c-3.901,2.273-7.518,4.607-10.743,6.821c-3.209,2.239-6.038,4.344-8.351,6.192
							c-1.176,0.901-2.193,1.772-3.105,2.515c-0.915,0.739-1.685,1.399-2.31,1.942c-0.6,0.507-1.084,0.916-1.458,1.232
							C195.732,345.217,195.549,345.357,195.536,345.343z"/>
					</g>
				</g>
				<g>
					<g>
						<path style="fill:#263238;" d="M167.389,328.642c-0.005-0.008,0.057-0.056,0.182-0.143c0.153-0.102,0.338-0.225,0.563-0.376
							c0.539-0.345,1.27-0.813,2.193-1.402c0.951-0.612,2.125-1.343,3.524-2.132c1.394-0.796,2.959-1.746,4.758-2.669
							c0.894-0.474,1.83-0.97,2.804-1.486c0.977-0.513,2.02-0.994,3.087-1.52c2.124-1.072,4.458-2.076,6.902-3.162
							c4.926-2.081,10.432-4.159,16.328-5.99c5.909-1.796,11.634-3.168,16.879-4.211c2.632-0.474,5.128-0.953,7.487-1.258
							c1.178-0.163,2.311-0.351,3.408-0.475c1.096-0.12,2.149-0.235,3.155-0.344c2.007-0.247,3.835-0.339,5.436-0.463
							c1.6-0.133,2.982-0.187,4.113-0.215c1.094-0.03,1.962-0.053,2.601-0.07c0.271-0.002,0.493-0.004,0.677-0.005
							c0.152,0.002,0.231,0.007,0.231,0.016c0,0.009-0.077,0.022-0.229,0.037c-0.183,0.015-0.405,0.034-0.675,0.057
							c-0.638,0.041-1.503,0.097-2.595,0.168c-1.127,0.058-2.505,0.142-4.101,0.302c-1.596,0.151-3.418,0.269-5.418,0.538
							c-1.003,0.12-2.052,0.246-3.144,0.377c-1.093,0.134-2.222,0.332-3.395,0.504c-2.35,0.323-4.837,0.817-7.459,1.302
							c-5.225,1.067-10.928,2.448-16.818,4.238c-5.877,1.825-11.371,3.884-16.293,5.934c-2.442,1.071-4.776,2.058-6.903,3.11
							c-1.067,0.516-2.112,0.987-3.092,1.489c-0.977,0.505-1.916,0.99-2.813,1.453c-1.806,0.9-3.38,1.825-4.786,2.596
							c-1.41,0.764-2.598,1.467-3.564,2.052c-0.943,0.554-1.691,0.994-2.242,1.318c-0.236,0.133-0.43,0.242-0.59,0.332
							C167.466,328.616,167.394,328.649,167.389,328.642z"/>
					</g>
				</g>
				<g>
					<g>
						<path style="fill:#263238;" d="M286.559,295.682c0.061,0.147-2.52,1.237-5.367,3.148c-2.86,1.894-4.859,3.857-4.971,3.744
							c-0.099-0.082,1.766-2.245,4.682-4.177C283.807,296.449,286.522,295.559,286.559,295.682z"/>
					</g>
				</g>
				<g>
					<g>
						<path style="fill:#263238;" d="M303.48,301.113c-0.038,0.092-1.476-0.574-3.932-1.197c-2.441-0.646-5.939-1.182-9.789-0.893
							c-3.837,0.288-7.291,1.207-9.438,2.505c-2.187,1.291-2.864,2.83-2.945,2.758c-0.022-0.01,0.11-0.391,0.518-0.99
							c0.414-0.589,1.137-1.381,2.232-2.081c2.183-1.428,5.692-2.418,9.595-2.712c3.921-0.294,7.478,0.313,9.924,1.058
							c1.231,0.359,2.194,0.748,2.85,1.034C303.145,300.898,303.495,301.08,303.48,301.113z"/>
					</g>
				</g>
				<g>
					<path style="fill:#F5F5F5;" d="M270.623,309.451c0,0,0.777,1.865,1.165,2.798c0.308,0.741,0.62,1.494,0.702,2.292
						c0.081,0.798-0.1,1.661-0.662,2.233c-0.825,0.839-2.266,0.802-3.261,0.172c-0.995-0.63-1.612-1.712-2.037-2.81
						c-0.425-1.098-0.699-2.256-1.215-3.314c0,0,2.123-1.72,1.64-4.753C266.955,306.07,268.029,309.267,270.623,309.451z"/>
				</g>
				<g>
					<g>
						<g>
							<path style="fill:#263238;" d="M254.289,299.246c0,0,2.518-5.712,8.892-7.393c6.374-1.681,13.022,5.015,13.022,5.015
								s-7.718-2.265-7.601,1.562c0.117,3.827,2.376,3.743-0.183,6.258c-2.559,2.514-6.949-0.131-8.035-3.095l-2.064-2.902
								L254.289,299.246z"/>
						</g>
						<g>
							<g>
								<path style="fill:#263238;" d="M280.709,303.025c0.018-0.001,0.036,0.122,0.055,0.359c0.03,0.238,0.016,0.589-0.027,1.042
									c-0.114,0.892-0.484,2.214-1.495,3.515c-0.989,1.27-2.668,2.586-4.888,2.802c-2.189,0.241-4.671-0.725-6.331-2.634
									c-0.781-0.9-1.321-1.974-1.572-3.074l0.492-0.138c0.675,2.048,0.181,4.181-0.832,5.638
									c-1.018,1.501-2.563,2.247-3.836,2.489c-1.296,0.253-2.362,0.063-3.038-0.152c-0.341-0.108-0.595-0.22-0.757-0.312
									c-0.164-0.089-0.245-0.142-0.238-0.157c0.018-0.038,0.367,0.133,1.043,0.295c0.67,0.156,1.699,0.284,2.92,0
									c1.204-0.275,2.618-1.007,3.535-2.413c0.919-1.369,1.346-3.361,0.718-5.223l0.492-0.138
									c0.238,1.011,0.738,2.004,1.466,2.843c1.549,1.782,3.868,2.698,5.892,2.497c2.053-0.17,3.666-1.37,4.646-2.555
									c1-1.212,1.41-2.461,1.582-3.317C280.693,303.526,280.655,303.026,280.709,303.025z"/>
							</g>
						</g>
					</g>
					<g>
						<g>
							<path style="fill:#FFFFFF;" d="M268.349,292.79c-0.005,0.077-0.787,0.067-2.039,0.086c-1.247,0.027-2.986,0.089-4.791,0.624
								c-1.801,0.536-3.234,1.538-4.055,2.444c-0.837,0.904-1.13,1.641-1.213,1.602c-0.05-0.011,0.124-0.821,0.934-1.842
								c0.792-1.021,2.285-2.139,4.184-2.703c1.894-0.56,3.688-0.56,4.947-0.493C267.583,292.583,268.354,292.723,268.349,292.79z"
								/>
						</g>
					</g>
				</g>
				<g>
					<g>
						<path style="fill:#263238;" d="M270.269,317.637c-0.123,0.057-1.263-2.209-2.16-5.196c-0.906-2.986-1.21-5.504-1.076-5.524
							c0.149-0.027,0.678,2.423,1.574,5.374C269.493,315.242,270.408,317.576,270.269,317.637z"/>
					</g>
				</g>
				<g>
					<g>
						<path style="fill:#263238;" d="M199.072,328.854c-0.011-0.014,0.127-0.136,0.4-0.355c0.323-0.25,0.723-0.559,1.21-0.936
							c1.051-0.813,2.625-1.921,4.613-3.223c1.984-1.31,4.419-2.76,7.183-4.258c2.778-1.473,5.894-2.979,9.247-4.37
							c3.362-1.372,6.636-2.496,9.646-3.405c3.019-0.882,5.769-1.565,8.1-2.032c2.329-0.475,4.226-0.796,5.545-0.958
							c0.611-0.075,1.113-0.137,1.518-0.187c0.348-0.037,0.531-0.048,0.534-0.03c0.003,0.018-0.176,0.063-0.519,0.134
							c-0.401,0.076-0.897,0.169-1.501,0.283c-1.307,0.223-3.189,0.598-5.499,1.118c-2.313,0.51-5.042,1.228-8.039,2.131
							c-2.989,0.93-6.242,2.062-9.587,3.427c-3.336,1.384-6.442,2.87-9.22,4.312c-2.764,1.468-5.208,2.879-7.21,4.144
							c-2.007,1.257-3.608,2.316-4.693,3.077c-0.509,0.344-0.928,0.627-1.266,0.856
							C199.242,328.775,199.083,328.869,199.072,328.854z"/>
					</g>
				</g>
			</g>
			<g>
				<g>
					
						<ellipse transform="matrix(0.232 -0.9727 0.9727 0.232 -97.4302 435.7903)" style="fill:#F5F5F5;" cx="227.259" cy="279.595" rx="22.547" ry="22.547"/>
				</g>
				<g>
					<path style="fill:#263238;" d="M249.806,279.595c0,10.886-7.344,19.711-13.57,19.711c-6.226,0-11.273-8.825-11.273-19.711
						c0-10.886,5.047-19.711,11.273-19.711C242.461,259.884,249.806,268.709,249.806,279.595z"/>
				</g>
				<g>
					<circle style="fill:#FFFFFF;" cx="241.242" cy="268.45" r="3.859"/>
				</g>
				<g>
					<g>
						<path style="fill:#FFFFFF;" d="M231.261,293.925c-0.032,0.017-0.231-0.32-0.565-0.947c-0.344-0.621-0.764-1.561-1.208-2.752
							c-0.453-1.188-0.868-2.649-1.208-4.298c-0.312-1.653-0.531-3.497-0.561-5.441c-0.01-1.945,0.171-3.793,0.449-5.453
							c0.305-1.655,0.691-3.125,1.119-4.322c0.419-1.199,0.82-2.148,1.151-2.776c0.321-0.633,0.513-0.974,0.545-0.958
							c0.09,0.042-0.605,1.448-1.346,3.848c-0.378,1.197-0.721,2.654-0.996,4.288c-0.247,1.638-0.411,3.456-0.401,5.368
							c0.03,1.912,0.231,3.725,0.512,5.358c0.309,1.627,0.681,3.077,1.084,4.266C230.625,292.489,231.35,293.881,231.261,293.925z"
							/>
					</g>
				</g>
				<g>
					<g>
						<path style="fill:#263238;" d="M221.528,250.88c-0.059,0.729-0.897,1.293-2.035,1.813c-1.143,0.537-2.591,1.028-4.064,1.664
							c-1.484,0.617-2.761,1.255-3.857,1.75c-1.091,0.479-2.03,0.803-2.652,0.415c-0.595-0.365-0.733-1.478-0.038-2.93
							c0.67-1.438,2.293-3.115,4.527-4.035c2.224-0.95,4.439-0.935,5.905-0.542C220.802,249.427,221.587,250.18,221.528,250.88z"/>
					</g>
				</g>
			</g>
			<g>
				<g>
					<g>
						<g>
							<path style="fill:#E8505B;" d="M113.914,443.002l5.064-7.942c24.142,26.518,103.9,58.057,175.315-13.234
								c30.669-30.615,28.186-82.355,28.186-82.355l-6.099-19.158h6.099c0,0,17.684,32.611-0.826,75.309
								c0,0-19.036,50.606-77.173,68.978C152.718,493.599,113.914,443.002,113.914,443.002z"/>
						</g>
						<g style="opacity:0.7;">
							<path style="fill:#FFFFFF;" d="M113.914,443.002l5.064-7.942c24.142,26.518,103.9,58.057,175.315-13.234
								c30.669-30.615,28.186-82.355,28.186-82.355l-6.099-19.158h6.099c0,0,17.684,32.611-0.826,75.309
								c0,0-19.036,50.606-77.173,68.978C152.718,493.599,113.914,443.002,113.914,443.002z"/>
						</g>
					</g>
					<g>
						<g>
							
								<ellipse transform="matrix(0.7071 -0.7071 0.7071 0.7071 -274.4512 181.5217)" style="fill:#E8505B;" cx="81.89" cy="422.053" rx="43.35" ry="43.35"/>
						</g>
						<g style="opacity:0.7;">
							
								<ellipse transform="matrix(0.7071 -0.7071 0.7071 0.7071 -274.4512 181.5217)" style="fill:#FFFFFF;" cx="81.89" cy="422.053" rx="43.35" ry="43.35"/>
						</g>
						<g>
							<g>
								<path style="fill:#E8505B;" d="M92.281,379.907c0.018,0.004-0.033,0.287-0.146,0.825c-0.129,0.582-0.302,1.363-0.519,2.345
									c-0.118,0.513-0.247,1.078-0.388,1.693c-0.157,0.615-0.361,1.274-0.562,1.987c-0.424,1.42-0.84,3.06-1.493,4.81
									c-0.309,0.882-0.632,1.805-0.967,2.766c-0.342,0.96-0.775,1.929-1.181,2.949c-0.787,2.052-1.823,4.158-2.874,6.393
									c-2.223,4.409-4.946,9.119-8.223,13.786c-3.321,4.639-6.865,8.769-10.29,12.326c-1.761,1.731-3.406,3.406-5.082,4.828
									c-0.828,0.721-1.599,1.45-2.392,2.091c-0.796,0.635-1.56,1.245-2.29,1.828c-1.435,1.195-2.844,2.131-4.044,3.001
									c-0.606,0.426-1.161,0.837-1.689,1.188c-0.533,0.336-1.024,0.645-1.469,0.926c-0.854,0.53-1.534,0.952-2.041,1.266
									c-0.469,0.284-0.72,0.426-0.73,0.411c-0.009-0.015,0.223-0.187,0.674-0.5c0.493-0.334,1.154-0.783,1.985-1.346
									c0.437-0.292,0.917-0.612,1.44-0.962c0.519-0.363,1.064-0.784,1.66-1.22c1.18-0.89,2.569-1.843,3.984-3.052
									c0.721-0.589,1.475-1.206,2.26-1.847c0.783-0.646,1.544-1.38,2.362-2.105c1.656-1.43,3.282-3.109,5.027-4.841
									c3.39-3.559,6.906-7.677,10.21-12.292c3.261-4.644,5.983-9.323,8.219-13.699c1.057-2.219,2.104-4.309,2.905-6.345
									c0.413-1.012,0.854-1.973,1.204-2.925c0.346-0.953,0.678-1.869,0.995-2.744c0.673-1.736,1.113-3.362,1.562-4.77
									c0.214-0.707,0.432-1.361,0.602-1.97c0.156-0.609,0.3-1.169,0.431-1.678c0.257-0.971,0.461-1.743,0.613-2.319
									C92.178,380.179,92.263,379.903,92.281,379.907z"/>
							</g>
						</g>
						<g>
							<g>
								<path style="fill:#E8505B;" d="M102.533,384.332c0.018,0.004-0.041,0.303-0.169,0.869c-0.144,0.609-0.339,1.433-0.584,2.472
									c-0.132,0.541-0.277,1.136-0.435,1.784c-0.167,0.65-0.399,1.342-0.622,2.094c-0.477,1.493-0.928,3.225-1.654,5.062
									c-0.342,0.927-0.701,1.897-1.073,2.907c-0.366,1.014-0.855,2.025-1.302,3.096c-0.874,2.154-2.009,4.361-3.177,6.697
									c-2.453,4.609-5.467,9.513-9.091,14.333c-3.664,4.793-7.575,9.018-11.336,12.639c-1.921,1.769-3.736,3.462-5.558,4.904
									c-0.904,0.728-1.739,1.479-2.61,2.114c-0.863,0.643-1.693,1.26-2.485,1.85c-1.56,1.212-3.087,2.144-4.38,3.028
									c-1.291,0.89-2.451,1.58-3.406,2.133c-0.922,0.537-1.653,0.964-2.194,1.279c-0.504,0.287-0.773,0.431-0.782,0.415
									c-0.009-0.016,0.242-0.189,0.729-0.506c0.528-0.336,1.241-0.789,2.14-1.361c0.937-0.578,2.079-1.292,3.351-2.203
									c1.275-0.905,2.783-1.855,4.323-3.082c0.783-0.596,1.603-1.221,2.457-1.87c0.862-0.64,1.687-1.396,2.581-2.129
									c1.803-1.451,3.599-3.148,5.503-4.919c3.726-3.624,7.607-7.837,11.253-12.606c3.606-4.797,6.616-9.668,9.082-14.243
									c1.175-2.318,2.319-4.509,3.206-6.646c0.454-1.063,0.951-2.066,1.325-3.072c0.382-1.002,0.75-1.964,1.101-2.884
									c0.745-1.823,1.219-3.541,1.721-5.021c0.235-0.745,0.481-1.431,0.662-2.076c0.174-0.642,0.333-1.233,0.478-1.768
									c0.285-1.027,0.511-1.842,0.678-2.444C102.423,384.619,102.516,384.328,102.533,384.332z"/>
							</g>
						</g>
						<g>
							<g>
								<path style="fill:#E8505B;" d="M112.033,392.118c0.017,0.005-0.06,0.302-0.223,0.865c-0.182,0.604-0.428,1.422-0.738,2.452
									c-0.165,0.536-0.347,1.127-0.546,1.769c-0.214,0.642-0.48,1.328-0.748,2.071c-0.557,1.479-1.126,3.189-1.945,5.004
									c-0.392,0.916-0.801,1.875-1.228,2.872c-0.433,0.996-0.958,1.998-1.461,3.055c-0.981,2.127-2.221,4.301-3.486,6.609
									c-2.649,4.548-5.836,9.393-9.587,14.176c-3.794,4.752-7.778,8.968-11.596,12.592c-1.956,1.762-3.787,3.468-5.632,4.912
									c-0.913,0.733-1.767,1.474-2.637,2.124c-0.873,0.645-1.712,1.264-2.513,1.855c-1.578,1.214-3.112,2.161-4.423,3.043
									c-0.661,0.432-1.268,0.848-1.843,1.204c-0.58,0.341-1.113,0.654-1.597,0.938c-0.932,0.539-1.671,0.966-2.217,1.282
									c-0.509,0.288-0.781,0.432-0.79,0.416c-0.009-0.016,0.245-0.19,0.737-0.507c0.533-0.336,1.254-0.791,2.164-1.364
									c0.475-0.295,0.999-0.62,1.569-0.974c0.566-0.368,1.163-0.795,1.816-1.237c1.292-0.902,2.807-1.868,4.366-3.097
									c0.792-0.598,1.622-1.224,2.485-1.876c0.861-0.656,1.706-1.403,2.609-2.14c1.826-1.453,3.639-3.164,5.578-4.929
									c3.784-3.628,7.74-7.835,11.517-12.566c3.735-4.762,6.919-9.577,9.58-14.093c1.271-2.292,2.52-4.45,3.514-6.56
									c0.51-1.048,1.042-2.042,1.483-3.031c0.436-0.99,0.855-1.941,1.255-2.849c0.838-1.8,1.429-3.496,2.011-4.961
									c0.281-0.736,0.559-1.416,0.787-2.051c0.214-0.636,0.41-1.221,0.588-1.751c0.349-1.017,0.626-1.824,0.83-2.419
									C111.905,392.401,112.016,392.113,112.033,392.118z"/>
							</g>
						</g>
						<g>
							<g>
								<path style="fill:#E8505B;" d="M123.369,433.246c-0.017,0.032-0.359-0.11-0.965-0.395c-0.606-0.284-1.472-0.716-2.534-1.268
									c-2.123-1.103-5.017-2.701-8.146-4.583c-3.129-1.884-5.896-3.693-7.865-5.052c-0.985-0.679-1.772-1.242-2.307-1.644
									c-0.535-0.402-0.821-0.638-0.801-0.668c0.02-0.03,0.345,0.15,0.915,0.5c0.664,0.417,1.462,0.919,2.396,1.505
									c2.017,1.278,4.809,3.034,7.931,4.913c3.121,1.877,5.98,3.522,8.054,4.706c0.955,0.55,1.772,1.021,2.452,1.412
									C123.075,433.012,123.385,433.215,123.369,433.246z"/>
							</g>
						</g>
						<g>
							<g>
								<path style="fill:#E8505B;" d="M125.204,423.875c-0.046,0.061-1.138-0.695-2.906-1.905c-1.77-1.208-4.229-2.851-7.02-4.546
									c-2.794-1.693-5.382-3.127-7.257-4.166c-1.876-1.036-3.035-1.686-3.001-1.753c0.016-0.032,0.327,0.088,0.876,0.333
									c0.549,0.243,1.334,0.617,2.296,1.094c1.922,0.957,4.549,2.345,7.356,4.047c2.805,1.703,5.244,3.404,6.964,4.692
									c0.859,0.645,1.544,1.18,2.006,1.566C124.98,423.62,125.226,423.846,125.204,423.875z"/>
							</g>
						</g>
						<g>
							<g>
								<path style="fill:#E8505B;" d="M98.486,461.202c-0.144,0.004-0.483-7.946-0.757-17.754
									c-0.274-9.812-0.38-17.766-0.236-17.77c0.144-0.004,0.483,7.944,0.757,17.756C98.524,453.241,98.629,461.198,98.486,461.202
									z"/>
							</g>
						</g>
						<g>
							<g>
								<path style="fill:#E8505B;" d="M77.116,466.166c-0.144,0-0.26-4.446-0.26-9.93c0-5.486,0.117-9.931,0.26-9.931
									c0.144,0,0.26,4.445,0.26,9.931C77.377,461.72,77.26,466.166,77.116,466.166z"/>
							</g>
						</g>
						<g>
							<g>
								<path style="fill:#E8505B;" d="M87.62,465.019c-0.144-0.001-0.216-6.5-0.162-14.514c0.054-8.017,0.215-14.513,0.359-14.512
									s0.216,6.499,0.162,14.515C87.924,458.523,87.763,465.02,87.62,465.019z"/>
							</g>
						</g>
						<g>
							<g>
								<path style="fill:#E8505B;" d="M65.461,429.794c-0.08,0.119-5.738-3.536-12.636-8.163c-6.9-4.629-12.427-8.477-12.347-8.596
									c0.08-0.119,5.737,3.535,12.637,8.164C60.013,425.826,65.541,429.675,65.461,429.794z"/>
							</g>
						</g>
						<g>
							<g>
								<path style="fill:#E8505B;" d="M57.907,435.993c-0.015,0.033-0.318-0.07-0.853-0.284c-0.537-0.211-1.3-0.55-2.231-0.992
									c-1.863-0.884-4.378-2.234-7.042-3.91c-2.663-1.679-4.976-3.343-6.617-4.586c-1.641-1.245-2.616-2.065-2.575-2.121
									c0.045-0.06,1.098,0.656,2.79,1.822c1.693,1.165,4.031,2.774,6.679,4.444c2.649,1.667,5.119,3.058,6.931,4.023
									C56.8,435.354,57.939,435.922,57.907,435.993z"/>
							</g>
						</g>
						<g>
							<g>
								<path style="fill:#E8505B;" d="M83.934,403.596c0.012,0.034-0.531,0.241-1.526,0.588c-0.494,0.184-1.11,0.374-1.834,0.564
									c-0.72,0.204-1.541,0.434-2.466,0.618c-1.834,0.442-4.06,0.758-6.536,1.034c-2.482,0.22-5.224,0.332-8.1,0.253
									c-2.876-0.102-5.605-0.386-8.07-0.751c-2.457-0.415-4.66-0.855-6.471-1.379c-0.914-0.23-1.724-0.494-2.435-0.726
									c-0.715-0.221-1.322-0.434-1.81-0.634c-0.982-0.38-1.517-0.606-1.504-0.639c0.013-0.034,0.572,0.128,1.57,0.448
									c0.496,0.169,1.11,0.353,1.829,0.547c0.715,0.204,1.528,0.443,2.442,0.648c1.811,0.476,4.007,0.875,6.45,1.261
									c2.451,0.337,5.161,0.604,8.015,0.705c2.854,0.078,5.574-0.019,8.04-0.211c2.459-0.248,4.674-0.524,6.504-0.917
									c0.923-0.16,1.744-0.364,2.467-0.539c0.727-0.163,1.347-0.322,1.848-0.476C83.357,403.705,83.922,403.563,83.934,403.596z"
									/>
							</g>
						</g>
						<g>
							<g>
								<path style="fill:#E8505B;" d="M88.722,392.375c0.014,0.033-0.51,0.275-1.473,0.686c-0.478,0.215-1.076,0.443-1.778,0.688
									c-0.698,0.257-1.496,0.54-2.396,0.8c-1.782,0.578-3.956,1.089-6.381,1.586c-2.436,0.445-5.135,0.826-7.988,1.028
									c-2.855,0.179-5.583,0.166-8.057,0.026c-2.47-0.2-4.691-0.453-6.523-0.857c-0.923-0.165-1.744-0.376-2.461-0.575
									c-0.722-0.182-1.337-0.36-1.828-0.546c-0.99-0.343-1.529-0.548-1.517-0.582c0.012-0.034,0.574,0.107,1.576,0.388
									c0.497,0.154,1.116,0.303,1.84,0.457c0.719,0.171,1.539,0.355,2.459,0.496c1.825,0.355,4.033,0.568,6.484,0.74
									c2.456,0.112,5.161,0.111,7.994-0.067c2.831-0.2,5.511-0.564,7.935-0.98c2.413-0.468,4.581-0.938,6.365-1.467
									c0.901-0.235,1.702-0.493,2.405-0.722c0.707-0.218,1.313-0.417,1.8-0.602C88.158,392.521,88.708,392.342,88.722,392.375z"/>
							</g>
						</g>
						<g>
							<g>
								<path style="fill:#E8505B;" d="M91.685,382.501c0.012,0.034-0.46,0.228-1.324,0.551c-0.862,0.328-2.127,0.756-3.703,1.241
									c-3.151,0.972-7.582,2.104-12.571,2.831c-4.993,0.72-9.571,0.859-12.869,0.724c-1.649-0.064-2.982-0.164-3.897-0.279
									c-0.917-0.107-1.421-0.183-1.417-0.219c0.004-0.036,0.514-0.028,1.433,0.017c0.918,0.053,2.248,0.096,3.89,0.113
									c3.284,0.04,7.825-0.156,12.786-0.871c4.958-0.722,9.377-1.791,12.543-2.669c1.584-0.438,2.862-0.812,3.742-1.08
									C91.179,382.597,91.673,382.467,91.685,382.501z"/>
							</g>
						</g>
						<g>
							<g>
								<path style="fill:#E8505B;" d="M109.198,425.15c0.106,0.097-2.377,2.987-5.546,6.453c-3.17,3.468-5.825,6.199-5.931,6.102
									c-0.106-0.097,2.377-2.986,5.547-6.454C106.436,427.785,109.092,425.053,109.198,425.15z"/>
							</g>
						</g>
						<g>
							<g>
								<path style="fill:#E8505B;" d="M117.519,430.07c0.03,0.02-0.132,0.318-0.453,0.841c-0.316,0.526-0.814,1.261-1.463,2.145
									c-1.298,1.767-3.276,4.091-5.794,6.313c-2.523,2.217-5.079,3.886-6.996,4.949c-0.959,0.532-1.751,0.933-2.313,1.18
									c-0.559,0.252-0.875,0.375-0.891,0.343c-0.038-0.076,1.161-0.703,3.018-1.84c1.855-1.137,4.346-2.833,6.839-5.023
									c2.487-2.195,4.484-4.451,5.846-6.147C116.675,431.133,117.449,430.023,117.519,430.07z"/>
							</g>
						</g>
					</g>
					<g>
						<g>
							<path style="fill:#E8505B;" d="M120.047,434.514c0.125-0.004-0.108,2.725-1.737,5.609c-1.604,2.899-3.806,4.527-3.868,4.418
								c-0.115-0.118,1.867-1.869,3.413-4.672C119.433,437.084,119.887,434.478,120.047,434.514z"/>
						</g>
					</g>
					<g>
						<g>
							<path style="fill:#E8505B;" d="M128.438,443.697c0.127,0.019-0.405,2.217-2.124,4.337c-1.702,2.136-3.733,3.127-3.779,3.007
								c-0.089-0.134,1.745-1.284,3.373-3.333C127.558,445.677,128.287,443.639,128.438,443.697z"/>
						</g>
					</g>
					<g>
						<g>
							<path style="fill:#E8505B;" d="M141.947,451.962c0.127-0.016,0.096,2.384-1.298,4.907c-1.37,2.538-3.373,3.859-3.428,3.744
								c-0.109-0.121,1.666-1.567,2.971-3.994C141.527,454.211,141.786,451.936,141.947,451.962z"/>
						</g>
					</g>
					<g>
						<g>
							<path style="fill:#E8505B;" d="M157.528,459.461c0.121-0.047,0.544,2.251-0.485,4.836c-1.001,2.598-2.871,3.997-2.928,3.88
								c-0.119-0.111,1.501-1.608,2.443-4.07C157.538,461.661,157.365,459.461,157.528,459.461z"/>
						</g>
					</g>
					<g>
						<g>
							<path style="fill:#E8505B;" d="M171.868,472.25c-0.15-0.049,0.455-1.98,0.592-4.439c0.158-2.459-0.211-4.448-0.057-4.479
								c0.124-0.041,0.738,1.963,0.577,4.51C172.836,470.389,171.986,472.305,171.868,472.25z"/>
						</g>
					</g>
					<g>
						<g>
							<path style="fill:#E8505B;" d="M183.621,473.107c-0.146-0.061,0.581-1.796,0.769-4.063c0.213-2.266-0.198-4.101-0.044-4.136
								c0.12-0.05,0.782,1.807,0.562,4.182C184.708,471.465,183.731,473.177,183.621,473.107z"/>
						</g>
					</g>
					<g>
						<g>
							<path style="fill:#E8505B;" d="M200.06,472.95c-0.154-0.026,0.093-1.711-0.178-3.758c-0.25-2.05-0.912-3.62-0.769-3.683
								c0.112-0.069,1.02,1.468,1.286,3.618C200.679,471.273,200.186,472.989,200.06,472.95z"/>
						</g>
					</g>
					<g>
						<g>
							<path style="fill:#E8505B;" d="M211.417,472.033c-0.156-0.004-0.162-1.612-0.7-3.486c-0.519-1.88-1.352-3.256-1.221-3.34
								c0.101-0.085,1.174,1.223,1.722,3.199C211.781,470.377,211.548,472.053,211.417,472.033z"/>
						</g>
					</g>
					<g>
						<g>
							<path style="fill:#E8505B;" d="M224.745,469.071c-0.156-0.009-0.079-1.572-0.666-3.36c-0.563-1.796-1.535-3.022-1.413-3.121
								c0.085-0.102,1.303,1.046,1.908,2.961C225.197,467.462,224.873,469.104,224.745,469.071z"/>
						</g>
					</g>
					<g>
						<g>
							<path style="fill:#E8505B;" d="M241.158,465.73c-0.158,0.001-0.174-1.754-0.911-3.74c-0.713-1.994-1.831-3.348-1.709-3.449
								c0.083-0.101,1.441,1.165,2.199,3.271C241.511,463.91,241.287,465.754,241.158,465.73z"/>
						</g>
					</g>
					<g>
						<g>
							<path style="fill:#E8505B;" d="M255.028,460.325c-0.151,0.043-0.701-1.768-1.882-3.744c-1.165-1.987-2.487-3.34-2.377-3.451
								c0.081-0.104,1.614,1.124,2.825,3.186C254.819,458.369,255.158,460.304,255.028,460.325z"/>
						</g>
					</g>
					<g>
						<g>
							<path style="fill:#E8505B;" d="M270.473,452.22c-0.154,0.038-0.618-1.875-1.882-3.895c-1.242-2.034-2.745-3.305-2.642-3.426
								c0.065-0.112,1.784,1.026,3.085,3.152C270.353,450.165,270.602,452.212,270.473,452.22z"/>
						</g>
					</g>
					<g>
						<g>
							<path style="fill:#E8505B;" d="M285.582,441.393c-0.15,0.055-0.745-1.692-2.209-3.356c-1.442-1.684-3.087-2.519-3.012-2.66
								c0.032-0.127,1.875,0.537,3.406,2.318C285.314,439.461,285.711,441.38,285.582,441.393z"/>
						</g>
					</g>
					<g>
						<g>
							<path style="fill:#E8505B;" d="M298.52,430.341c-0.127,0.09-1.33-1.519-3.149-3.166c-1.808-1.66-3.521-2.709-3.443-2.844
								c0.056-0.12,1.932,0.751,3.794,2.459C297.593,428.487,298.634,430.274,298.52,430.341z"/>
						</g>
					</g>
					<g>
						<g>
							<path style="fill:#E8505B;" d="M310.111,415.927c-0.135,0.084-1.13-1.535-2.895-3.008c-1.748-1.493-3.511-2.203-3.451-2.35
								c0.026-0.127,1.952,0.39,3.787,1.952C309.4,414.068,310.232,415.88,310.111,415.927z"/>
						</g>
					</g>
					<g>
						<g>
							<path style="fill:#E8505B;" d="M320.437,398.779c-0.117,0.109-1.476-1.418-3.646-2.595c-2.156-1.202-4.173-1.532-4.144-1.69
								c-0.004-0.129,2.135-0.022,4.395,1.234C319.312,396.964,320.548,398.714,320.437,398.779z"/>
						</g>
					</g>
					<g>
						<g>
							<path style="fill:#E8505B;" d="M326.722,380.248c-0.09,0.135-1.805-1.14-4.305-1.711c-2.492-0.605-4.596-0.23-4.616-0.391
								c-0.053-0.117,2.111-0.748,4.736-0.116C325.167,378.636,326.822,380.167,326.722,380.248z"/>
						</g>
					</g>
					<g>
						<g>
							<path style="fill:#E8505B;" d="M329.513,360.35c-0.056,0.145-1.684-0.423-3.772-0.645c-2.086-0.239-3.799-0.04-3.822-0.194
								c-0.032-0.129,1.707-0.571,3.879-0.324C327.971,359.421,329.573,360.232,329.513,360.35z"/>
						</g>
					</g>
					<g>
						<g>
							<path style="fill:#E8505B;" d="M328.477,340.422c-0.024,0.149-1.288,0.042-2.833,0.116c-1.547,0.064-2.795,0.284-2.833,0.138
								c-0.04-0.131,1.198-0.59,2.809-0.659C327.23,339.942,328.504,340.288,328.477,340.422z"/>
						</g>
					</g>
					<g>
						<g>
							<path style="fill:#E8505B;" d="M324.395,326.727c-0.064,0.141-1.327-0.461-2.96-0.266c-1.637,0.158-2.743,1.016-2.835,0.891
								c-0.042-0.048,0.176-0.338,0.657-0.662c0.477-0.324,1.235-0.65,2.122-0.747c0.887-0.094,1.697,0.062,2.232,0.277
								C324.151,326.434,324.426,326.671,324.395,326.727z"/>
						</g>
					</g>
				</g>
				<g style="opacity:0.3;">
					<g>
						<path d="M256.578,394.018c4.856,9.214,16.164,13.942,26.503,12.684c10.34-1.257,19.547-7.693,25.97-15.893
							c4.744-6.058,8.272-13.908,6.306-21.347c-5.072,10.528-14.23,19.022-25.109,23.289c-10.879,4.267-23.37,4.264-34.247-0.008"/>
					</g>
				</g>
				<g>
					<g>
						<g>
							<path style="fill:#E8505B;" d="M317.097,314.748c-2.294-3.537-3.163-7.971-2.375-12.112s3.224-7.946,6.657-10.394
								c2.759-1.968,6.089-3.069,8.7-5.229c3.263-2.7,5.102-6.895,5.401-11.119c0.3-4.225-0.839-8.466-2.735-12.253l2.782-1.373
								c0,0,0.086,0.104,0.238,0.301c7.915,10.297,4.319,25.259-7.332,30.997c-2.271,1.118-4.423,2.361-5.837,3.594
								c-3.467,3.024-2.049,6.406-2.049,6.406"/>
						</g>
						<g style="opacity:0.7;">
							<g>
								<path style="fill:#FFFFFF;" d="M317.097,314.748c-2.294-3.537-3.163-7.971-2.375-12.112s3.224-7.946,6.657-10.394
									c2.759-1.968,6.089-3.069,8.7-5.229c3.263-2.7,5.102-6.895,5.401-11.119c0.3-4.225-0.839-8.466-2.735-12.253l2.782-1.373
									c0,0,0.086,0.104,0.238,0.301c7.915,10.297,4.319,25.259-7.332,30.997c-2.271,1.118-4.423,2.361-5.837,3.594
									c-3.467,3.024-2.049,6.406-2.049,6.406"/>
							</g>
						</g>
						<g>
							<g>
								<path style="fill:#E8505B;" d="M321.044,303.753c-0.057,0.147-1.541-0.5-3.448-0.307c-1.911,0.157-3.252,1.063-3.335,0.929
									c-0.106-0.084,1.209-1.269,3.287-1.448C319.624,302.725,321.133,303.651,321.044,303.753z"/>
							</g>
						</g>
						<g>
							<g>
								<path style="fill:#E8505B;" d="M323.62,296.116c-0.141,0.056-0.578-0.814-1.405-1.636c-0.815-0.835-1.68-1.28-1.622-1.42
									c0.036-0.132,1.086,0.131,1.992,1.054C323.499,295.028,323.752,296.081,323.62,296.116z"/>
							</g>
						</g>
						<g>
							<g>
								<path style="fill:#E8505B;" d="M333.434,290.323c-0.146,0.043-0.509-0.919-1.293-1.869c-0.77-0.961-1.638-1.512-1.567-1.646
									c0.048-0.127,1.117,0.259,1.971,1.318C333.407,289.177,333.568,290.302,333.434,290.323z"/>
							</g>
						</g>
						<g>
							<g>
								<path style="fill:#E8505B;" d="M340.039,277.88c-0.062,0.138-1.034-0.197-2.268-0.353c-1.233-0.169-2.258-0.097-2.282-0.246
									c-0.031-0.133,1.026-0.449,2.35-0.271C339.164,277.181,340.104,277.76,340.039,277.88z"/>
							</g>
						</g>
						<g>
							<g>
								<path style="fill:#E8505B;" d="M337.771,265.86c-0.025,0.149-0.846,0.105-1.785,0.381c-0.944,0.26-1.619,0.729-1.719,0.616
									c-0.103-0.091,0.5-0.815,1.576-1.116C336.917,265.43,337.81,265.728,337.771,265.86z"/>
							</g>
						</g>
					</g>
					<g>
						<g>
							<g>
								<path style="fill:#E8505B;" d="M245.212,339.892c3.542-2.307,8.232-1.547,12.245-0.216
									c4.013,1.331,8.058,3.175,12.267,2.776c4.584-0.435,8.515-3.489,11.548-6.952c3.73-4.259,6.534-9.324,8.164-14.745
									c1.666-5.544,2.511-12.06,7.283-15.337c4.653-3.196,11.389-1.625,15.494,2.251c4.104,3.876,6.08,9.478,7.375,14.972
									c2.998,12.72,3.052,26.291-1.063,38.695c-4.115,12.404-12.594,23.535-24.089,29.752
									c-11.495,6.217-26.002,7.112-37.703,1.291"/>
							</g>
							<g>
								<g>
									<path style="fill:#263238;" d="M256.732,392.379c0,0,0.187,0.065,0.54,0.216c0.369,0.161,0.887,0.388,1.559,0.681
										c0.696,0.271,1.566,0.589,2.596,0.949c1.049,0.306,2.249,0.693,3.641,0.974c2.767,0.608,6.236,1.045,10.263,0.907
										c2.009-0.098,4.16-0.284,6.399-0.733c2.245-0.406,4.582-1.041,6.955-1.921c4.769-1.702,9.63-4.564,14.113-8.477
										c4.479-3.919,8.539-8.951,11.689-14.861c3.167-5.901,5.347-12.694,6.34-19.914c1.019-7.221,0.807-14.855-0.477-22.477
										c-0.671-3.806-1.505-7.558-2.811-11.078c-1.32-3.494-3.2-6.797-5.935-9.169c-2.709-2.346-6.272-3.671-9.717-3.497
										c-1.723,0.065-3.392,0.608-4.805,1.504c-1.43,0.892-2.545,2.187-3.405,3.592c-1.722,2.846-2.458,6.088-3.299,9.146
										c-0.787,3.089-1.807,6.055-3.159,8.74c-1.334,2.694-2.923,5.144-4.669,7.319c-1.744,2.172-3.648,4.101-5.757,5.569
										c-2.098,1.469-4.421,2.46-6.734,2.726c-2.317,0.279-4.508-0.14-6.452-0.687c-3.89-1.149-7.065-2.627-9.876-3.079
										c-2.787-0.542-5.031-0.291-6.445,0.158c-0.707,0.234-1.226,0.471-1.561,0.654c-0.334,0.186-0.513,0.27-0.513,0.27
										s0.16-0.114,0.487-0.317c0.329-0.199,0.845-0.455,1.554-0.708c1.42-0.487,3.695-0.775,6.514-0.257
										c2.844,0.427,6.057,1.887,9.918,2.998c1.93,0.529,4.083,0.923,6.333,0.639c2.248-0.272,4.508-1.247,6.562-2.699
										c2.064-1.451,3.935-3.36,5.654-5.518c1.721-2.159,3.284-4.589,4.596-7.258c1.331-2.666,2.326-5.583,3.104-8.668
										c0.835-3.056,1.56-6.33,3.331-9.278c0.885-1.454,2.049-2.813,3.55-3.754c1.488-0.948,3.246-1.518,5.043-1.589
										c1.795-0.092,3.621,0.195,5.332,0.831c1.715,0.624,3.345,1.548,4.746,2.778c2.826,2.448,4.744,5.828,6.085,9.371
										c1.327,3.573,2.164,7.342,2.84,11.173c1.292,7.672,1.503,15.359,0.469,22.635c-1.007,7.274-3.216,14.125-6.422,20.07
										c-3.189,5.955-7.297,11.02-11.828,14.96c-4.535,3.934-9.453,6.803-14.272,8.498c-2.397,0.877-4.756,1.504-7.021,1.901
										c-2.258,0.44-4.426,0.614-6.449,0.698c-4.056,0.111-7.543-0.359-10.317-1c-1.396-0.298-2.598-0.702-3.646-1.025
										c-1.03-0.377-1.896-0.712-2.588-0.999c-0.665-0.315-1.176-0.557-1.542-0.73
										C256.903,392.477,256.732,392.379,256.732,392.379z"/>
								</g>
							</g>
						</g>
						<g>
							<g>
								<path style="fill:#263238;" d="M299.774,317.152c-0.037,0.036-0.608-0.484-1.202-1.564
									c-0.597-1.071-1.128-2.744-1.105-4.636c0.031-1.893,0.609-3.55,1.236-4.604c0.625-1.063,1.209-1.566,1.246-1.53
									c0.071,0.058-0.404,0.639-0.92,1.702c-0.521,1.057-1.01,2.64-1.041,4.439c-0.02,1.799,0.424,3.395,0.915,4.466
									C299.388,316.502,299.846,317.096,299.774,317.152z"/>
							</g>
						</g>
						<g>
							<g>
								<path style="fill:#263238;" d="M305.845,316.275c-0.048,0.033-0.531-0.551-1.06-1.649c-0.53-1.093-1.047-2.727-1.164-4.592
									c-0.111-1.866,0.204-3.552,0.597-4.701c0.391-1.155,0.8-1.792,0.852-1.766c0.165,0.048-1.18,2.802-0.929,6.435
									C304.333,313.637,306.002,316.207,305.845,316.275z"/>
							</g>
						</g>
						<g>
							<g>
								<path style="fill:#263238;" d="M310.696,318.022c-0.122,0.045-0.835-2.077-0.755-4.802c0.061-2.726,0.881-4.808,1-4.757
									c0.152,0.043-0.423,2.132-0.48,4.77C310.382,315.871,310.85,317.987,310.696,318.022z"/>
							</g>
						</g>
					</g>
					<g>
						<g>
							<path style="fill:#E8505B;" d="M394.189,330.499c-9.145,5.578-21.319,4.516-30.798-0.49
								c-9.48-5.005-16.658-13.395-22.647-22.204c-1.7-2.501-3.424-5.147-6.066-6.654c-5.184-2.957-12.36-0.102-15.336,5.023
								c-2.976,5.125-2.424,11.65-0.124,17.103c0,0,6.104,29.557,37.901,47.943"/>
						</g>
						<g>
							<g>
								<path style="fill:#263238;" d="M357.118,371.221c-0.004,0.007-0.095-0.042-0.27-0.144c-0.193-0.115-0.449-0.268-0.774-0.462
									c-0.7-0.429-1.697-1.041-2.98-1.828c-0.638-0.416-1.395-0.814-2.141-1.374c-0.754-0.552-1.575-1.151-2.457-1.796
									c-0.868-0.666-1.866-1.297-2.804-2.124c-0.951-0.812-1.959-1.671-3.02-2.576c-4.145-3.726-8.826-8.614-13.111-14.895
									c-2.181-3.109-4.186-6.605-6.027-10.381c-1.813-3.791-3.477-7.868-4.561-12.312l0.014,0.047
									c-1.401-3.352-2.229-7.166-1.846-11.069c0.219-1.936,0.715-3.895,1.663-5.67c0.907-1.801,2.312-3.355,3.984-4.532
									c2.459-1.728,5.493-2.664,8.444-2.323c1.472,0.162,2.883,0.697,4.111,1.478c1.221,0.799,2.233,1.841,3.121,2.934
									c0.889,1.097,1.663,2.254,2.431,3.386c0.77,1.13,1.546,2.239,2.33,3.325c1.574,2.168,3.192,4.232,4.865,6.165
									c3.341,3.869,6.919,7.199,10.63,9.817c3.712,2.612,7.543,4.517,11.244,5.615c7.412,2.296,13.914,1.74,18.031,0.559
									c0.526-0.126,1.012-0.281,1.46-0.45c0.45-0.162,0.879-0.296,1.265-0.452c0.758-0.343,1.417-0.598,1.921-0.862
									c0.487-0.257,0.868-0.458,1.147-0.606c0.26-0.134,0.396-0.199,0.401-0.191c0.005,0.008-0.122,0.088-0.374,0.237
									c-0.274,0.159-0.647,0.376-1.126,0.653c-0.499,0.281-1.154,0.552-1.91,0.912c-0.385,0.165-0.813,0.307-1.264,0.478
									c-0.449,0.177-0.936,0.34-1.464,0.475c-4.132,1.25-10.694,1.872-18.194-0.402c-3.744-1.086-7.63-2.995-11.385-5.614
									c-3.756-2.626-7.374-5.973-10.745-9.857c-1.688-1.941-3.32-4.012-4.905-6.187c-0.789-1.089-1.571-2.201-2.345-3.334
									c-0.771-1.133-1.539-2.277-2.409-3.348c-0.869-1.067-1.847-2.068-3.008-2.825c-1.167-0.737-2.491-1.24-3.889-1.394
									c-2.798-0.323-5.719,0.57-8.084,2.234c-3.315,2.229-5.059,6.081-5.434,9.829c-0.376,3.79,0.425,7.531,1.795,10.821
									l0.008,0.018l0.007,0.028c1.056,4.363,2.706,8.445,4.495,12.21c1.82,3.758,3.802,7.242,5.958,10.343
									c4.237,6.265,8.867,11.156,12.967,14.901c1.049,0.911,2.046,1.776,2.987,2.593c0.927,0.833,1.915,1.471,2.773,2.145
									c0.873,0.655,1.683,1.263,2.429,1.822c0.737,0.569,1.485,0.977,2.115,1.404c1.262,0.816,2.243,1.45,2.931,1.895
									c0.316,0.21,0.564,0.375,0.752,0.499C357.038,371.153,357.122,371.215,357.118,371.221z"/>
							</g>
						</g>
					</g>
					<g>
						<g>
							<path style="fill:#263238;" d="M327.819,317.886c-0.166,0.053-0.782-3.395-3.167-6.863c-2.341-3.5-5.317-5.347-5.206-5.481
								c0.031-0.05,0.809,0.336,1.918,1.193c1.108,0.852,2.511,2.221,3.719,3.996c1.202,1.778,1.955,3.588,2.337,4.932
								C327.806,317.01,327.877,317.876,327.819,317.886z"/>
						</g>
					</g>
					<g>
						<g>
							<path style="fill:#263238;" d="M334.02,313.883c-0.172,0.029-0.274-3.526-2.16-7.36c-1.838-3.859-4.563-6.144-4.433-6.261
								c0.037-0.045,0.763,0.456,1.752,1.478c0.988,1.017,2.198,2.597,3.15,4.556c0.946,1.962,1.434,3.89,1.619,5.296
								C334.136,313.001,334.079,313.882,334.02,313.883z"/>
						</g>
					</g>
				</g>
				<g style="opacity:0.3;">
					<g>
						<path style="fill:#FFFFFF;" d="M313.325,372.571c2.492-3.807-7.769-4.707-12.289-4.186
							c-6.543,0.755-12.766,4.014-17.113,8.963c-4.346,4.949-6.775,11.541-6.678,18.127
							C277.245,395.475,296.947,397.592,313.325,372.571z"/>
					</g>
				</g>
				<g style="opacity:0.3;">
					<g>
						<path d="M330.175,355.559c5.129,7.908,12.977,14.016,21.902,17.046c0.96,0.326,1.982,0.621,2.976,0.418
							c0.994-0.202,1.926-1.066,1.854-2.077c-10.646-5.774-19.892-14.109-26.735-24.101c-0.529,3.05-0.082,6.261,1.259,9.051"/>
					</g>
				</g>
			</g>
			<g>
				<g>
					<g>
						
							<ellipse transform="matrix(0.7071 -0.7071 0.7071 0.7071 -104.4157 292.1759)" style="fill:#F5F5F5;" cx="300.48" cy="272.129" rx="22.547" ry="22.547"/>
					</g>
					<g>
						<path style="fill:#263238;" d="M323.026,273.083c0,10.886-5.713,19.976-12.086,19.976c-6.373,0-11.539-8.825-11.539-19.711
							c0-10.886,5.166-19.711,11.539-19.711C317.314,253.638,323.026,262.197,323.026,273.083z"/>
					</g>
					<g>
						<g>
							<path style="fill:#FFFFFF;" d="M305.301,282.431c-0.032,0.016-0.192-0.249-0.456-0.745c-0.272-0.492-0.599-1.24-0.936-2.187
								c-0.682-1.891-1.272-4.659-1.195-7.746c0.089-3.088,0.828-5.82,1.61-7.672c0.388-0.928,0.754-1.657,1.053-2.133
								c0.29-0.481,0.465-0.737,0.496-0.719c0.083,0.046-0.527,1.125-1.205,2.986c-0.682,1.855-1.346,4.534-1.433,7.553
								c-0.075,3.018,0.442,5.728,1.024,7.618C304.835,281.28,305.386,282.39,305.301,282.431z"/>
						</g>
					</g>
					<g>
						<circle style="fill:#FFFFFF;" cx="313.795" cy="260.733" r="3.859"/>
					</g>
					<g>
						<g>
							<path style="fill:#263238;" d="M315.077,244.299c-0.432,0.592-1.514,0.577-2.891,0.359c-1.389-0.214-3.087-0.62-4.942-0.923
								c-1.855-0.313-3.541-0.477-4.899-0.665c-1.347-0.198-2.385-0.458-2.655-1.141c-0.261-0.648,0.376-1.653,1.904-2.464
								c0.756-0.417,1.733-0.718,2.849-0.909c1.116-0.163,2.373-0.168,3.656,0.042c2.579,0.421,4.66,1.644,5.844,2.823
								C315.139,242.62,315.493,243.734,315.077,244.299z"/>
						</g>
					</g>
				</g>
				<g>
					<g>
						<path style="fill:#E8505B;" d="M304.864,300.295c-3.456-7.076-0.889-16.526,5.671-20.882
							c6.56-4.356,16.266-3.053,21.446,2.878"/>
					</g>
					<g>
						<g>
							<path style="fill:#263238;" d="M331.981,282.291c-0.038,0.035-0.484-0.453-1.376-1.224c-0.886-0.777-2.305-1.762-4.236-2.593
								c-1.925-0.837-4.409-1.429-7.185-1.385c-2.764,0.034-5.825,0.799-8.504,2.541c-2.646,1.793-4.539,4.318-5.644,6.852
								c-1.118,2.542-1.537,5.062-1.512,7.16c0.016,2.102,0.374,3.792,0.746,4.91c0.365,1.121,0.642,1.721,0.594,1.743
								c-0.016,0.008-0.097-0.135-0.235-0.417c-0.123-0.288-0.371-0.689-0.551-1.26c-0.436-1.113-0.858-2.822-0.922-4.971
								c-0.072-2.144,0.316-4.734,1.441-7.357c1.11-2.614,3.051-5.235,5.796-7.094c2.778-1.807,5.946-2.578,8.786-2.587
								c2.854-0.019,5.391,0.629,7.339,1.527c1.955,0.893,3.367,1.945,4.224,2.779c0.456,0.388,0.73,0.772,0.948,0.997
								C331.894,282.149,331.995,282.279,331.981,282.291z"/>
						</g>
					</g>
				</g>
			</g>
		</g>
		<g>
			<g>
				<path style="fill:#263238;" d="M260.084,214.899c0.004,0.018-0.173,0.077-0.513,0.174c-0.398,0.106-0.89,0.238-1.491,0.399
					c-0.652,0.154-1.437,0.386-2.346,0.665c-0.459,0.137-0.945,0.281-1.458,0.434c-0.512,0.176-1.05,0.361-1.613,0.554
					c-4.528,1.53-10.598,4.221-16.821,8.038c-6.252,3.777-11.478,7.862-15.202,10.865c-1.848,1.522-3.34,2.762-4.353,3.638
					c-0.477,0.399-0.869,0.726-1.185,0.99c-0.275,0.222-0.425,0.332-0.437,0.319c-0.012-0.013,0.115-0.15,0.367-0.397
					c0.299-0.284,0.669-0.635,1.121-1.063c0.973-0.924,2.43-2.208,4.253-3.77c3.672-3.082,8.883-7.23,15.167-11.027
					c6.255-3.837,12.394-6.495,16.975-7.942c0.57-0.182,1.115-0.356,1.633-0.522c0.52-0.14,1.012-0.273,1.477-0.398
					c0.92-0.253,1.716-0.457,2.377-0.582c0.611-0.123,1.112-0.223,1.516-0.304C259.896,214.906,260.08,214.881,260.084,214.899z"/>
			</g>
		</g>
	</g>
</g>
<g id="_x34_04_Error">
	<g>
		<g>
			<g>
				<path style="fill:#263238;" d="M115.062,92.784c-0.035,0.01-0.178-0.408-0.409-1.175c-0.121-0.382-0.255-0.854-0.369-1.412
					c-0.12-0.556-0.283-1.186-0.379-1.897c-0.252-1.412-0.415-3.118-0.465-5.016c-0.02-1.898,0.091-3.989,0.419-6.158
					c0.348-2.166,0.879-4.192,1.476-5.994c0.625-1.793,1.3-3.368,1.969-4.637c0.308-0.648,0.655-1.198,0.938-1.691
					c0.279-0.496,0.55-0.905,0.781-1.232c0.453-0.66,0.717-1.014,0.747-0.994c0.085,0.055-0.911,1.519-2.137,4.081
					c-0.621,1.277-1.252,2.847-1.844,4.625c-0.564,1.787-1.073,3.787-1.416,5.924c-0.323,2.139-0.447,4.198-0.453,6.072
					c0.023,1.874,0.146,3.561,0.349,4.966C114.657,91.059,115.159,92.757,115.062,92.784z"/>
			</g>
		</g>
		<g>
			<g>
				<g>
					<g>
						
							<rect x="143.887" y="50.699" transform="matrix(0.9831 -0.1829 0.1829 0.9831 -16.3343 48.4024)" style="fill:#FFFFFF;" width="220.563" height="124.064"/>
					</g>
					<g>
						<g>
							<path style="fill:#263238;" d="M373.937,153.541c0,0-0.153-0.746-0.428-2.183c-0.273-1.442-0.678-3.574-1.207-6.364
								c-1.052-5.588-2.599-13.809-4.586-24.371c-3.954-21.11-9.66-51.573-16.673-89.016l0.232,0.16
								c-57.894,10.79-133.875,24.951-216.812,40.408l-0.016,0.003l0.208-0.304c8.021,43.139,15.692,84.391,22.68,121.974
								l-0.283-0.194c63.491-11.766,117.678-21.808,156.001-28.91c19.178-3.54,34.384-6.347,44.804-8.27
								c5.21-0.956,9.222-1.693,11.94-2.191c1.354-0.245,2.384-0.432,3.084-0.559C373.575,153.598,373.937,153.541,373.937,153.541
								s-0.339,0.073-1.023,0.205c-0.692,0.132-1.711,0.327-3.051,0.583c-2.704,0.51-6.696,1.263-11.88,2.241
								c-10.402,1.951-25.581,4.799-44.725,8.39c-38.351,7.166-92.578,17.299-156.116,29.171l-0.239,0.045l-0.044-0.239
								c-6.999-37.58-14.681-78.831-22.715-121.967l-0.048-0.256l0.256-0.048l0.016-0.003
								c82.946-15.412,158.935-29.531,216.835-40.289l0.196-0.036l0.036,0.196c6.935,37.51,12.577,68.027,16.487,89.175
								c1.941,10.551,3.452,18.763,4.479,24.346c0.507,2.778,0.895,4.901,1.157,6.336
								C373.817,152.818,373.937,153.541,373.937,153.541z"/>
						</g>
					</g>
				</g>
				<g>
					<path style="fill:#263238;" d="M227.673,118.664l-6.649,1.237l1.595,8.567l-12.34,2.296l-1.595-8.567l-23.656,4.402
						l-1.534-8.247l14.876-31.676l13.107-2.439l-13.355,29.54l9.079-1.689l-1.416-7.607l11.956-2.226l1.416,7.608l6.648-1.237
						L227.673,118.664z"/>
					<path style="fill:#263238;" d="M227.663,104.377c-2.748-14.769,3.982-24.818,15.426-26.948
						c11.38-2.118,21.275,4.839,24.024,19.607c2.748,14.77-3.982,24.82-15.362,26.938
						C240.306,126.104,230.412,119.147,227.663,104.377z M254.387,99.405c-1.749-9.398-5.344-12.368-9.372-11.618
						c-4.092,0.762-6.377,4.825-4.629,14.224c1.749,9.398,5.344,12.368,9.436,11.606C253.85,112.867,256.136,108.803,254.387,99.405
						z"/>
					<path style="fill:#263238;" d="M316.229,102.185l-6.649,1.237l1.594,8.567l-12.338,2.296l-1.595-8.567l-23.656,4.402
						l-1.535-8.247l14.876-31.676l13.108-2.438l-13.355,29.539l9.079-1.689l-1.416-7.607l11.955-2.226l1.416,7.608l6.649-1.237
						L316.229,102.185z"/>
				</g>
				<g>
					<path style="fill:#263238;" d="M232.08,154.749l0.406,2.183l-12.741,2.371l-3.268-17.558l12.391-2.306l0.406,2.182
						l-9.883,1.839l1.003,5.393l8.805-1.638l0.396,2.132l-8.804,1.638l1.055,5.668L232.08,154.749z"/>
					<path style="fill:#263238;" d="M248.284,153.992l-4.791-4.688c-0.347,0.09-0.718,0.186-1.094,0.255l-4.34,0.808l0.994,5.343
						l-2.508,0.467l-3.268-17.558l6.848-1.274c4.565-0.849,7.753,0.945,8.463,4.757c0.504,2.709-0.537,4.926-2.831,6.262l5.261,5.12
						L248.284,153.992z M246.081,142.568c-0.467-2.508-2.413-3.626-5.624-3.028l-4.264,0.793l1.47,7.901l4.265-0.794
						C245.138,146.844,246.548,145.077,246.081,142.568z"/>
					<path style="fill:#263238;" d="M266.514,150.599l-4.791-4.688c-0.347,0.09-0.718,0.186-1.095,0.256l-4.338,0.807l0.994,5.343
						l-2.509,0.467l-3.268-17.558l6.848-1.274c4.565-0.85,7.754,0.944,8.463,4.757c0.505,2.709-0.536,4.926-2.832,6.262l5.261,5.12
						L266.514,150.599z M264.31,139.176c-0.467-2.508-2.412-3.625-5.623-3.028l-4.264,0.793l1.471,7.901l4.264-0.793
						C263.368,143.452,264.777,141.684,264.31,139.176z"/>
					<path style="fill:#263238;" d="M269.943,140.878c-0.957-5.142,2.292-9.717,7.685-10.72c5.342-0.994,10.015,2.081,10.976,7.248
						c0.962,5.167-2.292,9.717-7.634,10.711C275.577,149.12,270.899,146.021,269.943,140.878z M286.095,137.872
						c-0.724-3.888-4.165-6.206-8.053-5.482c-3.938,0.733-6.315,4.134-5.592,8.021c0.723,3.888,4.165,6.206,8.103,5.473
						C284.442,145.161,286.818,141.76,286.095,137.872z"/>
					<path style="fill:#263238;" d="M305.809,143.287l-4.791-4.688c-0.347,0.09-0.719,0.186-1.095,0.255l-4.339,0.808l0.994,5.343
						l-2.509,0.467l-3.268-17.558l6.848-1.274c4.565-0.849,7.754,0.945,8.463,4.757c0.504,2.709-0.536,4.926-2.831,6.262l5.261,5.12
						L305.809,143.287z M303.604,131.864c-0.467-2.508-2.413-3.626-5.623-3.028l-4.264,0.793l1.471,7.901l4.264-0.794
						C302.662,136.139,304.071,134.372,303.604,131.864z"/>
				</g>
			</g>
			<g>
				<g>
					<g>
						<path style="fill:#E0E0E0;" d="M346.668,44.781c0.098,2.494-1.843,4.595-4.337,4.693c-2.494,0.098-4.595-1.843-4.693-4.337
							c-0.098-2.494,1.843-4.595,4.337-4.693C344.469,40.346,346.57,42.287,346.668,44.781z"/>
					</g>
					<g>
						<g>
							<path style="fill:#263238;" d="M346.668,44.781c-0.05,0.004-0.062-0.4-0.282-1.068c-0.218-0.656-0.718-1.602-1.749-2.3
								c-0.997-0.701-2.596-1.046-4.099-0.412c-1.492,0.586-2.731,2.248-2.64,4.125c0.057,1.879,1.423,3.438,2.957,3.906
								c1.548,0.513,3.115,0.044,4.054-0.734c0.973-0.776,1.397-1.759,1.562-2.43C346.638,45.185,346.618,44.781,346.668,44.781
								c0.018-0.001,0.034,0.098,0.049,0.289c0.018,0.191,0.012,0.477-0.048,0.839c-0.111,0.713-0.503,1.791-1.526,2.672
								c-0.986,0.881-2.702,1.452-4.435,0.907c-1.715-0.49-3.269-2.231-3.332-4.342c-0.103-2.109,1.308-3.966,2.979-4.59
								c1.684-0.679,3.439-0.245,4.492,0.555c1.089,0.798,1.565,1.842,1.732,2.544c0.088,0.356,0.117,0.641,0.114,0.833
								C346.695,44.681,346.686,44.78,346.668,44.781z"/>
						</g>
					</g>
				</g>
				<g>
					<g>
						<path style="fill:#263238;" d="M344.148,41.643c0.13-0.026,0.299,1.679-0.618,3.503c-0.899,1.834-2.358,2.73-2.416,2.611
							c-0.102-0.12,1.119-1.135,1.95-2.842C343.921,43.221,343.991,41.635,344.148,41.643z"/>
					</g>
				</g>
				<g>
					<g>
						<path style="fill:#263238;" d="M345.037,46.433c-0.131,0.075-0.728-1.117-2.087-1.814c-1.353-0.71-2.671-0.511-2.685-0.662
							c-0.014-0.065,0.298-0.209,0.845-0.248c0.541-0.042,1.324,0.055,2.079,0.447c0.755,0.391,1.285,0.975,1.563,1.442
							C345.036,46.069,345.097,46.407,345.037,46.433z"/>
					</g>
				</g>
			</g>
			<g>
				<g>
					<g>
						
							<rect x="133.098" y="108.239" transform="matrix(0.7819 -0.6234 0.6234 0.7819 -38.9118 111.8384)" style="fill:#E0E0E0;" width="14.549" height="6.579"/>
					</g>
					<g>
						<g>
							<path style="fill:#263238;" d="M148.111,109.565c-0.037-0.004-0.465-0.499-1.205-1.371c-0.776-0.932-1.802-2.164-3.044-3.656
								l0.265,0.03c-2.915,2.381-6.911,5.603-11.33,9.126c-0.037,0.327,0.049-0.445,0.041-0.365l0.001,0.001l0.002,0.003
								l0.004,0.005l0.008,0.011l0.017,0.021l0.034,0.042l0.067,0.085l0.135,0.169l0.268,0.337l0.532,0.668
								c0.352,0.443,0.7,0.88,1.042,1.311c0.683,0.862,1.345,1.698,1.98,2.499l-0.347-0.039c3.279-2.594,6.127-4.796,8.179-6.371
								c0.983-0.748,1.792-1.364,2.423-1.845C147.758,109.796,148.083,109.562,148.111,109.565c0.029,0.003-0.241,0.243-0.765,0.688
								c-0.597,0.499-1.363,1.139-2.294,1.916c-1.981,1.641-4.82,3.973-8.162,6.659l-0.192,0.155l-0.156-0.194
								c-0.64-0.798-1.307-1.629-1.995-2.487c-0.344-0.43-0.693-0.866-1.046-1.308l-0.533-0.667l-0.269-0.337l-0.135-0.169
								l-0.068-0.085l-0.034-0.042l-0.017-0.021l-0.008-0.011l-0.004-0.005l-0.002-0.003l-0.001-0.001
								c-0.01,0.079,0.078-0.694,0.042-0.367c4.418-3.523,8.449-6.702,11.419-9.013l0.151-0.117l0.115,0.147
								c1.275,1.637,2.28,2.967,2.957,3.872C147.792,109.082,148.148,109.57,148.111,109.565z"/>
						</g>
					</g>
				</g>
				<g>
					<g>
						<path style="fill:#E0E0E0;" d="M130.082,120.029c2.09,2.622,5.91,3.052,8.532,0.962l-7.57-9.494
							C128.422,113.587,127.992,117.407,130.082,120.029z"/>
					</g>
					<g>
						<g>
							<path style="fill:#263238;" d="M130.082,120.029c-0.018,0.015-0.192-0.162-0.468-0.534c-0.26-0.38-0.605-0.977-0.827-1.812
								c-0.216-0.829-0.313-1.907-0.008-3.067c0.276-1.16,0.99-2.379,2.116-3.307l0.185-0.152l0.153,0.19
								c1.176,1.465,2.457,3.06,3.8,4.734c1.333,1.683,2.603,3.287,3.769,4.76l0.152,0.191l-0.189,0.146
								c-1.155,0.891-2.502,1.316-3.695,1.326c-1.2,0.039-2.229-0.296-2.988-0.691c-0.765-0.402-1.27-0.872-1.582-1.21
								C130.197,120.252,130.064,120.043,130.082,120.029c0.063-0.07,0.631,0.807,2.127,1.524c0.742,0.34,1.723,0.619,2.845,0.551
								c1.117-0.04,2.354-0.463,3.411-1.3l-0.038,0.337c-1.176-1.465-2.457-3.06-3.801-4.735c-1.333-1.683-2.602-3.286-3.768-4.759
								l0.337,0.038c-1.051,0.844-1.739,1.956-2.027,3.035c-0.316,1.078-0.263,2.097-0.097,2.896
								C129.435,119.234,130.164,119.983,130.082,120.029z"/>
						</g>
					</g>
				</g>
				<g>
					<g>
						<path style="fill:#E0E0E0;" d="M131.482,116.852c-0.964,1.07-1.223,2.721-0.632,4.035"/>
					</g>
					<g>
						<g>
							<path style="fill:#263238;" d="M130.85,120.887c-0.11,0.088-0.734-0.855-0.524-2.149c0.196-1.296,1.079-2.003,1.156-1.886
								c0.112,0.101-0.481,0.853-0.642,1.967C130.652,119.927,130.987,120.825,130.85,120.887z"/>
						</g>
					</g>
				</g>
				<g>
					<g>
						<path style="fill:#263238;" d="M138.625,117.502c-0.129,0.076-0.999-1.199-2.211-2.649c-1.206-1.457-2.3-2.544-2.202-2.658
							c0.087-0.106,1.364,0.83,2.602,2.325C138.058,116.009,138.746,117.436,138.625,117.502z"/>
					</g>
				</g>
				<g>
					<g>
						<path style="fill:#263238;" d="M139.961,116.437c-0.129,0.076-0.999-1.198-2.211-2.649c-1.206-1.457-2.3-2.544-2.202-2.658
							c0.087-0.106,1.364,0.83,2.602,2.325C139.394,114.944,140.081,116.371,139.961,116.437z"/>
					</g>
				</g>
				<g>
					<g>
						<path style="fill:#263238;" d="M141.297,115.372c-0.129,0.076-0.999-1.199-2.211-2.649c-1.206-1.457-2.3-2.544-2.202-2.658
							c0.087-0.106,1.364,0.83,2.602,2.325C140.729,113.879,141.417,115.306,141.297,115.372z"/>
					</g>
				</g>
				<g>
					<g>
						<path style="fill:#263238;" d="M142.632,114.307c-0.129,0.076-0.999-1.198-2.211-2.649c-1.206-1.457-2.301-2.544-2.202-2.658
							c0.087-0.106,1.364,0.83,2.602,2.325C142.065,112.814,142.753,114.241,142.632,114.307z"/>
					</g>
				</g>
				<g>
					<g>
						<path style="fill:#263238;" d="M143.968,113.242c-0.129,0.076-0.999-1.198-2.211-2.649c-1.206-1.457-2.3-2.544-2.202-2.658
							c0.087-0.106,1.364,0.83,2.602,2.325C143.401,111.749,144.088,113.176,143.968,113.242z"/>
					</g>
				</g>
				<g>
					<g>
						<path style="fill:#263238;" d="M145.304,112.177c-0.129,0.076-0.999-1.199-2.211-2.649c-1.206-1.457-2.3-2.544-2.202-2.658
							c0.087-0.106,1.364,0.83,2.602,2.325C144.736,110.684,145.424,112.111,145.304,112.177z"/>
					</g>
				</g>
				<g>
					<g>
						<path style="fill:#263238;" d="M146.639,111.112c-0.129,0.076-0.999-1.199-2.211-2.649c-1.206-1.457-2.301-2.544-2.202-2.658
							c0.087-0.106,1.364,0.83,2.602,2.325C146.072,109.619,146.759,111.046,146.639,111.112z"/>
					</g>
				</g>
			</g>
			<g>
				<g>
					<path style="fill:#263238;" d="M154.5,82.028c-0.05,0.004-0.061-0.405-0.284-1.082c-0.22-0.664-0.727-1.624-1.771-2.331
						c-1.011-0.711-2.631-1.06-4.154-0.418c-1.513,0.594-2.769,2.278-2.676,4.181c0.057,1.905,1.443,3.485,2.997,3.959
						c1.569,0.52,3.157,0.044,4.109-0.744c0.985-0.787,1.415-1.783,1.582-2.463C154.471,82.437,154.45,82.028,154.5,82.028
						c0.018-0.001,0.034,0.099,0.049,0.293c0.018,0.193,0.012,0.483-0.049,0.85c-0.113,0.722-0.51,1.813-1.546,2.705
						c-0.999,0.891-2.735,1.469-4.489,0.918c-1.736-0.497-3.309-2.258-3.372-4.396c-0.104-2.135,1.324-4.014,3.016-4.646
						c1.705-0.688,3.481-0.249,4.547,0.561c1.103,0.807,1.585,1.864,1.754,2.575c0.09,0.36,0.119,0.649,0.116,0.843
						C154.526,81.927,154.518,82.028,154.5,82.028z"/>
				</g>
			</g>
			<g>
				<g>
					<path style="fill:#263238;" d="M124.804,93.08c-0.035,0.01-0.178-0.408-0.409-1.175c-0.121-0.382-0.255-0.854-0.369-1.412
						c-0.12-0.556-0.283-1.186-0.379-1.897c-0.252-1.412-0.415-3.118-0.465-5.016c-0.02-1.898,0.091-3.989,0.418-6.158
						c0.348-2.166,0.879-4.192,1.476-5.994c0.625-1.793,1.3-3.368,1.969-4.637c0.308-0.648,0.655-1.198,0.938-1.691
						c0.279-0.496,0.55-0.905,0.781-1.232c0.454-0.66,0.718-1.014,0.747-0.994c0.085,0.055-0.911,1.519-2.137,4.081
						c-0.621,1.277-1.252,2.847-1.844,4.625c-0.564,1.787-1.073,3.787-1.416,5.924c-0.323,2.139-0.447,4.198-0.453,6.072
						c0.023,1.874,0.146,3.561,0.349,4.966C124.399,91.355,124.901,93.054,124.804,93.08z"/>
				</g>
			</g>
			<g>
				<g>
					<path style="fill:#263238;" d="M388.494,137.037c0.035-0.01,0.178,0.408,0.409,1.175c0.121,0.382,0.255,0.854,0.369,1.412
						c0.12,0.556,0.283,1.186,0.379,1.897c0.252,1.413,0.415,3.118,0.465,5.016c0.02,1.898-0.091,3.989-0.419,6.158
						c-0.348,2.166-0.879,4.192-1.475,5.994c-0.625,1.793-1.3,3.368-1.969,4.637c-0.308,0.648-0.655,1.198-0.938,1.691
						c-0.279,0.496-0.55,0.905-0.781,1.232c-0.454,0.66-0.717,1.014-0.747,0.994c-0.085-0.055,0.911-1.519,2.137-4.081
						c0.621-1.277,1.252-2.847,1.844-4.625c0.564-1.787,1.073-3.787,1.416-5.924c0.323-2.139,0.447-4.198,0.453-6.072
						c-0.023-1.874-0.146-3.561-0.349-4.966C388.899,138.762,388.397,137.063,388.494,137.037z"/>
				</g>
			</g>
			<g>
				<g>
					<path style="fill:#263238;" d="M394.994,138.758c0.035-0.01,0.178,0.408,0.409,1.175c0.121,0.382,0.254,0.854,0.369,1.412
						c0.12,0.556,0.283,1.186,0.379,1.897c0.252,1.412,0.415,3.118,0.465,5.016c0.02,1.898-0.091,3.989-0.418,6.158
						c-0.348,2.166-0.879,4.192-1.475,5.994c-0.625,1.793-1.3,3.368-1.969,4.637c-0.308,0.648-0.655,1.198-0.938,1.691
						c-0.279,0.496-0.55,0.905-0.781,1.232c-0.454,0.66-0.718,1.015-0.747,0.994c-0.085-0.055,0.911-1.519,2.137-4.081
						c0.621-1.277,1.252-2.847,1.844-4.625c0.564-1.787,1.073-3.787,1.416-5.923c0.322-2.139,0.447-4.198,0.453-6.072
						c-0.023-1.874-0.146-3.561-0.349-4.966C395.399,140.482,394.897,138.784,394.994,138.758z"/>
				</g>
			</g>
		</g>
	</g>
</g>
<g id="Speech_Bubble">
	<g>
		<g>
			<path style="fill:#FAFAFA;" d="M177.532,217.206c5.243-7.032,8.347-15.752,8.347-25.197c0-23.306-18.893-42.199-42.199-42.199
				s-42.199,18.893-42.199,42.199s18.893,42.199,42.199,42.199c8.576,0,16.549-2.565,23.208-6.96l14.523,6.432L177.532,217.206z"/>
		</g>
		<g>
			<g>
				<g>
					<path style="fill:#E8505B;" d="M130.919,189.524c0.087-1.584,0.762-3.102,1.747-4.346c0.965-1.218,2.26-2.211,3.757-2.63
						c1.59-0.446,3.359-0.206,4.773,0.646c0.841,0.507,1.548,1.226,2.057,2.066c0.404-0.795,0.978-1.504,1.681-2.051
						c1.303-1.013,3.032-1.46,4.663-1.205c1.535,0.24,2.939,1.073,4.041,2.168c1.125,1.119,1.975,2.547,2.248,4.109
						c0.342,1.957,0.089,4.137-0.832,5.898c-0.973,1.859-2.631,3.412-4.361,4.599c-2.909,1.996-6.746,4.507-6.746,4.507
						s-3.506-2.312-6.631-3.951c-1.858-0.975-3.688-2.321-4.874-4.052C131.319,193.643,130.811,191.508,130.919,189.524z"/>
				</g>
			</g>
		</g>
		<g>
			<g>
				<g>
					<g>
						<g>
							<g>
								<g>
									<path style="fill:#263238;" d="M143.677,149.826c0-0.016-0.248-0.021-0.734-0.012c-0.532,0.015-1.246,0.035-2.156,0.061
										c-0.474,0.022-1.006,0.022-1.59,0.071c-0.583,0.082-1.218,0.171-1.902,0.267c-0.69,0.099-1.43,0.206-2.22,0.319
										c-0.779,0.193-1.605,0.398-2.48,0.615c-3.484,0.896-7.706,2.427-12.021,5.241c-4.313,2.768-8.795,6.727-12.432,12.108
										c-3.569,5.387-6.324,12.165-7.053,19.777c-0.071,1.905-0.301,3.843-0.117,5.813c0.069,0.983,0.049,1.982,0.192,2.973
										c0.149,0.99,0.3,1.989,0.451,2.994c0.811,3.971,1.993,8.04,4.04,11.829c1.999,3.798,4.577,7.412,7.726,10.631
										c3.21,3.153,6.959,5.889,11.131,7.997c4.16,2.125,8.77,3.593,13.568,4.165c1.188,0.235,2.405,0.234,3.619,0.308
										c1.214,0.079,2.434,0.124,3.658,0.066c2.447-0.099,4.902-0.407,7.327-0.926c5.27-1.122,10.231-3.268,14.588-6.139
										l-0.443,0.045c5.057,2.029,10.017,4.02,14.859,5.963l0.88,0.353l-0.251-0.914c-1.499-5.452-2.957-10.756-4.368-15.885
										l-0.075,0.392c4.17-5.542,6.828-11.869,7.929-18.152c0.552-3.139,0.786-6.272,0.578-9.3
										c-0.064-1.517-0.137-3.013-0.422-4.467c-0.113-0.73-0.225-1.454-0.337-2.174c-0.133-0.715-0.35-1.407-0.52-2.104
										c-2.871-11.182-9.758-19.441-16.578-24.168c-3.415-2.405-6.782-4.13-9.866-5.205c-0.768-0.275-1.509-0.54-2.222-0.795
										c-0.732-0.186-1.436-0.365-2.11-0.536c-0.673-0.167-1.316-0.326-1.93-0.478c-0.619-0.119-1.217-0.182-1.776-0.269
										c-1.124-0.143-2.11-0.336-2.975-0.379c-0.852-0.029-1.578-0.053-2.184-0.074c-0.553-0.012-0.992-0.022-1.334-0.029
										C143.829,149.808,143.677,149.813,143.677,149.826c0,0.013,0.152,0.034,0.451,0.062c0.34,0.027,0.777,0.061,1.328,0.105
										c0.602,0.04,1.323,0.089,2.169,0.146c0.858,0.067,1.836,0.284,2.948,0.448c4.373,0.802,10.929,2.546,17.626,7.442
										c6.688,4.729,13.4,12.909,16.161,23.901c0.163,0.685,0.374,1.365,0.5,2.068c0.106,0.707,0.213,1.419,0.32,2.135
										c0.273,1.428,0.337,2.897,0.393,4.386c0.193,2.971-0.05,6.043-0.602,9.117c-1.102,6.153-3.724,12.34-7.82,17.757
										l-0.134,0.177l0.059,0.215c1.4,5.132,2.847,10.439,4.336,15.894l0.629-0.56c-4.84-1.949-9.798-3.945-14.852-5.981
										l-0.233-0.094l-0.211,0.139c-4.263,2.804-9.112,4.899-14.262,5.995c-2.371,0.507-4.77,0.808-7.163,0.906
										c-1.197,0.057-2.39,0.013-3.577-0.065c-1.186-0.072-2.377-0.068-3.538-0.299c-4.692-0.554-9.198-1.985-13.269-4.058
										c-4.083-2.056-7.755-4.725-10.903-7.803c-3.087-3.144-5.619-6.676-7.588-10.389c-2.016-3.704-3.184-7.686-3.995-11.575
										c-0.152-0.985-0.303-1.963-0.453-2.933c-0.145-0.971-0.128-1.952-0.2-2.915c-0.19-1.932,0.03-3.834,0.09-5.704
										c0.682-7.473,3.347-14.145,6.823-19.471c3.543-5.319,7.927-9.258,12.158-12.034c4.233-2.822,8.388-4.388,11.826-5.331
										c0.863-0.23,1.68-0.448,2.449-0.652c0.781-0.128,1.514-0.248,2.196-0.36c0.678-0.112,1.306-0.215,1.884-0.311
										c0.578-0.064,1.107-0.079,1.577-0.117c0.905-0.066,1.616-0.117,2.145-0.156
										C143.429,149.872,143.677,149.843,143.677,149.826z"/>
								</g>
							</g>
						</g>
					</g>
				</g>
			</g>
		</g>
	</g>
</g>
</svg>
