<?xml version="1.0" encoding="utf-8"?>
<!-- Generator: Adobe Illustrator 27.5.0, SVG Export Plug-In . SVG Version: 6.00 Build 0)  -->
<svg version="1.1" xmlns="http://www.w3.org/2000/svg" xmlns:xlink="http://www.w3.org/1999/xlink" x="0px" y="0px"
	 viewBox="0 0 500 500" style="enable-background:new 0 0 500 500;" xml:space="preserve">
<g id="BACKGROUND">
	<g>
		<path style="fill:#FAEEE8;" d="M267.775,391.919c0,0-246.868-5.952-234.309-199.352C47.637-25.681,255.492,15.891,323.518,88.64
			s95.424-0.945,140.775,72.749C504.971,227.492,492.636,413.65,267.775,391.919z"/>
	</g>
</g>
<g id="OBJECTS">
	<g>
		<g>
			<path style="fill:#FAEEE8;" d="M476.5,455.867c0,4.257-6.129,8.217-18.336,11.888c-12.232,3.677-28.583,6.886-49.075,9.641
				c-20.493,2.754-44.418,4.929-71.725,6.524c-27.332,1.595-56.453,2.392-87.364,2.392c-31.646,0-61.136-0.797-88.443-2.392
				c-27.332-1.595-51.232-3.769-71.725-6.524c-20.493-2.754-36.671-5.964-48.536-9.641c-11.865-3.67-17.797-7.631-17.797-11.888
				c0-4.151,5.932-8.118,17.797-11.888c11.864-3.769,28.043-7.031,48.536-9.786c20.493-2.754,44.393-4.949,71.725-6.596
				c27.307-1.641,56.797-2.465,88.443-2.465c30.911,0,60.032,0.824,87.364,2.465c27.307,1.647,51.232,3.842,71.725,6.596
				c20.492,2.755,36.843,6.016,49.075,9.786C470.371,447.749,476.5,451.716,476.5,455.867z"/>
		</g>
		<g>
			<g>
				<g>
					<polygon style="fill:#E2822B;" points="185.906,280.587 197.975,257.79 303.017,257.79 316.427,280.587 					"/>
					<polygon style="fill:#E2822B;" points="58.068,338.695 68.795,313.962 187.396,313.366 187.992,346.145 					"/>
					<polygon style="fill:#E2822B;" points="442.477,370.044 431.452,344.654 312.852,344.058 312.255,376.837 					"/>
				</g>
				<polygon style="fill:#FFA94D;" points="313.683,370.044 316.427,280.587 185.906,280.587 187.315,338.695 58.068,338.695 
					61.937,456.97 441.218,458.055 442.477,370.044 				"/>
			</g>
			<g>
				<g>
					<g>
						<g>
							<g>
								<path style="fill:#E2822B;" d="M403.707,417.293c0,4.257-0.824,8.217-2.465,11.888c-1.644,3.677-3.842,6.886-6.596,9.641
									c-2.754,2.754-5.97,4.929-9.641,6.524c-3.674,1.595-7.588,2.392-11.743,2.392c-4.254,0-8.217-0.797-11.888-2.392
									c-3.674-1.595-6.886-3.769-9.641-6.524c-2.754-2.754-4.929-5.964-6.524-9.641c-1.595-3.67-2.392-7.631-2.392-11.888
									c0-4.151,0.797-8.118,2.392-11.888c1.595-3.769,3.769-7.031,6.524-9.786c2.754-2.754,5.967-4.949,9.641-6.596
									c3.671-1.641,7.634-2.465,11.888-2.465c4.155,0,8.069,0.824,11.743,2.465c3.671,1.647,6.886,3.842,9.641,6.596
									c2.754,2.754,4.952,6.016,6.596,9.786C402.883,409.174,403.707,413.141,403.707,417.293z"/>
							</g>
						</g>
						<g>
							<path style="fill:#FFFFFF;" d="M403.707,410.43c0,4.257-0.824,8.217-2.465,11.888c-1.644,3.677-3.842,6.886-6.596,9.641
								c-2.754,2.754-5.97,4.929-9.641,6.524c-3.674,1.595-7.588,2.392-11.743,2.392c-4.254,0-8.217-0.797-11.888-2.392
								c-3.674-1.595-6.886-3.769-9.641-6.524c-2.754-2.754-4.929-5.964-6.524-9.641c-1.595-3.67-2.392-7.631-2.392-11.888
								c0-4.151,0.797-8.118,2.392-11.888c1.595-3.769,3.769-7.031,6.524-9.785c2.754-2.755,5.967-4.949,9.641-6.596
								c3.671-1.641,7.634-2.465,11.888-2.465c4.155,0,8.069,0.824,11.743,2.465c3.671,1.647,6.886,3.842,9.641,6.596
								c2.754,2.754,4.952,6.016,6.596,9.785C402.883,402.312,403.707,406.279,403.707,410.43z"/>
						</g>
					</g>
					<rect x="345.453" y="395.753" style="fill:none;" width="55.619" height="42.092"/>
					
						<text transform="matrix(1 0 0 1 361.0768 427.4066)" style="fill:#E2822B; font-family:'LuckiestGuy-Regular'; font-size:46.174px;">3</text>
				</g>
				<g>
					<g>
						<g>
							<g>
								<path style="fill:#E2822B;" d="M154.666,388.816c0,4.257-0.824,8.217-2.464,11.888c-1.644,3.677-3.842,6.886-6.596,9.641
									c-2.755,2.754-5.97,4.929-9.641,6.524c-3.674,1.595-7.588,2.392-11.743,2.392c-4.253,0-8.217-0.797-11.888-2.392
									c-3.674-1.595-6.886-3.769-9.641-6.524c-2.755-2.754-4.929-5.964-6.524-9.641c-1.595-3.67-2.392-7.631-2.392-11.888
									c0-4.151,0.797-8.118,2.392-11.888c1.595-3.769,3.769-7.031,6.524-9.786c2.755-2.754,5.967-4.949,9.641-6.596
									c3.67-1.641,7.634-2.465,11.888-2.465c4.155,0,8.069,0.824,11.743,2.465c3.67,1.647,6.886,3.842,9.641,6.596
									c2.754,2.754,4.952,6.016,6.596,9.786C153.842,380.697,154.666,384.664,154.666,388.816z"/>
							</g>
						</g>
						<g>
							<path style="fill:#FFFFFF;" d="M154.666,381.953c0,4.257-0.824,8.217-2.464,11.888c-1.644,3.677-3.842,6.886-6.596,9.641
								c-2.755,2.754-5.97,4.929-9.641,6.524c-3.674,1.595-7.588,2.392-11.743,2.392c-4.253,0-8.217-0.797-11.888-2.392
								c-3.674-1.595-6.886-3.769-9.641-6.524c-2.755-2.754-4.929-5.964-6.524-9.641c-1.595-3.67-2.392-7.631-2.392-11.888
								c0-4.151,0.797-8.118,2.392-11.888c1.595-3.769,3.769-7.031,6.524-9.785c2.755-2.755,5.967-4.949,9.641-6.596
								c3.67-1.641,7.634-2.465,11.888-2.465c4.155,0,8.069,0.824,11.743,2.465c3.67,1.647,6.886,3.842,9.641,6.596
								c2.754,2.754,4.952,6.016,6.596,9.785C153.842,373.834,154.666,377.801,154.666,381.953z"/>
						</g>
					</g>
					<rect x="96.413" y="367.276" style="fill:none;" width="55.619" height="42.092"/>
					
						<text transform="matrix(1 0 0 1 112.464 398.929)" style="fill:#E2822B; font-family:'LuckiestGuy-Regular'; font-size:46.174px;">2</text>
				</g>
				<g>
					<g>
						<g>
							<g>
								<path style="fill:#E2822B;" d="M283.53,329.348c0,4.257-0.824,8.217-2.464,11.888c-1.644,3.677-3.842,6.886-6.596,9.641
									c-2.754,2.755-5.97,4.929-9.641,6.524c-3.674,1.595-7.588,2.392-11.743,2.392c-4.254,0-8.217-0.797-11.888-2.392
									c-3.674-1.595-6.886-3.769-9.641-6.524c-2.755-2.754-4.929-5.964-6.524-9.641c-1.595-3.67-2.392-7.631-2.392-11.888
									c0-4.152,0.797-8.118,2.392-11.888c1.595-3.769,3.769-7.031,6.524-9.786c2.755-2.754,5.967-4.949,9.641-6.596
									c3.67-1.641,7.634-2.465,11.888-2.465c4.155,0,8.069,0.824,11.743,2.465c3.67,1.647,6.886,3.842,9.641,6.596
									c2.755,2.755,4.952,6.016,6.596,9.786C282.707,321.23,283.53,325.197,283.53,329.348z"/>
							</g>
						</g>
						<g>
							<path style="fill:#FFFFFF;" d="M283.53,322.485c0,4.257-0.824,8.217-2.464,11.888c-1.644,3.677-3.842,6.886-6.596,9.641
								c-2.754,2.754-5.97,4.929-9.641,6.524c-3.674,1.595-7.588,2.392-11.743,2.392c-4.254,0-8.217-0.797-11.888-2.392
								c-3.674-1.595-6.886-3.769-9.641-6.524c-2.755-2.755-4.929-5.964-6.524-9.641c-1.595-3.67-2.392-7.631-2.392-11.888
								c0-4.152,0.797-8.118,2.392-11.888c1.595-3.769,3.769-7.031,6.524-9.786c2.755-2.754,5.967-4.949,9.641-6.596
								c3.67-1.641,7.634-2.465,11.888-2.465c4.155,0,8.069,0.824,11.743,2.465c3.67,1.647,6.886,3.842,9.641,6.596
								c2.755,2.754,4.952,6.016,6.596,9.786C282.707,314.367,283.53,318.334,283.53,322.485z"/>
						</g>
					</g>
					<rect x="225.277" y="307.808" style="fill:none;" width="55.619" height="42.092"/>
					
						<text transform="matrix(1 0 0 1 244.1241 339.4622)" style="fill:#E2822B; font-family:'LuckiestGuy-Regular'; font-size:46.174px;">1</text>
				</g>
			</g>
		</g>
	</g>
	<g>
		<g>
			<g>
				<g>
					<g>
						<path style="fill:#FFB199;" d="M354.495,279.199c0,0-14.533,42.298-17.787,70.281l21.908,9.544
							c0,0,14.533-34.706,19.739-62.472C383.561,268.787,354.495,279.199,354.495,279.199z"/>
						<path style="opacity:0.5;fill:#FF8255;" d="M361.636,323.714c3.05,0.675,6.117,1.217,9.195,1.667
							c2.958-9.336,5.771-19.475,7.524-28.828c5.206-27.765-23.861-17.353-23.861-17.353s-5.971,17.38-11.116,37.228
							C348.779,319.951,354.781,322.196,361.636,323.714z"/>
					</g>
					<g>
						<g>
							<path style="fill:#FFFFFF;" d="M335.623,350.781l3.905-21.691c0,0,12.798,2.82,27.331,9.544l-8.677,22.776L335.623,350.781z"
								/>
							<g>
								<defs>
									<path id="SVGID_1_" d="M335.623,350.781l3.905-21.691c0,0,12.798,2.82,27.331,9.544l-8.677,22.776L335.623,350.781z"/>
								</defs>
								<clipPath id="SVGID_00000051366155187007559710000013991866425780449171_">
									<use xlink:href="#SVGID_1_"  style="overflow:visible;"/>
								</clipPath>
								<g style="clip-path:url(#SVGID_00000051366155187007559710000013991866425780449171_);">
									<path style="fill:none;stroke:#22689E;stroke-width:0.8677;stroke-miterlimit:10;" d="M334.964,332.506
										c0,0,19.003,3.206,32.553,11.607"/>
									<path style="fill:none;stroke:#22689E;stroke-width:0.8677;stroke-miterlimit:10;" d="M334.747,335.325
										c0,0,19.003,3.207,32.553,11.607"/>
								</g>
							</g>
						</g>
						<g>
							<g>
								<path style="fill:#003154;" d="M344.517,353.384l2.169-3.688l-11.28-5.206l-1.293,5.43
									c-3.555,1.927-11.232,6.816-9.553,12.357c2.169,7.158,30.585,3.471,36.008-2.386l0.651-5.423L344.517,353.384z"/>
								<g>
									<path style="fill:#FFFFFF;" d="M324.568,359.774c-0.036-0.12-0.063-0.24-0.091-0.359c-0.213,0.926-0.213,1.884,0.083,2.863
										c2.169,7.158,30.585,3.471,36.008-2.386l0.217-1.808C353.572,363.655,326.705,366.828,324.568,359.774z"/>
								</g>
							</g>
							<g>
								<path style="fill:none;stroke:#FFFFFF;stroke-width:1.7353;stroke-linecap:round;stroke-miterlimit:10;" d="
									M333.526,349.986c0,0,5.134,1.085,8.243,4.844"/>
								<path style="fill:none;stroke:#FFFFFF;stroke-width:1.7353;stroke-linecap:round;stroke-miterlimit:10;" d="
									M330.417,351.794c0,0,5.134,1.085,8.243,4.844"/>
							</g>
						</g>
					</g>
				</g>
				<g>
					<g>
						<path style="fill:#FFB199;" d="M401.735,279.199c0,0,14.533,42.298,17.787,70.281l-21.909,9.544
							c0,0-14.534-34.706-19.739-62.472C372.668,268.787,401.735,279.199,401.735,279.199z"/>
						<path style="opacity:0.5;fill:#FF8255;" d="M394.593,323.714c-3.05,0.675-6.117,1.217-9.194,1.667
							c-2.958-9.336-5.771-19.475-7.524-28.828c-5.206-27.765,23.861-17.353,23.861-17.353s5.971,17.38,11.116,37.228
							C407.451,319.951,401.449,322.196,394.593,323.714z"/>
					</g>
					<g>
						<g>
							<path style="fill:#FFFFFF;" d="M420.606,350.781l-3.904-21.691c0,0-12.798,2.82-27.331,9.544l8.676,22.776L420.606,350.781z"
								/>
							<g>
								<defs>
									<path id="SVGID_00000116213401043362737210000000696372513716823988_" d="M420.606,350.781l-3.904-21.691
										c0,0-12.798,2.82-27.331,9.544l8.676,22.776L420.606,350.781z"/>
								</defs>
								<clipPath id="SVGID_00000109718863889302296290000009693939147065343410_">
									<use xlink:href="#SVGID_00000116213401043362737210000000696372513716823988_"  style="overflow:visible;"/>
								</clipPath>
								<g style="clip-path:url(#SVGID_00000109718863889302296290000009693939147065343410_);">
									<path style="fill:none;stroke:#22689E;stroke-width:0.8677;stroke-miterlimit:10;" d="M421.265,332.506
										c0,0-19.003,3.206-32.553,11.607"/>
									<path style="fill:none;stroke:#22689E;stroke-width:0.8677;stroke-miterlimit:10;" d="M421.482,335.325
										c0,0-19.003,3.207-32.553,11.607"/>
								</g>
							</g>
						</g>
						<g>
							<g>
								<path style="fill:#003154;" d="M411.713,353.384l-2.169-3.688l11.28-5.206l1.293,5.43
									c3.555,1.927,11.232,6.816,9.553,12.357c-2.169,7.158-30.585,3.471-36.008-2.386l-0.651-5.423L411.713,353.384z"/>
								<g>
									<path style="fill:#FFFFFF;" d="M431.662,359.774c0.036-0.12,0.063-0.24,0.091-0.359c0.213,0.926,0.213,1.884-0.083,2.863
										c-2.169,7.158-30.585,3.471-36.008-2.386l-0.217-1.808C402.658,363.655,429.525,366.828,431.662,359.774z"/>
								</g>
							</g>
							<g>
								<path style="fill:none;stroke:#FFFFFF;stroke-width:1.7353;stroke-linecap:round;stroke-miterlimit:10;" d="
									M422.703,349.986c0,0-5.134,1.085-8.243,4.844"/>
								<path style="fill:none;stroke:#FFFFFF;stroke-width:1.7353;stroke-linecap:round;stroke-miterlimit:10;" d="
									M425.813,351.794c0,0-5.134,1.085-8.243,4.844"/>
							</g>
						</g>
					</g>
				</g>
			</g>
			<g>
				<g>
					<path style="fill:#FF5757;" d="M404.052,282.019l-22.455-0.165l0-0.052l-3.568,0.026l-3.568-0.026l0,0.052l-22.455,0.165
						l-9.444,29.934c0,0,12.382,8.026,31.478,10.195l2.308-9.544h3.358l2.308,9.544c19.097-2.169,31.478-10.195,31.478-10.195
						L404.052,282.019z"/>
					<g>
						<defs>
							<path id="SVGID_00000090990037940974844630000015132762058934885551_" d="M404.052,282.019l-22.455-0.165l0-0.052
								l-3.568,0.026l-3.568-0.026l0,0.052l-22.455,0.165l-9.444,29.934c0,0,12.382,8.026,31.478,10.195l2.308-9.544h3.358
								l2.308,9.544c19.097-2.169,31.478-10.195,31.478-10.195L404.052,282.019z"/>
						</defs>
						<clipPath id="SVGID_00000035522082742263131240000001570837097722021564_">
							<use xlink:href="#SVGID_00000090990037940974844630000015132762058934885551_"  style="overflow:visible;"/>
						</clipPath>
						<g style="clip-path:url(#SVGID_00000035522082742263131240000001570837097722021564_);">
							
								<line style="fill:none;stroke:#FFFFFF;stroke-width:0.8677;stroke-miterlimit:10;" x1="354.061" y1="283.321" x2="344.733" y2="315.207"/>
							
								<line style="fill:none;stroke:#FFFFFF;stroke-width:0.8677;stroke-miterlimit:10;" x1="356.013" y1="283.538" x2="346.686" y2="315.424"/>
						</g>
						<g style="clip-path:url(#SVGID_00000035522082742263131240000001570837097722021564_);">
							
								<line style="fill:none;stroke:#FFFFFF;stroke-width:0.8677;stroke-miterlimit:10;" x1="400.494" y1="284.327" x2="409.989" y2="316.164"/>
							
								<line style="fill:none;stroke:#FFFFFF;stroke-width:0.8677;stroke-miterlimit:10;" x1="402.251" y1="283.448" x2="411.746" y2="315.286"/>
						</g>
					</g>
				</g>
				<path style="opacity:0.2;fill:#003154;" d="M350.527,286.714c3.189,1.542,6.478,2.841,9.887,3.837
					c7.989,2.335,16.156,3.779,24.5,3.804c7.549,0.022,14.991-0.823,22.267-2.42l-3.128-9.915l-22.455-0.165l0-0.052l-3.568,0.026
					l-3.568-0.026l0,0.052l-22.455,0.165L350.527,286.714z"/>
			</g>
		</g>
		<g>
			<g>
				<path style="fill:#FFB199;" d="M428.839,251.434c-2.603-12.147-40.491-12.147-40.491-12.147v-7.52l-9.301,2.448l-9.301-2.448
					v7.52c0,0-37.888,0-40.491,12.147c-2.603,12.147,18.824,36.149,23.939,31.887c6.508-5.423-4.772-22.993-4.772-22.993
					l30.802-1.518l30.151,1.518c0,0-10.846,15.401-4.772,22.559C408.91,287.964,431.442,263.581,428.839,251.434z"/>
				<g>
					<g>
						<path style="opacity:0.5;fill:#FF8255;" d="M368.524,255.887c-3.1-5.206-5.472-10.939-8.549-16.161
							c-2.495,0.194-5.281,0.474-8.135,0.878c1.285,6.48,2.515,12.967,4.125,19.352l14.631-0.721
							C369.891,258.128,369.195,257.015,368.524,255.887z"/>
						<path style="opacity:0.5;fill:#FF8255;" d="M404.862,240.415c-2.69-0.347-5.285-0.587-7.592-0.753
							c0.027,6.694-0.007,13.387-0.659,20.023l6.119,0.308C404.283,253.564,405.256,247.044,404.862,240.415z"/>
					</g>
					<path style="opacity:0.5;fill:#FF8255;" d="M388.348,238.363v-6.596l-9.301,2.448l-9.301-2.448v6.953
						C375.921,238.918,382.322,239.321,388.348,238.363z"/>
				</g>
			</g>
			<g>
				<g>
					<path style="fill:#003154;" d="M404.819,283.755l-5.423-44.251l-5.206-0.217c0.525,10.842-10.224,11.933-14.412,12.286
						c-4.68-0.353-16.697-1.444-16.173-12.286l-5.206,0.217l-6.074,44.468c0,0,11.063,4.989,27.114,5.423
						C395.709,289.394,404.819,283.755,404.819,283.755z"/>
					<g>
						<path style="fill:#FFB199;" d="M406.771,273.343c0,0-1.085-7.809-5.423-7.592c-4.338,0.217-11.93,9.978,0,3.904
							c0,0-16.485,10.629,0.434,4.772c0,0-12.364,9.544,0.868,4.121c0,0,1.518,8.46,5.423,3.904
							C411.977,277.898,406.771,273.343,406.771,273.343z"/>
						<path style="fill:#FFB199;" d="M351.132,273.56c0,0,1.085-7.809,5.423-7.592c4.338,0.217,11.93,9.978,0,3.905
							c0,0,16.486,10.629-0.434,4.772c0,0,12.364,9.544-0.868,4.121c0,0-1.518,8.46-5.423,3.905
							C345.926,278.115,351.132,273.56,351.132,273.56z"/>
					</g>
				</g>
				<g>
					<g>
						<g>
							<polygon style="fill:#FF5757;" points="361.887,238.998 372.21,268.089 377.304,265.676 367.786,238.998 							"/>
							<polygon style="fill:#FFFFFF;" points="363.924,238.998 373.836,267.319 375.298,266.626 365.628,238.998 							"/>
						</g>
						<g>
							<polygon style="fill:#FF5757;" points="395.402,238.998 385.08,268.089 379.985,265.676 389.504,238.998 							"/>
							<polygon style="fill:#FFFFFF;" points="393.366,238.998 383.453,267.319 381.991,266.626 391.661,238.998 							"/>
						</g>
					</g>
					<g>
						
							<ellipse transform="matrix(0.9861 -0.1661 0.1661 0.9861 -40.0574 66.6641)" style="fill:#FF8255;" cx="378.578" cy="272.848" rx="10.256" ry="10.256"/>
						<circle style="fill:#EF683F;" cx="378.578" cy="272.748" r="7.139"/>
					</g>
				</g>
			</g>
		</g>
		<g>
			<g>
				<g>
					<path style="fill:#22689E;" d="M408.92,178.622c0,0-7.051-17.849,15.464-21.223l-1.527,7.937l5.274-3.093
						C428.13,162.243,429.153,185.742,408.92,178.622z"/>
					<path style="fill:#FF5757;" d="M401.311,179.974c-0.364,3.353,2.058,6.366,5.411,6.731c3.353,0.365,6.367-2.058,6.731-5.411
						c0.365-3.353-2.058-6.366-5.411-6.731S401.676,176.621,401.311,179.974z"/>
				</g>
				<g>
					<path style="fill:#22689E;" d="M408.234,184.105c0,0-6.45-25.426-38.458-21.995c-28.377,3.042-25.139,34.891-25.139,34.891
						s4.161-15.672,12.38-19.232c0,0-17.949,16.784-5.807,32.232C363.351,225.45,408.234,184.105,408.234,184.105z"/>
					<path style="fill:#FFB199;" d="M378.966,177.64c0,0,35.05,5.532,29.946,35.759c-5.104,30.228-41.32,27.246-54.968,12.27
						C339.611,209.941,349.791,175.932,378.966,177.64z"/>
				</g>
				<g>
					<path style="fill:#FFB199;" d="M409.019,207.621c0,0,2.929-5.544,10.105-0.335c7.176,5.209-4.471,24.301-11.858,16.002
						C399.878,214.989,409.019,207.621,409.019,207.621z"/>
					<path style="fill:#22689E;" d="M414.321,205.805c0,0-6.457,0.066-8.384,12.142c0,0-4.797-3.9-1.462-11.984
						c0,0-11.888-7.896-2.138-19.889s23.79,5.271,16.786,21.212C419.124,207.286,416.545,205.126,414.321,205.805z"/>
				</g>
			</g>
			<g>
				<path style="fill:#003154;" d="M362.652,198.936c-0.817,2.394-2.32,4.047-3.358,3.693c-1.037-0.354-1.216-2.582-0.399-4.976
					c0.817-2.394,2.32-4.048,3.358-3.693C363.291,194.315,363.47,196.542,362.652,198.936z"/>
				<path style="fill:#003154;" d="M388.058,205.384c-0.817,2.394-2.321,4.047-3.358,3.693s-1.216-2.582-0.399-4.976
					c0.817-2.394,2.321-4.047,3.358-3.693C388.697,200.762,388.875,202.99,388.058,205.384z"/>
				<path style="fill:#FFFFFF;" d="M358.006,208.437l27.521,6.332C385.527,214.769,368.046,228.878,358.006,208.437z"/>
			</g>
		</g>
	</g>
	<g>
		<g>
			<g>
				<g>
					<g>
						<path style="fill:#A53434;" d="M101.012,246.31c0,0-14.533,42.298-17.787,70.281l21.908,9.544
							c0,0,14.533-34.706,19.739-62.472C130.078,235.898,101.012,246.31,101.012,246.31z"/>
						<path style="fill:#8E2424;" d="M108.153,290.824c3.05,0.675,6.117,1.217,9.195,1.667c2.958-9.336,5.771-19.475,7.524-28.828
							c5.206-27.765-23.861-17.353-23.861-17.353s-5.971,17.38-11.116,37.228C95.296,287.061,101.298,289.306,108.153,290.824z"/>
					</g>
					<g>
						<g>
							<path style="fill:#FFFFFF;" d="M82.14,317.892l3.904-21.692c0,0,12.798,2.82,27.331,9.544l-8.677,22.776L82.14,317.892z"/>
							<g>
								<defs>
									<path id="SVGID_00000146487559282162267040000009055571770174432398_" d="M82.14,317.892l3.904-21.692
										c0,0,12.798,2.82,27.331,9.544l-8.677,22.776L82.14,317.892z"/>
								</defs>
								<clipPath id="SVGID_00000041262058522796498560000002953968522361368206_">
									<use xlink:href="#SVGID_00000146487559282162267040000009055571770174432398_"  style="overflow:visible;"/>
								</clipPath>
								<g style="clip-path:url(#SVGID_00000041262058522796498560000002953968522361368206_);">
									<path style="fill:none;stroke:#22689E;stroke-width:0.8677;stroke-miterlimit:10;" d="M81.481,299.616
										c0,0,19.003,3.207,32.553,11.607"/>
									<path style="fill:none;stroke:#22689E;stroke-width:0.8677;stroke-miterlimit:10;" d="M81.264,302.436
										c0,0,19.003,3.206,32.553,11.607"/>
								</g>
							</g>
						</g>
						<g>
							<g>
								<path style="fill:#FF5757;" d="M91.034,320.495l2.169-3.688l-11.28-5.206l-1.293,5.43
									c-3.555,1.927-11.232,6.816-9.553,12.357c2.169,7.158,30.585,3.471,36.008-2.386l0.651-5.423L91.034,320.495z"/>
								<g>
									<path style="fill:#FFFFFF;" d="M71.084,326.884c-0.036-0.12-0.062-0.24-0.09-0.359c-0.213,0.926-0.213,1.884,0.083,2.863
										c2.169,7.158,30.585,3.471,36.008-2.386l0.217-1.808C100.089,330.765,73.222,333.938,71.084,326.884z"/>
								</g>
							</g>
							<g>
								<path style="fill:none;stroke:#FFFFFF;stroke-width:1.7353;stroke-linecap:round;stroke-miterlimit:10;" d="M80.043,317.097
									c0,0,5.134,1.085,8.243,4.845"/>
								<path style="fill:none;stroke:#FFFFFF;stroke-width:1.7353;stroke-linecap:round;stroke-miterlimit:10;" d="M76.934,318.904
									c0,0,5.134,1.085,8.243,4.845"/>
							</g>
						</g>
					</g>
				</g>
				<g>
					<g>
						<path style="fill:#A53434;" d="M148.252,246.31c0,0,14.533,42.298,17.787,70.281l-21.908,9.544
							c0,0-14.533-34.706-19.739-62.472C119.185,235.898,148.252,246.31,148.252,246.31z"/>
						<path style="fill:#8E2424;" d="M141.11,290.824c-3.05,0.675-6.117,1.217-9.195,1.667c-2.958-9.336-5.771-19.475-7.524-28.828
							c-5.206-27.765,23.861-17.353,23.861-17.353s5.971,17.38,11.116,37.228C153.968,287.061,147.966,289.306,141.11,290.824z"/>
					</g>
					<g>
						<g>
							<path style="fill:#FFFFFF;" d="M167.123,317.892l-3.905-21.692c0,0-12.798,2.82-27.331,9.544l8.677,22.776L167.123,317.892z"
								/>
							<g>
								<defs>
									<path id="SVGID_00000081627872658674731590000014409449663828174015_" d="M167.123,317.892l-3.905-21.692
										c0,0-12.798,2.82-27.331,9.544l8.677,22.776L167.123,317.892z"/>
								</defs>
								<clipPath id="SVGID_00000023977286859043847060000011159125270706514824_">
									<use xlink:href="#SVGID_00000081627872658674731590000014409449663828174015_"  style="overflow:visible;"/>
								</clipPath>
								<g style="clip-path:url(#SVGID_00000023977286859043847060000011159125270706514824_);">
									<path style="fill:none;stroke:#22689E;stroke-width:0.8677;stroke-miterlimit:10;" d="M167.782,299.616
										c0,0-19.003,3.207-32.553,11.607"/>
									<path style="fill:none;stroke:#22689E;stroke-width:0.8677;stroke-miterlimit:10;" d="M167.999,302.436
										c0,0-19.003,3.206-32.553,11.607"/>
								</g>
							</g>
						</g>
						<g>
							<g>
								<path style="fill:#FF5757;" d="M158.23,320.495l-2.169-3.688l11.28-5.206l1.293,5.43c3.555,1.927,11.232,6.816,9.553,12.357
									c-2.169,7.158-30.585,3.471-36.008-2.386l-0.651-5.423L158.23,320.495z"/>
								<g>
									<path style="fill:#FFFFFF;" d="M178.179,326.884c0.036-0.12,0.063-0.24,0.09-0.359c0.213,0.926,0.213,1.884-0.083,2.863
										c-2.169,7.158-30.585,3.471-36.008-2.386l-0.217-1.808C149.174,330.765,176.041,333.938,178.179,326.884z"/>
								</g>
							</g>
							<g>
								<path style="fill:none;stroke:#FFFFFF;stroke-width:1.7353;stroke-linecap:round;stroke-miterlimit:10;" d="M169.22,317.097
									c0,0-5.134,1.085-8.243,4.845"/>
								<path style="fill:none;stroke:#FFFFFF;stroke-width:1.7353;stroke-linecap:round;stroke-miterlimit:10;" d="
									M172.329,318.904c0,0-5.134,1.085-8.243,4.845"/>
							</g>
						</g>
					</g>
				</g>
			</g>
			<g>
				<g>
					<path style="fill:#FFFFFF;" d="M150.569,249.13l-22.455-0.165l0-0.052l-3.568,0.026l-3.568-0.026l0,0.052l-22.455,0.165
						l-9.443,29.934c0,0,12.381,8.026,31.478,10.195l2.308-9.544h3.358l2.308,9.544c19.097-2.169,31.479-10.195,31.479-10.195
						L150.569,249.13z"/>
					<g>
						<defs>
							<path id="SVGID_00000006682998625276572970000004561833441027635100_" d="M150.569,249.13l-22.455-0.165l0-0.052
								l-3.568,0.026l-3.568-0.026l0,0.052l-22.455,0.165l-9.443,29.934c0,0,12.381,8.026,31.478,10.195l2.308-9.544h3.358
								l2.308,9.544c19.097-2.169,31.479-10.195,31.479-10.195L150.569,249.13z"/>
						</defs>
						<clipPath id="SVGID_00000127723809019500984560000002292070628695613341_">
							<use xlink:href="#SVGID_00000006682998625276572970000004561833441027635100_"  style="overflow:visible;"/>
						</clipPath>
						<g style="clip-path:url(#SVGID_00000127723809019500984560000002292070628695613341_);">
							
								<line style="fill:none;stroke:#FF5757;stroke-width:0.8677;stroke-miterlimit:10;" x1="100.578" y1="250.431" x2="91.25" y2="282.318"/>
							
								<line style="fill:none;stroke:#FF5757;stroke-width:0.8677;stroke-miterlimit:10;" x1="102.53" y1="250.648" x2="93.203" y2="282.535"/>
						</g>
						<g style="clip-path:url(#SVGID_00000127723809019500984560000002292070628695613341_);">
							
								<line style="fill:none;stroke:#FF5757;stroke-width:0.8677;stroke-miterlimit:10;" x1="147.011" y1="251.438" x2="156.506" y2="283.275"/>
							
								<line style="fill:none;stroke:#FF5757;stroke-width:0.8677;stroke-miterlimit:10;" x1="148.768" y1="250.559" x2="158.263" y2="282.396"/>
						</g>
					</g>
				</g>
				<path style="opacity:0.3;fill:#003154;" d="M97.044,253.825c3.189,1.542,6.478,2.841,9.887,3.837
					c7.989,2.335,16.156,3.779,24.5,3.804c7.549,0.022,14.991-0.823,22.266-2.42l-3.128-9.915l-22.455-0.165l0-0.052l-3.568,0.026
					l-3.568-0.026l0,0.052l-22.455,0.165L97.044,253.825z"/>
			</g>
		</g>
		<g>
			<g>
				<g>
					<g>
						<g>
							<path style="fill:#A53434;" d="M140.757,225.452c0,0,21.874,6.799,29.855,4.434c7.981-2.365,9.163-26.603,9.163-26.603
								s6.444,1.715,5.262-4.788c0,0,5.025,0.296,0.887-4.138c0,0,4.089-1.635-0.887-4.434c-4.729-2.66-10.583-6.74-14.721,0.65
								c-3.875,6.92-8.868,18.918-8.868,18.918s-24.238-7.39-26.603,2.66C132.481,222.201,140.757,225.452,140.757,225.452z"/>
							<path style="fill:#A53434;" d="M160.068,212.408c0,0,14.091-33.363,18.525-33.068c4.434,0.296-1.773,13.597-1.773,13.597
								L160.068,212.408z"/>
						</g>
						<g>
							<path style="fill:#8E2424;" d="M182.988,189.363c-1.177-0.4-2.387-0.724-3.607-0.84c-0.606-0.05-1.226-0.05-1.782,0.11
								c-0.559,0.147-1.018,0.489-1.181,1.003l-0.052,0.196l-0.013,0.049l-0.003,0.012c0.009-0.052,0.002-0.006,0.003-0.014
								l-0.002,0.029l-0.009,0.116c0.014,0.086,0.027,0.182,0.09,0.297c0.108,0.218,0.301,0.426,0.518,0.611
								c0.439,0.372,0.967,0.674,1.506,0.946c1.086,0.532,2.233,1.004,3.388,1.376l-0.319,0.787
								c-1.032-0.475-2.141-0.883-3.24-1.107c-0.548-0.109-1.107-0.166-1.604-0.099c-0.503,0.067-0.864,0.268-1.011,0.663
								c-0.045,0.085-0.065,0.23-0.086,0.306c-0.019,0.153-0.031,0.297-0.024,0.388c0.007,0.225,0.058,0.465,0.156,0.679
								c0.192,0.436,0.578,0.806,1.026,1.101c0.906,0.587,2.049,0.929,3.144,1.114l-0.144,0.792
								c-1.017-0.214-2.142-0.336-3.134-0.092c-0.492,0.123-0.942,0.36-1.221,0.742c-0.142,0.188-0.236,0.415-0.293,0.655
								c-0.019,0.075-0.026,0.098-0.033,0.174c-0.005,0.064-0.025,0.151-0.016,0.196c-0.002,0.103,0.012,0.215,0.037,0.333
								c0.118,0.455,0.476,0.854,0.905,1.163c0.43,0.312,0.927,0.555,1.438,0.755c1.028,0.397,2.116,0.66,3.215,0.849
								c-1.115-0.067-2.229-0.244-3.311-0.576c-0.54-0.167-1.075-0.377-1.574-0.684c-0.493-0.298-0.975-0.742-1.169-1.372
								c-0.041-0.155-0.072-0.317-0.074-0.494c-0.008-0.095,0.006-0.146,0.008-0.221c0.001-0.063,0.017-0.178,0.033-0.238
								c0.056-0.303,0.166-0.611,0.348-0.878c0.361-0.547,0.951-0.878,1.526-1.049c0.582-0.175,1.175-0.227,1.758-0.227
								c0.587,0.006,1.153,0.053,1.742,0.179l-0.144,0.792c-0.627-0.089-1.209-0.228-1.8-0.416c-0.585-0.191-1.165-0.43-1.707-0.776
								c-0.535-0.343-1.061-0.803-1.364-1.45c-0.151-0.322-0.236-0.667-0.251-1.032c-0.009-0.205,0.006-0.355,0.021-0.496
								c0.036-0.213,0.059-0.364,0.136-0.549c0.128-0.354,0.389-0.693,0.717-0.902c0.326-0.213,0.683-0.315,1.021-0.364
								c0.679-0.076,1.31,0.012,1.916,0.141c1.212,0.272,2.328,0.708,3.432,1.238l-0.319,0.787
								c-1.202-0.425-2.371-0.886-3.484-1.522c-0.553-0.32-1.098-0.669-1.586-1.13c-0.24-0.233-0.474-0.497-0.626-0.846
								c-0.077-0.164-0.122-0.381-0.113-0.604l0.016-0.116l0.004-0.029l0.007-0.043l0.005-0.016l0.019-0.063l0.081-0.252
								c0.25-0.691,0.939-1.142,1.587-1.256c0.658-0.133,1.305-0.077,1.93,0.02C180.67,188.421,181.859,188.835,182.988,189.363z"/>
						</g>
					</g>
					<g>
						<g>
							<path style="fill:#A53434;" d="M134.865,198.878l-9.302,2.448l-9.301-2.448v7.52c0,0-37.888,0-40.491,12.147
								c-2.603,12.147,18.824,36.149,23.939,31.887c6.507-5.423-4.772-22.993-4.772-22.993l30.802-1.518l30.151,1.518
								c0,0,2.855-8.537,6.602-17.786c-11.887-3.253-27.628-3.255-27.628-3.255V198.878z"/>
						</g>
						<path style="fill:#8E2424;" d="M134.865,205.474v-6.596l-9.302,2.448l-9.301-2.448v6.953
							C122.438,206.028,128.839,206.431,134.865,205.474z"/>
					</g>
				</g>
				<g>
					<path style="fill:#22689E;" d="M151.336,250.865l-5.423-44.251l-5.206-0.217c0.525,10.842-10.224,11.933-14.412,12.286
						c-4.68-0.353-16.697-1.444-16.173-12.286l-5.206,0.217l-6.074,44.468c0,0,11.063,4.989,27.115,5.423
						C142.226,256.505,151.336,250.865,151.336,250.865z"/>
					<path style="fill:#A53434;" d="M97.649,240.67c0,0,1.085-7.809,5.423-7.592s11.93,9.978,0,3.904c0,0,16.485,10.629-0.434,4.772
						c0,0,12.364,9.544-0.868,4.121c0,0-1.518,8.46-5.423,3.904C92.443,245.225,97.649,240.67,97.649,240.67z"/>
				</g>
			</g>
			<g>
				<g>
					<g>
						<polygon style="fill:#FF5757;" points="108.404,206.108 118.727,235.199 123.821,232.786 114.303,206.108 						"/>
						<polygon style="fill:#FFFFFF;" points="110.441,206.108 120.353,234.429 121.815,233.736 112.145,206.108 						"/>
					</g>
					<g>
						<polygon style="fill:#FF5757;" points="141.919,206.108 131.597,235.199 126.502,232.786 136.021,206.108 						"/>
						<polygon style="fill:#FFFFFF;" points="139.883,206.108 129.97,234.429 128.508,233.736 138.178,206.108 						"/>
					</g>
				</g>
				<g>
					<circle style="fill:#B1D2E5;" cx="125.095" cy="239.959" r="10.256"/>
					<path style="fill:#86A8BF;" d="M117.956,239.858c0,3.943,3.196,7.139,7.139,7.139c3.943,0,7.139-3.196,7.139-7.139
						c0-3.943-3.196-7.139-7.139-7.139C121.152,232.719,117.956,235.915,117.956,239.858z"/>
				</g>
			</g>
		</g>
		<g>
			<g>
				<g>
					<path style="fill:#003154;" d="M168.571,156.98c0,0,19.526-9.763,11.338-19.526c-6.51-7.762-12.419-3.383-14.569-1.261
						c2.104-2.39,7.086-8.622,3.546-10.392c-4.409-2.204-8.503,7.873-8.503,7.873s4.094-13.857-0.63-13.857
						c-4.724,0-8.818,8.818-8.818,8.818s6.929-17.951-6.299-20.471c-13.227-2.519-15.117,13.542-15.117,13.542
						s-2.52-13.227-7.243-10.393c-4.724,2.834-2.834,13.227-2.834,13.227s-5.669-21.101-17.951-15.117
						c-12.282,5.984-4.094,19.526-4.094,19.526s-10.078-12.282-14.172-6.614c-4.094,5.669,9.763,14.802,9.763,14.802
						s-14.802-7.243-20.156,8.503c-2.435,7.162,0.606,11.778,4.642,14.688c-3.413,2.207-6.607,5.975-4.957,12.082
						c3.149,11.653,30.863,5.669,30.863,5.669l-1.27-1.332c14.447-3.32,44.563-8.836,53.549,0.387
						c11.967,12.282,24.88-1.89,22.99-8.818c-1.89-6.928-7.873-5.354-7.873-5.354s11.652-5.039,8.818-7.558
						C176.759,152.886,168.571,156.98,168.571,156.98z"/>
					<g>
						<g>
							<path style="fill:#8E2424;" d="M96.642,166.774c0,0-2.892-5.784-10.412-0.578c-7.52,5.206,4.049,25.162,11.858,16.775
								C105.897,174.583,96.642,166.774,96.642,166.774z"/>
							<path style="fill:#003154;" d="M90.153,159.814c0,0-3.779,16.691,5.984,18.896s1.89-18.581,1.89-18.581L90.153,159.814z"/>
						</g>
						<g>
							<path style="fill:#8E2424;" d="M156.136,167.609c0,0,2.185-6.087,10.27-1.81c8.084,4.277-1.034,25.465-9.783,18.064
								C147.873,176.461,156.136,167.609,156.136,167.609z"/>
							<path style="fill:#003154;" d="M163.608,159.814c0,0,3.779,16.691-5.984,18.896c-9.763,2.204-1.89-18.581-1.89-18.581
								L163.608,159.814z"/>
						</g>
					</g>
				</g>
				<g>
					<path style="fill:#A53434;" d="M122.782,143.636c0,0,38.756,0.555,37.888,32.163c-0.868,31.608-40.491,33.827-57.555,20.518
						C85.193,182.339,90.967,146.132,122.782,143.636z"/>
					<path style="fill:#FFA94D;" d="M92.987,176.821c0,0,0.91-29.889,34.643-30.233c30.863-0.315,33.068,30.548,33.068,30.548
						s3.464-40.941-32.438-41.571C87.01,134.841,92.987,176.821,92.987,176.821z"/>
				</g>
			</g>
			<g>
				<g>
					<path style="fill:#001433;" d="M106.007,166.611c0,0,0.112,0.368,0.307,1.01c0.109,0.311,0.229,0.672,0.398,1.084
						c0.157,0.412,0.376,0.857,0.617,1.32c0.243,0.464,0.552,0.935,0.897,1.392c0.345,0.458,0.743,0.901,1.197,1.275
						c0.445,0.386,0.943,0.705,1.468,0.915c0.525,0.211,1.069,0.335,1.623,0.337c-0.171,0.006-0.042,0.001-0.078,0.002l0.009-0.001
						l0.017-0.001l0.035-0.002l0.07-0.004l0.14-0.008l0.28-0.016c0.197-0.009,0.245-0.052,0.376-0.067
						c0.216-0.048,0.528-0.125,0.774-0.241c0.524-0.212,1.024-0.529,1.467-0.916c0.453-0.374,0.851-0.817,1.196-1.275
						c0.346-0.457,0.654-0.928,0.898-1.391c0.241-0.463,0.46-0.908,0.617-1.32c0.17-0.409,0.291-0.781,0.4-1.092
						c0.196-0.638,0.308-1.002,0.308-1.002s0.022,0.094,0.065,0.27c0.03,0.176,0.112,0.44,0.143,0.778
						c0.03,0.338,0.091,0.759,0.061,1.239c0,0.484-0.052,1.035-0.186,1.626c-0.118,0.596-0.311,1.238-0.617,1.886
						c-0.303,0.648-0.704,1.313-1.255,1.916c-0.535,0.611-1.213,1.179-2.031,1.57c-0.197,0.111-0.409,0.195-0.628,0.271
						c-0.216,0.081-0.425,0.162-0.691,0.208c-0.235,0.046-0.547,0.117-0.723,0.126l-0.645,0.045
						c-0.943-0.014-1.88-0.245-2.686-0.653c-0.817-0.394-1.496-0.958-2.03-1.571c-0.551-0.603-0.952-1.268-1.254-1.916
						c-0.307-0.647-0.499-1.29-0.617-1.885c-0.135-0.59-0.185-1.142-0.187-1.625c-0.03-0.477,0.03-0.909,0.06-1.247
						c0.031-0.337,0.113-0.591,0.143-0.769C105.984,166.705,106.007,166.611,106.007,166.611z"/>
				</g>
				<g>
					<path style="fill:#001433;" d="M136.086,166.611c0,0,0.112,0.368,0.307,1.01c0.109,0.311,0.229,0.672,0.398,1.084
						c0.157,0.412,0.376,0.857,0.617,1.32c0.243,0.464,0.552,0.935,0.897,1.392c0.345,0.458,0.743,0.901,1.197,1.275
						c0.445,0.386,0.943,0.705,1.468,0.915c0.257,0.12,0.532,0.187,0.801,0.246c0.137,0.018,0.27,0.066,0.409,0.067l0.207,0.01
						l0.103,0.006l0.052,0.003l0.026,0.002l0.013,0.001l0.007,0.001c-0.037,0.001,0.091-0.003-0.081,0.003l0.559-0.033
						c0.197-0.009,0.245-0.052,0.376-0.067c0.216-0.048,0.528-0.125,0.774-0.241c0.524-0.212,1.024-0.529,1.467-0.916
						c0.453-0.374,0.851-0.817,1.196-1.275c0.346-0.457,0.654-0.928,0.898-1.391c0.241-0.463,0.46-0.908,0.617-1.32
						c0.17-0.409,0.291-0.781,0.4-1.092c0.196-0.638,0.308-1.002,0.308-1.002s0.022,0.094,0.065,0.27
						c0.03,0.176,0.112,0.44,0.143,0.778c0.03,0.338,0.091,0.759,0.061,1.239c0,0.484-0.051,1.035-0.186,1.626
						c-0.118,0.596-0.311,1.238-0.617,1.886c-0.303,0.648-0.704,1.313-1.255,1.916c-0.535,0.611-1.213,1.179-2.031,1.57
						c-0.197,0.111-0.409,0.195-0.628,0.271c-0.216,0.081-0.425,0.162-0.691,0.208c-0.235,0.046-0.547,0.117-0.723,0.126
						l-0.558,0.042l-0.098,0.002l-0.011-0.001l-0.022-0.001l-0.044-0.003l-0.088-0.006l-0.176-0.012l-0.352-0.028
						c-0.234-0.016-0.461-0.084-0.69-0.127c-0.232-0.039-0.448-0.123-0.664-0.203c-0.218-0.076-0.431-0.161-0.627-0.271
						c-0.817-0.394-1.496-0.958-2.03-1.571c-0.551-0.603-0.952-1.268-1.254-1.916c-0.307-0.647-0.498-1.29-0.617-1.885
						c-0.135-0.59-0.185-1.142-0.187-1.625c-0.03-0.477,0.03-0.909,0.06-1.247c0.031-0.337,0.113-0.591,0.143-0.769
						C136.063,166.705,136.086,166.611,136.086,166.611z"/>
				</g>
				<path style="fill:#FFFFFF;" d="M114.403,182.804l25.195-1.26C139.597,181.545,132.354,199.811,114.403,182.804z"/>
			</g>
		</g>
	</g>
	<g>
		<g>
			<g>
				<g>
					<g>
						<path style="fill:#FF8255;" d="M228.119,189.274c0,0-14.533,42.299-17.787,70.281l21.909,9.544
							c0,0,14.533-34.706,19.739-62.472C257.185,178.862,228.119,189.274,228.119,189.274z"/>
						<path style="fill:#EF683F;" d="M235.26,233.788c3.05,0.676,6.117,1.217,9.195,1.667c2.958-9.336,5.771-19.475,7.524-28.828
							c5.206-27.765-23.861-17.353-23.861-17.353s-5.972,17.38-11.116,37.228C222.403,230.025,228.405,232.27,235.26,233.788z"/>
					</g>
					<g>
						<g>
							<path style="fill:#FFFFFF;" d="M209.247,260.856l3.904-21.692c0,0,12.798,2.82,27.331,9.544l-8.677,22.776L209.247,260.856z"
								/>
							<g>
								<defs>
									<path id="SVGID_00000008128230079598608280000013139804029915543434_" d="M209.247,260.856l3.904-21.692
										c0,0,12.798,2.82,27.331,9.544l-8.677,22.776L209.247,260.856z"/>
								</defs>
								<clipPath id="SVGID_00000129896902047078979420000012826973252804956087_">
									<use xlink:href="#SVGID_00000008128230079598608280000013139804029915543434_"  style="overflow:visible;"/>
								</clipPath>
								<g style="clip-path:url(#SVGID_00000129896902047078979420000012826973252804956087_);">
									<path style="fill:none;stroke:#C13333;stroke-width:0.8677;stroke-miterlimit:10;" d="M208.588,242.58
										c0,0,19.003,3.207,32.553,11.607"/>
									<path style="fill:none;stroke:#C13333;stroke-width:0.8677;stroke-miterlimit:10;" d="M208.371,245.4
										c0,0,19.003,3.207,32.553,11.607"/>
								</g>
							</g>
						</g>
						<g>
							<g>
								<path style="fill:#003154;" d="M218.14,263.459l2.169-3.688l-11.28-5.206l-1.293,5.43
									c-3.555,1.927-11.232,6.816-9.553,12.357c2.169,7.158,30.585,3.471,36.008-2.386l0.651-5.423L218.14,263.459z"/>
								<g>
									<path style="fill:#22689E;" d="M198.191,269.848c-0.036-0.12-0.063-0.24-0.09-0.359c-0.213,0.926-0.213,1.884,0.083,2.863
										c2.169,7.158,30.585,3.471,36.008-2.386l0.217-1.808C227.196,273.729,200.329,276.902,198.191,269.848z"/>
								</g>
							</g>
							<g>
								<path style="fill:none;stroke:#FFFFFF;stroke-width:1.7353;stroke-linecap:round;stroke-miterlimit:10;" d="M207.15,260.06
									c0,0,5.134,1.085,8.243,4.845"/>
								<path style="fill:none;stroke:#FFFFFF;stroke-width:1.7353;stroke-linecap:round;stroke-miterlimit:10;" d="
									M204.041,261.868c0,0,5.134,1.085,8.243,4.844"/>
							</g>
						</g>
					</g>
				</g>
				<g>
					<g>
						<path style="fill:#FF8255;" d="M275.359,189.274c0,0,14.533,42.299,17.787,70.281l-21.909,9.544
							c0,0-14.534-34.706-19.739-62.472C246.292,178.862,275.359,189.274,275.359,189.274z"/>
						<path style="fill:#EF683F;" d="M268.217,233.788c-3.05,0.676-6.117,1.217-9.194,1.667c-2.958-9.336-5.771-19.475-7.524-28.828
							c-5.206-27.765,23.861-17.353,23.861-17.353s5.971,17.38,11.116,37.228C281.075,230.025,275.073,232.27,268.217,233.788z"/>
					</g>
					<g>
						<g>
							<path style="fill:#FFFFFF;" d="M294.23,260.856l-3.904-21.692c0,0-12.798,2.82-27.331,9.544l8.677,22.776L294.23,260.856z"/>
							<g>
								<defs>
									<path id="SVGID_00000085931770567821773280000006586616806723895193_" d="M294.23,260.856l-3.904-21.692
										c0,0-12.798,2.82-27.331,9.544l8.677,22.776L294.23,260.856z"/>
								</defs>
								<clipPath id="SVGID_00000140702068068573729940000009552860773895090356_">
									<use xlink:href="#SVGID_00000085931770567821773280000006586616806723895193_"  style="overflow:visible;"/>
								</clipPath>
								<g style="clip-path:url(#SVGID_00000140702068068573729940000009552860773895090356_);">
									<path style="fill:none;stroke:#C13333;stroke-width:0.8677;stroke-miterlimit:10;" d="M294.889,242.58
										c0,0-19.003,3.207-32.553,11.607"/>
									<path style="fill:none;stroke:#C13333;stroke-width:0.8677;stroke-miterlimit:10;" d="M295.106,245.4
										c0,0-19.003,3.207-32.553,11.607"/>
								</g>
							</g>
						</g>
						<g>
							<g>
								<path style="fill:#003154;" d="M285.337,263.459l-2.169-3.688l11.28-5.206l1.293,5.43
									c3.555,1.927,11.232,6.816,9.553,12.357c-2.169,7.158-30.585,3.471-36.008-2.386l-0.651-5.423L285.337,263.459z"/>
								<g>
									<path style="fill:#22689E;" d="M305.286,269.848c0.036-0.12,0.062-0.24,0.09-0.359c0.213,0.926,0.213,1.884-0.083,2.863
										c-2.169,7.158-30.585,3.471-36.008-2.386l-0.217-1.808C276.281,273.729,303.148,276.902,305.286,269.848z"/>
								</g>
							</g>
							<g>
								<path style="fill:none;stroke:#FFFFFF;stroke-width:1.7353;stroke-linecap:round;stroke-miterlimit:10;" d="M296.327,260.06
									c0,0-5.134,1.085-8.243,4.845"/>
								<path style="fill:none;stroke:#FFFFFF;stroke-width:1.7353;stroke-linecap:round;stroke-miterlimit:10;" d="
									M299.436,261.868c0,0-5.134,1.085-8.243,4.844"/>
							</g>
						</g>
					</g>
				</g>
			</g>
			<g>
				<g>
					<path style="fill:#22689E;" d="M277.676,192.094l-22.455-0.165l0-0.052l-3.568,0.026l-3.568-0.026l0,0.052l-22.455,0.165
						l-9.444,29.934c0,0,12.382,8.026,31.479,10.195l2.308-9.544h3.358l2.308,9.544c19.097-2.169,31.478-10.195,31.478-10.195
						L277.676,192.094z"/>
					<g>
						<defs>
							<path id="SVGID_00000064333155602204287540000007466604930046601381_" d="M277.676,192.094l-22.455-0.165l0-0.052
								l-3.568,0.026l-3.568-0.026l0,0.052l-22.455,0.165l-9.444,29.934c0,0,12.382,8.026,31.479,10.195l2.308-9.544h3.358
								l2.308,9.544c19.097-2.169,31.478-10.195,31.478-10.195L277.676,192.094z"/>
						</defs>
						<clipPath id="SVGID_00000096026098340619822880000001515429133771360940_">
							<use xlink:href="#SVGID_00000064333155602204287540000007466604930046601381_"  style="overflow:visible;"/>
						</clipPath>
						<g style="clip-path:url(#SVGID_00000096026098340619822880000001515429133771360940_);">
							
								<line style="fill:none;stroke:#FFFFFF;stroke-width:0.8677;stroke-miterlimit:10;" x1="227.685" y1="193.395" x2="218.357" y2="225.282"/>
							
								<line style="fill:none;stroke:#FFFFFF;stroke-width:0.8677;stroke-miterlimit:10;" x1="229.637" y1="193.612" x2="220.31" y2="225.499"/>
						</g>
						<g style="clip-path:url(#SVGID_00000096026098340619822880000001515429133771360940_);">
							
								<line style="fill:none;stroke:#FFFFFF;stroke-width:0.8677;stroke-miterlimit:10;" x1="274.118" y1="194.401" x2="283.613" y2="226.239"/>
							
								<line style="fill:none;stroke:#FFFFFF;stroke-width:0.8677;stroke-miterlimit:10;" x1="275.875" y1="193.523" x2="285.37" y2="225.36"/>
						</g>
					</g>
				</g>
				<path style="opacity:0.6;fill:#003154;" d="M224.151,196.789c3.189,1.542,6.478,2.841,9.887,3.837
					c7.989,2.335,16.156,3.779,24.5,3.804c7.549,0.022,14.991-0.823,22.267-2.42l-3.128-9.915l-22.455-0.165l0-0.052l-3.568,0.026
					l-3.568-0.026l0,0.052l-22.455,0.165L224.151,196.789z"/>
			</g>
		</g>
		<g>
			<g>
				<path style="fill:#FF8255;" d="M272.15,150.468c0.018-0.193,0.043-0.407,0.073-0.63c-5.876-0.476-10.251-0.477-10.251-0.477
					v-7.52l-9.301,2.448l-9.301-2.448v7.52c0,0-4.407,0-10.317,0.482c-0.009,0.073-0.014,0.155-0.023,0.226
					c-0.934,6.57-0.631,13.185-0.182,19.8l20.001-0.986l16.889,0.851C270.927,163.374,271.538,156.892,272.15,150.468z"/>
				<path style="fill:#EF683F;" d="M261.972,148.438v-6.596l-9.301,2.448l-9.301-2.448v6.953
					C249.545,148.992,255.946,149.395,261.972,148.438z"/>
			</g>
			<g>
				<g>
					<g>
						<g>
							<path style="fill:#EF683F;" d="M221.545,109.738c0,0-2.892-5.784-10.412-0.578c-7.52,5.206,4.049,25.162,11.858,16.775
								C230.8,117.547,221.545,109.738,221.545,109.738z"/>
							<path style="fill:#EF683F;" d="M283.243,110.573c0,0,2.185-6.087,10.27-1.81c8.085,4.277-1.034,25.465-9.783,18.064
								C274.98,119.425,283.243,110.573,283.243,110.573z"/>
						</g>
						<path style="fill:#003154;" d="M216.05,107.135c0,0-0.289-40.202,48.589-39.912c0,0-3.471,7.23-8.966,9.833
							c0,0,11.28-3.76,15.907-9.544c0,0,4.049,7.52-0.289,14.75c0,0,4.049-4.917,4.049-11.569c0,0,22.848,20.535,12.436,49.457
							C277.365,149.072,214.893,134.033,216.05,107.135z"/>
					</g>
					<g>
						<path style="fill:#FF8255;" d="M249.889,86.6c0,0,38.756,0.555,37.888,32.163s-40.491,33.827-57.555,20.518
							C212.3,125.303,218.074,89.096,249.889,86.6z"/>
						<path style="fill:#003154;" d="M219.231,107.713c0,0,12.436-2.025,15.618-16.486c0,0,18.799,23.138,44.54,4.917
							c20.367-14.417-49.746-13.015-49.746-13.015L219.231,107.713z"/>
					</g>
				</g>
				<g>
					<g>
						<path style="fill:#FF5757;" d="M245.665,119.24c0,0,9.16,5.899,19.282,0.838c8.942-4.471,17.326,6.707,10.34,15.649
							c-9.36,11.981-38.247,8.069-42.197-6.148C230.295,119.519,236.443,115.886,245.665,119.24z"/>
						<path style="fill:#C13333;" d="M264.947,120.078c-10.122,5.061-19.282-0.838-19.282-0.838
							c-9.222-3.353-15.37,0.28-12.575,10.34c0.554,1.996,1.614,3.781,3.029,5.355c3-5.394,8.926-7.806,15.635-6.46
							c7.627,1.53,11.512,6.648,12.256,13.652c4.622-1.003,8.694-3.093,11.277-6.399
							C282.273,126.785,273.889,115.607,264.947,120.078z"/>
					</g>
					<g>
						<path style="fill:#001433;" d="M276.208,114.799c0,0-0.112-0.368-0.307-1.01c-0.109-0.311-0.229-0.672-0.398-1.084
							c-0.157-0.412-0.376-0.857-0.617-1.32c-0.243-0.464-0.552-0.935-0.897-1.392c-0.345-0.458-0.743-0.901-1.197-1.275
							c-0.445-0.386-0.943-0.705-1.468-0.915c-0.258-0.12-0.532-0.187-0.801-0.246c-0.137-0.018-0.27-0.066-0.409-0.067l-0.207-0.01
							l-0.103-0.006l-0.052-0.004l-0.026-0.002l-0.013-0.001l-0.007,0c0.037-0.002-0.091,0.003,0.081-0.003l-0.559,0.032
							c-0.197,0.009-0.245,0.052-0.376,0.067c-0.216,0.048-0.528,0.125-0.774,0.241c-0.524,0.212-1.024,0.528-1.467,0.916
							c-0.453,0.374-0.851,0.817-1.196,1.275c-0.346,0.457-0.654,0.928-0.898,1.391c-0.241,0.463-0.46,0.908-0.617,1.32
							c-0.17,0.409-0.291,0.781-0.4,1.092c-0.196,0.638-0.308,1.002-0.308,1.002s-0.022-0.094-0.065-0.27
							c-0.03-0.177-0.112-0.44-0.143-0.778c-0.03-0.338-0.091-0.759-0.061-1.239c0-0.484,0.052-1.035,0.186-1.626
							c0.118-0.596,0.311-1.238,0.617-1.886c0.303-0.648,0.704-1.313,1.255-1.916c0.535-0.611,1.213-1.179,2.031-1.57
							c0.197-0.111,0.409-0.195,0.628-0.272c0.216-0.081,0.425-0.162,0.691-0.208c0.235-0.046,0.547-0.117,0.723-0.126l0.558-0.042
							l0.098-0.002l0.011,0.001l0.022,0.001l0.044,0.003l0.088,0.006l0.176,0.012l0.352,0.028c0.234,0.016,0.461,0.083,0.69,0.127
							c0.232,0.039,0.448,0.123,0.664,0.203c0.218,0.076,0.431,0.161,0.627,0.271c0.817,0.394,1.497,0.959,2.03,1.571
							c0.551,0.603,0.952,1.268,1.254,1.916c0.307,0.647,0.498,1.29,0.617,1.885c0.135,0.59,0.185,1.142,0.187,1.625
							c0.03,0.477-0.03,0.909-0.06,1.247c-0.031,0.337-0.113,0.591-0.143,0.769C276.23,114.705,276.208,114.799,276.208,114.799z"/>
					</g>
					<g>
						<path style="fill:#001433;" d="M246.129,114.799c0,0-0.112-0.368-0.307-1.01c-0.109-0.311-0.229-0.672-0.398-1.084
							c-0.157-0.412-0.376-0.857-0.617-1.32c-0.243-0.464-0.552-0.935-0.897-1.392c-0.345-0.458-0.743-0.901-1.197-1.275
							c-0.445-0.386-0.943-0.705-1.468-0.915c-0.525-0.211-1.069-0.334-1.623-0.337c0.171-0.006,0.042-0.001,0.078-0.002
							l-0.009,0.001l-0.017,0.001l-0.035,0.002l-0.07,0.004l-0.14,0.008l-0.279,0.016c-0.197,0.009-0.245,0.052-0.376,0.067
							c-0.216,0.048-0.528,0.125-0.774,0.241c-0.524,0.212-1.024,0.528-1.467,0.916c-0.453,0.374-0.851,0.817-1.196,1.275
							c-0.346,0.457-0.654,0.928-0.898,1.391c-0.241,0.463-0.46,0.908-0.617,1.319c-0.17,0.409-0.291,0.781-0.4,1.092
							c-0.196,0.638-0.308,1.002-0.308,1.002s-0.023-0.094-0.065-0.27c-0.03-0.177-0.112-0.44-0.143-0.778
							c-0.03-0.338-0.091-0.759-0.061-1.239c0-0.484,0.051-1.035,0.186-1.626c0.118-0.596,0.311-1.238,0.617-1.886
							c0.303-0.648,0.704-1.313,1.255-1.916c0.535-0.611,1.213-1.179,2.031-1.57c0.197-0.111,0.409-0.195,0.628-0.272
							c0.216-0.081,0.425-0.162,0.691-0.208c0.235-0.046,0.547-0.117,0.723-0.126l0.645-0.045c0.943,0.015,1.88,0.245,2.686,0.653
							c0.817,0.394,1.496,0.959,2.03,1.571c0.551,0.603,0.952,1.268,1.254,1.916c0.307,0.647,0.498,1.29,0.617,1.885
							c0.135,0.59,0.185,1.142,0.187,1.625c0.03,0.477-0.03,0.909-0.06,1.247c-0.031,0.337-0.113,0.591-0.143,0.769
							C246.151,114.705,246.129,114.799,246.129,114.799z"/>
					</g>
				</g>
			</g>
		</g>
		<g>
			<g>
				<g>
					<g>
						<path style="fill:#FF8255;" d="M243.094,149.993c0,0-37.21,7.973-40.944-28.359c0,0,6.777-1.909,5.833-8.145
							c-0.632-4.173-4.585-6.747-6.475-6.268c0.353-2.84,0.022-6.207-4.392-3.515c0,0-2.882-4.423-5.855-0.37
							c0,0-2.995-4.334-6.782,1.968c-2.583,4.299-16.111,75.212,67.067,66.175L243.094,149.993z"/>
						<path style="fill:#EF683F;" d="M243.094,149.993c0,0-8.142,1.744-17.191-0.118c-2.167,6.925-5.161,13.546-8.049,20.208
							c8.933,2.193,19.994,2.884,33.691,1.395L243.094,149.993z"/>
					</g>
					<g>
						<g>
							<path style="fill:#D34220;" d="M184.494,106.869c-0.158,1.305-0.252,2.625-0.132,3.918c0.07,0.638,0.191,1.29,0.49,1.809
								c0.288,0.538,0.85,0.726,1.413,0.532c0.515-0.171,0.946-0.656,1.254-1.186c0.316-0.536,0.549-1.134,0.742-1.744
								c0.378-1.221,0.643-2.508,0.788-3.779l0.753,0.139c-0.352,1.475-0.608,3.016-0.619,4.516
								c0.003,0.743,0.071,1.501,0.325,2.116c0.13,0.303,0.316,0.543,0.554,0.676c0.106,0.065,0.287,0.107,0.373,0.123
								c0.09,0.001,0.21,0.015,0.276,0.005c0.062-0.018,0.111-0.009,0.185-0.035c0.584-0.154,1.116-0.711,1.534-1.307
								c0.428-0.603,0.777-1.283,1.092-1.976c0.612-1.395,1.131-2.861,1.533-4.34l0.555,0.178c-0.664,1.585-1.212,3.244-1.572,4.927
								c-0.164,0.842-0.288,1.709-0.168,2.553c0.062,0.418,0.202,0.832,0.484,1.146c0.14,0.158,0.322,0.271,0.519,0.357
								c0.203,0.074,0.416,0.109,0.635,0.125c-0.219,0.002-0.437-0.015-0.653-0.074c-0.21-0.071-0.414-0.174-0.578-0.331
								c-0.336-0.311-0.506-0.755-0.6-1.188c-0.181-0.88-0.107-1.777,0.007-2.649c0.251-1.752,0.777-3.432,1.385-5.09l0.555,0.178
								c-0.355,1.539-0.787,3.049-1.422,4.507c-0.318,0.727-0.671,1.446-1.135,2.12c-0.233,0.336-0.486,0.666-0.804,0.958
								c-0.314,0.29-0.693,0.557-1.159,0.687c-0.11,0.038-0.26,0.049-0.389,0.066c-0.126,0.011-0.202-0.001-0.306-0.001
								c-0.301-0.031-0.499-0.093-0.737-0.212c-0.452-0.241-0.755-0.658-0.935-1.063c-0.358-0.826-0.391-1.66-0.389-2.464
								c0.038-1.615,0.321-3.163,0.711-4.707l0.753,0.139c-0.18,1.339-0.441,2.644-0.894,3.921
								c-0.231,0.634-0.505,1.261-0.883,1.844c-0.377,0.571-0.877,1.148-1.638,1.37c-0.353,0.095-0.753,0.104-1.123-0.048
								c-0.371-0.152-0.644-0.46-0.808-0.778c-0.33-0.648-0.382-1.338-0.415-2.003C184.023,109.47,184.201,108.153,184.494,106.869z
								"/>
						</g>
						<g>
							<path style="fill:#FF8255;" d="M206.269,109.771c0,0-4.071-5.634-10.172-0.491c-4.191,3.533,0.177,4.185,3.139,3.532
								c0,0-6.609,1.581-2.945,6.364"/>
							<path style="fill:#D34220;" d="M206.269,109.771c-0.277-0.316-0.601-0.584-0.922-0.844c-0.325-0.257-0.665-0.495-1.028-0.685
								c-0.354-0.206-0.734-0.36-1.115-0.488c-0.379-0.142-0.772-0.218-1.166-0.28c-0.396-0.018-0.794-0.078-1.187-0.005
								c-0.196,0.027-0.393,0.038-0.587,0.077l-0.572,0.16c-0.387,0.079-0.733,0.305-1.104,0.437
								c-0.358,0.172-0.691,0.404-1.037,0.6c-0.333,0.224-0.639,0.493-0.961,0.733c-0.29,0.207-0.62,0.547-0.906,0.815l-0.372,0.425
								c-0.114,0.146-0.2,0.304-0.305,0.452c-0.14,0.307-0.212,0.585-0.114,0.748c0.08,0.189,0.413,0.357,0.744,0.465
								c0.344,0.112,0.736,0.162,1.127,0.187c0.785,0.052,1.6-0.003,2.383-0.156l0.184,0.799c-1.312,0.342-2.739,0.925-3.52,2.036
								l-0.239,0.44c-0.043,0.16-0.097,0.318-0.149,0.48c-0.022,0.166-0.024,0.337-0.04,0.509c-0.027,0.173,0.042,0.343,0.058,0.517
								c0.022,0.175,0.055,0.35,0.132,0.514l0.192,0.505c0.161,0.323,0.349,0.638,0.526,0.963l-0.341-0.435
								c-0.109-0.149-0.241-0.286-0.332-0.449l-0.261-0.499c-0.1-0.163-0.157-0.343-0.205-0.53c-0.041-0.186-0.134-0.366-0.13-0.563
								c-0.008-0.195-0.027-0.393-0.022-0.591l0.117-0.589c0.072-0.185,0.163-0.364,0.247-0.547c0.206-0.34,0.454-0.653,0.742-0.92
								c0.135-0.145,0.298-0.249,0.448-0.375c0.149-0.129,0.318-0.218,0.478-0.328c0.661-0.404,1.344-0.725,2.108-0.937l0.184,0.799
								c-0.854,0.197-1.723,0.297-2.61,0.261c-0.444-0.024-0.891-0.072-1.348-0.211c-0.438-0.156-0.96-0.322-1.295-0.896
								c-0.07-0.136-0.109-0.299-0.151-0.451c-0.036-0.153-0.002-0.297,0.005-0.446c0.027-0.297,0.161-0.512,0.26-0.749
								c0.132-0.196,0.256-0.404,0.402-0.585l0.464-0.513c0.328-0.299,0.583-0.566,0.971-0.851c0.354-0.253,0.694-0.522,1.063-0.753
								c0.388-0.205,0.757-0.44,1.16-0.616c0.418-0.143,0.81-0.354,1.255-0.416l0.65-0.131c0.219-0.028,0.443-0.027,0.663-0.04
								c0.44-0.046,0.884,0.047,1.316,0.101c0.43,0.098,0.851,0.214,1.249,0.396c0.395,0.181,0.774,0.395,1.118,0.651
								c0.354,0.242,0.674,0.528,0.974,0.828C205.772,109.087,206.04,109.419,206.269,109.771z"/>
						</g>
					</g>
				</g>
				<g>
					<g>
						<path style="fill:#FF8255;" d="M262.663,149.993c0,0,37.21,7.973,40.944-28.359c0,0-6.776-1.909-5.832-8.145
							c0.632-4.173,4.585-6.747,6.475-6.268c-0.353-2.84-0.022-6.207,4.392-3.515c0,0,2.882-4.423,5.855-0.37
							c0,0,2.995-4.334,6.782,1.968c2.583,4.299,16.111,75.212-67.067,66.175L262.663,149.993z"/>
						<path style="fill:#EF683F;" d="M262.663,149.993c0,0,8.142,1.744,17.191-0.118c2.167,6.925,5.161,13.546,8.049,20.208
							c-8.933,2.193-19.994,2.884-33.691,1.395L262.663,149.993z"/>
					</g>
					<g>
						<g>
							<path style="fill:#D34220;" d="M321.263,106.869c0.293,1.284,0.47,2.601,0.442,3.938c-0.033,0.665-0.085,1.354-0.415,2.003
								c-0.164,0.318-0.438,0.626-0.808,0.778c-0.37,0.153-0.77,0.143-1.123,0.048c-0.761-0.222-1.261-0.799-1.638-1.37
								c-0.378-0.583-0.652-1.21-0.883-1.844c-0.453-1.276-0.714-2.582-0.894-3.921l0.753-0.139c0.39,1.544,0.673,3.092,0.711,4.707
								c0.002,0.804-0.031,1.638-0.389,2.464c-0.18,0.405-0.483,0.822-0.935,1.063c-0.238,0.119-0.436,0.181-0.737,0.212
								c-0.104,0-0.18,0.011-0.306,0.001c-0.129-0.018-0.279-0.028-0.389-0.066c-0.466-0.13-0.845-0.397-1.159-0.687
								c-0.318-0.292-0.57-0.622-0.804-0.958c-0.464-0.674-0.816-1.393-1.135-2.12c-0.635-1.457-1.068-2.968-1.422-4.507
								l0.555-0.178c0.609,1.658,1.134,3.338,1.385,5.09c0.114,0.872,0.188,1.769,0.007,2.649c-0.094,0.433-0.264,0.876-0.6,1.188
								c-0.165,0.157-0.368,0.26-0.578,0.331c-0.216,0.059-0.434,0.075-0.653,0.074c0.219-0.016,0.432-0.051,0.635-0.125
								c0.197-0.086,0.379-0.199,0.519-0.357c0.282-0.314,0.422-0.728,0.484-1.146c0.12-0.844-0.003-1.711-0.168-2.553
								c-0.359-1.684-0.907-3.342-1.572-4.927l0.555-0.178c0.401,1.479,0.921,2.945,1.533,4.34c0.315,0.693,0.663,1.373,1.092,1.976
								c0.418,0.596,0.95,1.153,1.534,1.307c0.074,0.026,0.123,0.017,0.185,0.035c0.067,0.01,0.186-0.004,0.276-0.005
								c0.085-0.015,0.266-0.058,0.373-0.123c0.238-0.133,0.424-0.373,0.554-0.676c0.253-0.615,0.321-1.373,0.324-2.116
								c-0.011-1.5-0.267-3.04-0.619-4.516l0.753-0.139c0.144,1.271,0.409,2.558,0.788,3.779c0.192,0.61,0.426,1.208,0.742,1.744
								c0.308,0.53,0.74,1.014,1.254,1.186c0.563,0.194,1.124,0.006,1.413-0.532c0.299-0.519,0.42-1.171,0.49-1.809
								C321.515,109.494,321.421,108.174,321.263,106.869z"/>
						</g>
						<g>
							<path style="fill:#FF8255;" d="M299.488,109.771c0,0,4.071-5.634,10.172-0.491c4.191,3.533-0.177,4.185-3.139,3.532
								c0,0,6.609,1.581,2.945,6.364"/>
							<path style="fill:#D34220;" d="M299.488,109.771c0.229-0.352,0.497-0.684,0.799-0.982c0.3-0.3,0.62-0.586,0.974-0.828
								c0.344-0.256,0.724-0.47,1.118-0.651c0.398-0.181,0.819-0.298,1.249-0.396c0.432-0.054,0.875-0.147,1.316-0.101
								c0.22,0.014,0.444,0.012,0.663,0.04l0.65,0.131c0.445,0.062,0.836,0.273,1.255,0.416c0.403,0.175,0.772,0.411,1.16,0.616
								c0.369,0.231,0.709,0.5,1.063,0.754c0.388,0.285,0.643,0.553,0.971,0.851l0.464,0.513c0.146,0.181,0.269,0.389,0.402,0.585
								c0.098,0.237,0.232,0.452,0.26,0.749c0.007,0.149,0.041,0.293,0.005,0.446c-0.042,0.152-0.081,0.315-0.151,0.451
								c-0.335,0.574-0.857,0.74-1.295,0.896c-0.456,0.139-0.904,0.187-1.347,0.211c-0.888,0.036-1.756-0.065-2.61-0.261
								l0.184-0.799c0.764,0.212,1.447,0.533,2.108,0.937c0.16,0.11,0.33,0.199,0.478,0.328c0.149,0.126,0.312,0.23,0.448,0.375
								c0.288,0.266,0.536,0.579,0.742,0.92c0.084,0.183,0.175,0.362,0.247,0.547l0.117,0.589c0.005,0.198-0.014,0.396-0.022,0.591
								c0.004,0.197-0.09,0.377-0.13,0.563c-0.047,0.187-0.105,0.367-0.205,0.53l-0.261,0.499c-0.091,0.162-0.223,0.3-0.332,0.449
								l-0.341,0.435c0.177-0.325,0.365-0.64,0.526-0.963l0.192-0.506c0.077-0.163,0.109-0.338,0.132-0.514
								c0.016-0.174,0.085-0.344,0.058-0.517c-0.015-0.172-0.018-0.343-0.04-0.509c-0.052-0.162-0.106-0.32-0.149-0.48l-0.239-0.44
								c-0.781-1.112-2.208-1.694-3.52-2.036l0.184-0.799c0.784,0.153,1.598,0.208,2.383,0.156c0.39-0.025,0.782-0.075,1.127-0.187
								c0.331-0.108,0.664-0.276,0.744-0.465c0.097-0.164,0.026-0.441-0.114-0.748c-0.105-0.149-0.191-0.306-0.305-0.452
								l-0.372-0.425c-0.286-0.268-0.616-0.608-0.906-0.815c-0.323-0.24-0.629-0.509-0.961-0.733
								c-0.346-0.196-0.679-0.429-1.037-0.6c-0.371-0.132-0.717-0.358-1.104-0.437l-0.572-0.16c-0.193-0.039-0.391-0.05-0.587-0.077
								c-0.393-0.073-0.79-0.013-1.187,0.005c-0.394,0.062-0.787,0.139-1.166,0.28c-0.381,0.128-0.762,0.283-1.115,0.488
								c-0.363,0.19-0.703,0.428-1.028,0.685C300.089,109.187,299.765,109.455,299.488,109.771z"/>
						</g>
					</g>
				</g>
			</g>
			<g>
				<path style="fill:#FFFFFF;" d="M281.632,194.772l-8.611-45.194l-5.206-0.217c0.525,10.842-10.224,11.933-14.412,12.286
					c-4.68-0.353-16.697-1.444-16.173-12.286l-5.206,0.217l-8.654,44.249c0,0,13.643,5.208,29.695,5.642
					C269.333,199.469,281.632,194.772,281.632,194.772z"/>
				<g>
					<g>
						<g>
							<polygon style="fill:#FF5757;" points="235.511,149.072 245.834,178.163 250.928,175.75 241.41,149.072 							"/>
							<polygon style="fill:#FFFFFF;" points="237.547,149.072 247.46,177.393 248.922,176.7 239.252,149.072 							"/>
						</g>
						<g>
							<polygon style="fill:#FF5757;" points="269.026,149.072 258.703,178.163 253.609,175.75 263.128,149.072 							"/>
							<polygon style="fill:#FFFFFF;" points="266.99,149.072 257.077,177.393 255.615,176.7 265.285,149.072 							"/>
						</g>
					</g>
					<g>
						
							<ellipse transform="matrix(0.987 -0.1607 0.1607 0.987 -26.1172 42.905)" style="fill:#FFA94D;" cx="252.202" cy="182.922" rx="10.256" ry="10.256"/>
						<path style="fill:#E2822B;" d="M245.063,182.822c0,3.943,3.196,7.139,7.139,7.139c3.943,0,7.139-3.196,7.139-7.139
							c0-3.943-3.196-7.139-7.139-7.139C248.259,175.683,245.063,178.879,245.063,182.822z"/>
					</g>
				</g>
			</g>
		</g>
	</g>
</g>
</svg>
